<svg width="20" height="20" viewBox="0 0 20 20" fill="none" xmlns="http://www.w3.org/2000/svg">
<path d="M1 18.9141H19" stroke="#17171B" stroke-width="1.6" stroke-linecap="round" stroke-linejoin="round"/>
<path d="M15.3405 18.9079V3.12043C15.3405 1.99665 14.4298 1.08594 13.307 1.08594H6.69464C5.57086 1.08594 4.66016 1.99665 4.66016 3.12043V18.9079" stroke="#17171B" stroke-width="1.6" stroke-linecap="round" stroke-linejoin="round"/>
<path d="M11.6746 11.7734L11.6765 11.7834M8.32617 11.7734L8.32807 11.7834" stroke="#17171B" stroke-width="1.6" stroke-linecap="round" stroke-linejoin="round"/>
<path d="M11.6746 8.48438L11.6765 8.49438M8.32617 8.48438L8.32807 8.49438" stroke="#17171B" stroke-width="1.6" stroke-linecap="round" stroke-linejoin="round"/>
<path d="M11.6746 5.11719L11.6765 5.12719M8.32617 5.11719L8.32807 5.12719" stroke="#17171B" stroke-width="1.6" stroke-linecap="round" stroke-linejoin="round"/>
<path d="M7.98047 18.9162V16.3087C7.98047 15.8864 8.3278 15.5391 8.7501 15.5391H11.2545C11.6758 15.5391 12.0232 15.8864 12.0232 16.3087V18.9162" stroke="#17171B" stroke-width="1.6" stroke-linecap="round" stroke-linejoin="round"/>
<path d="M15.3398 7.00781H16.5969C17.385 7.00781 18.0321 7.64608 18.0321 8.4429V18.9112" stroke="#17171B" stroke-width="1.6" stroke-linecap="round" stroke-linejoin="round"/>
<path d="M2.08398 18.9112V8.4429C2.08398 7.64608 2.73101 7.00781 3.51912 7.00781H4.6536" stroke="#17171B" stroke-width="1.6" stroke-linecap="round" stroke-linejoin="round"/>
</svg>
