<svg width="24" height="24" viewBox="0 0 24 24" fill="none" xmlns="http://www.w3.org/2000/svg">
<path d="M10.7178 3.11719H8.28313C5.34378 3.11719 3.5 5.19838 3.5 8.14357V16.0908C3.5 19.036 5.33503 21.1172 8.28313 21.1172H16.7169C19.6659 21.1172 21.5 19.036 21.5 16.0908V14.1435" stroke="#17171B" stroke-width="1.6" stroke-linecap="round" stroke-linejoin="round"/>
<path d="M8.07227 17.239L10.6993 14.4532L14.515 16.9811L17.0907 14.4531" stroke="#17171B" stroke-width="1.6" stroke-linecap="round" stroke-linejoin="round"/>
<path d="M10.1735 10.8439V8.35984M7.17188 10.8439V6.89844" stroke="#17171B" stroke-width="1.6" stroke-linecap="round" stroke-linejoin="round"/>
<path d="M21.5005 7.13309C21.5005 4.91545 19.7026 3.11719 17.4846 3.11719C15.2665 3.11719 13.4688 4.91545 13.4688 7.13309C13.4688 9.35118 15.2665 11.149 17.4846 11.149C19.7026 11.149 21.5005 9.35118 21.5005 7.13309Z" stroke="#17171B" stroke-width="1.6" stroke-linecap="round" stroke-linejoin="round"/>
<path d="M17.3457 3.11719V6.82277C17.3457 7.0692 17.5455 7.26898 17.7919 7.26898H21.4975" stroke="#17171B" stroke-width="1.6" stroke-linecap="round" stroke-linejoin="round"/>
</svg>
