<svg width="24" height="24" viewBox="0 0 24 24" fill="none" xmlns="http://www.w3.org/2000/svg">
<path fill-rule="evenodd" clip-rule="evenodd" d="M20.6345 7.73616L20.0121 6.65607C19.4855 5.74215 18.3186 5.42687 17.4034 5.95127C16.9678 6.20789 16.448 6.2807 15.9586 6.15364C15.4692 6.02657 15.0505 5.71007 14.7947 5.27392C14.6302 4.9967 14.5418 4.68094 14.5384 4.35859C14.5533 3.84177 14.3583 3.34095 13.9979 2.97022C13.6375 2.59949 13.1424 2.39041 12.6254 2.39063H11.3714C10.8648 2.39063 10.3792 2.59246 10.0219 2.95149C9.66457 3.31052 9.46506 3.79714 9.46749 4.30367C9.45248 5.34947 8.60036 6.18936 7.55445 6.18925C7.23209 6.1859 6.91634 6.09749 6.63912 5.93296C5.72394 5.40856 4.55699 5.72384 4.03042 6.63776L3.36223 7.73616C2.83629 8.64894 3.14728 9.81515 4.05788 10.3449C4.64978 10.6866 5.01441 11.3181 5.01441 12.0016C5.01441 12.6851 4.64978 13.3166 4.05788 13.6584C3.14844 14.1845 2.83711 15.3479 3.36223 16.2579L3.99381 17.3471C4.24053 17.7923 4.65448 18.1208 5.14407 18.26C5.63366 18.3991 6.15852 18.3374 6.6025 18.0886C7.03896 17.8339 7.55907 17.7641 8.04722 17.8947C8.53537 18.0254 8.95112 18.3456 9.20204 18.7842C9.36658 19.0614 9.45499 19.3772 9.45834 19.6995C9.45834 20.7561 10.3148 21.6126 11.3714 21.6126H12.6254C13.6784 21.6126 14.5334 20.7617 14.5384 19.7087C14.536 19.2006 14.7367 18.7126 15.096 18.3533C15.4553 17.994 15.9434 17.7932 16.4515 17.7957C16.7731 17.8043 17.0875 17.8923 17.3668 18.052C18.2796 18.5779 19.4458 18.2669 19.9755 17.3563L20.6345 16.2579C20.8896 15.82 20.9597 15.2986 20.8291 14.8089C20.6985 14.3193 20.3781 13.9019 19.9389 13.6492C19.4996 13.3965 19.1793 12.9791 19.0487 12.4895C18.9181 11.9999 18.9881 11.4784 19.2432 11.0405C19.4091 10.7509 19.6493 10.5107 19.9389 10.3449C20.844 9.81544 21.1543 8.65604 20.6345 7.74532V7.73616Z" stroke="#17171B" stroke-width="1.6" stroke-linecap="round" stroke-linejoin="round"/>
<path d="M12.0033 14.6356C13.4593 14.6356 14.6395 13.4553 14.6395 11.9994C14.6395 10.5435 13.4593 9.36328 12.0033 9.36328C10.5474 9.36328 9.36719 10.5435 9.36719 11.9994C9.36719 13.4553 10.5474 14.6356 12.0033 14.6356Z" stroke="#17171B" stroke-width="1.6" stroke-linecap="round" stroke-linejoin="round"/>
</svg>
