<svg width="24" height="24" viewBox="0 0 24 24" fill="none" xmlns="http://www.w3.org/2000/svg">
<path d="M7.78288 3H16.2171C19.1651 3 20.999 5.08108 20.999 8.02611V15.9729C20.999 18.918 19.1651 20.999 16.2161 20.999H7.78288C4.83493 20.999 3 18.918 3 15.9729V8.02611C3 5.08108 4.84369 3 7.78288 3Z" stroke="#17171B" stroke-width="1.6" stroke-linecap="round" stroke-linejoin="round"/>
<path d="M13.6934 13.1875H17.2232M13.6934 16.4934H17.2232" stroke="#17171B" stroke-width="1.6" stroke-linecap="round" stroke-linejoin="round"/>
<path fill-rule="evenodd" clip-rule="evenodd" d="M9.41884 16.7368H7.92831C7.29299 16.7368 6.77734 16.2221 6.77734 15.5858V14.0963C6.77734 13.46 7.29299 12.9453 7.92831 12.9453H9.41884C10.0541 12.9453 10.5698 13.46 10.5698 14.0963V15.5858C10.5698 16.2221 10.0541 16.7368 9.41884 16.7368Z" stroke="#17171B" stroke-width="1.6" stroke-linecap="round" stroke-linejoin="round"/>
<path d="M6.34452 6.54688H6.28906M8.83003 6.54688H8.77457M11.3155 6.54688H11.26" stroke="#17171B" stroke-width="1.6" stroke-linecap="round" stroke-linejoin="round"/>
<path d="M20.999 9.49219H3" stroke="#17171B" stroke-width="1.6" stroke-linecap="round" stroke-linejoin="round"/>
</svg>
