<svg width="24" height="24" viewBox="0 0 24 24" fill="none" xmlns="http://www.w3.org/2000/svg">
<path d="M21 8.59639C21 6.06666 19.4306 4.28125 16.9018 4.28125H7.10595C4.58595 4.28125 3 6.06666 3 8.59639V15.415C3 17.936 4.57719 19.7214 7.10595 19.7214H16.8931C19.4306 19.7214 21 17.936 21 15.415V8.59639Z" stroke="#17171B" stroke-width="1.6" stroke-linecap="round" stroke-linejoin="round"/>
<path d="M6.20898 16.0173C6.20898 15.0453 6.97568 13.8359 9.1853 13.8359C11.3949 13.8359 12.1616 15.0366 12.1616 16.0086" stroke="#17171B" stroke-width="1.6" stroke-linecap="round" stroke-linejoin="round"/>
<path fill-rule="evenodd" clip-rule="evenodd" d="M11.0855 9.88557C11.0855 10.9354 10.2342 11.7867 9.18439 11.7867C8.13455 11.7867 7.2832 10.9354 7.2832 9.88557C7.2832 8.83573 8.13455 7.98438 9.18439 7.98438C10.2342 7.98438 11.0855 8.83573 11.0855 9.88557Z" stroke="#17171B" stroke-width="1.6" stroke-linecap="round" stroke-linejoin="round"/>
<path d="M14.1211 10.3516L17.5936 10.3992M15.4228 14.0535H17.5935" stroke="#17171B" stroke-width="1.6" stroke-linecap="round" stroke-linejoin="round"/>
</svg>
