<svg width="16" height="17" viewBox="0 0 16 17" fill="none" xmlns="http://www.w3.org/2000/svg">
<path d="M1.13281 6.5H14.8722" stroke="#17171B" stroke-width="1.4" stroke-linecap="square"/>
<path d="M11.4258 9.50781H11.4343" stroke="#17171B" stroke-width="1.4" stroke-linecap="square"/>
<path d="M8.00391 9.50781H8.01251" stroke="#17171B" stroke-width="1.4" stroke-linecap="square"/>
<path d="M4.57812 9.50781H4.58668" stroke="#17171B" stroke-width="1.4" stroke-linecap="square"/>
<path d="M11.4258 12.5078H11.4343" stroke="#17171B" stroke-width="1.4" stroke-linecap="square"/>
<path d="M8.00391 12.5078H8.01251" stroke="#17171B" stroke-width="1.4" stroke-linecap="square"/>
<path d="M4.57812 12.5078H4.58668" stroke="#17171B" stroke-width="1.4" stroke-linecap="square"/>
<path d="M11.1172 0.789062V3.32571" stroke="#17171B" stroke-width="1.4" stroke-linecap="square"/>
<path d="M4.89062 0.789062V3.32571" stroke="#17171B" stroke-width="1.4" stroke-linecap="square"/>
<path fill-rule="evenodd" clip-rule="evenodd" d="M14.9375 8.00781C14.9375 5.17938 14.9375 3.76517 14.0588 2.88649C13.1802 2.00781 11.7659 2.00781 8.93751 2.00781H7.0625C4.23407 2.00781 2.81986 2.00781 1.94118 2.88649C1.0625 3.76517 1.0625 5.17939 1.0625 8.00781V10.2073C1.0625 13.0357 1.0625 14.4499 1.94118 15.3286C2.81986 16.2073 4.23407 16.2073 7.0625 16.2073H8.93751C11.7659 16.2073 13.1802 16.2073 14.0588 15.3286C14.9375 14.4499 14.9375 13.0357 14.9375 10.2073V8.00781Z" stroke="#17171B" stroke-width="1.4" stroke-linecap="square"/>
</svg>
