<svg width="111" height="123" viewBox="0 0 111 123" fill="none" xmlns="http://www.w3.org/2000/svg">
<path fill-rule="evenodd" clip-rule="evenodd" d="M52.2837 0.357228C50.953 0.695002 50.3798 1.15528 46.3858 5.09373L42.4056 9.01829L40.1529 8.19819C38.914 7.74702 36.5558 6.88137 34.9129 6.27439C30.7825 4.74877 29.4117 4.51935 27.5836 5.04771C26.1685 5.45644 26.0512 5.56312 16.2872 15.3279C9.50726 22.1083 6.2549 25.528 5.89075 26.2594C5.43959 27.1663 5.37918 27.5925 5.48298 29.1361C5.58438 30.6382 5.93798 31.8431 7.54894 36.1752C8.61788 39.05 9.49264 41.5271 9.49264 41.6798C9.49264 41.8325 7.77308 43.6887 5.67116 45.8045C1.58 49.923 0.873047 50.9658 0.873047 52.8834C0.873047 54.6655 1.59774 55.8147 4.75421 59.0371C7.5149 61.8553 8.57257 62.7121 9.29103 62.7121C9.45692 62.7121 12.5695 59.7424 16.2078 56.1125C19.8462 52.4828 22.8981 49.5881 22.9899 49.6799C23.082 49.7717 23.1609 63.5023 23.1654 80.1922C23.1724 105.311 23.2323 110.866 23.514 112.447C24.2523 116.592 26.8802 120.134 30.4972 121.861L32.3865 122.763L61.1536 122.838C82.3749 122.893 90.2666 122.839 91.2392 122.633C95.2295 121.789 98.7335 118.349 100.265 113.774C100.684 112.522 100.71 110.745 100.773 78.7194C100.839 45.1289 100.837 44.9815 100.354 44.4985C99.8717 44.0159 99.6862 44.0135 64.404 44.0135C44.898 44.0135 28.8848 43.926 28.8186 43.8191C28.7525 43.7124 36.4594 35.8645 45.9449 26.3797C60.8964 11.4292 63.1913 9.04154 63.1913 8.43552C63.1913 7.86137 62.6437 7.18151 60.1348 4.63921C58.4538 2.93596 56.6467 1.29 56.1194 0.981714C55.0468 0.354351 53.3704 0.081543 52.2837 0.357228ZM56.8733 5.70288C58.2385 7.0463 59.3557 8.2598 59.3557 8.39932C59.3557 8.80326 9.41353 58.6368 9.00887 58.6368C8.50401 58.6368 4.30089 54.356 3.99092 53.5261C3.85212 53.1542 3.79938 52.6072 3.87394 52.3106C3.94825 52.0139 14.9263 40.8561 28.2692 27.5155C52.1255 3.66353 52.5446 3.26007 53.4601 3.26007C54.3181 3.26007 54.5851 3.45113 56.8733 5.70288ZM96.633 5.9848C94.5786 6.94921 91.8057 10.3759 92.0042 11.7047C92.0449 11.9782 92.3717 12.42 92.7306 12.6868C93.5909 13.3269 94.3954 12.9822 95.0535 11.6922C96.0158 9.80627 97.8178 8.29432 99.1034 8.29432C99.7198 8.29432 100.349 7.54661 100.349 6.81425C100.349 5.39483 98.6827 5.02278 96.633 5.9848ZM34.3673 9.27791C36.574 10.0824 38.6764 10.8481 39.0389 10.9792C39.4013 11.1106 39.6981 11.3427 39.6981 11.4949C39.6981 11.9753 12.1589 39.346 11.9304 39.0926C11.5938 38.7196 8.55818 30.2271 8.39373 29.1982C8.29305 28.5691 8.36448 28.0367 8.61188 27.5685C8.81421 27.1859 13.2784 22.5851 18.5325 17.344C29.8068 6.09771 28.0707 6.98206 34.3673 9.27791ZM107.301 10.8333C102.542 12.0964 98.3423 16.3072 100.402 17.7498C101.278 18.3633 101.729 18.1924 103.108 16.7233C104.69 15.0385 106.261 14.14 108.411 13.6901C110.091 13.3386 110.501 13.0783 110.766 12.1939C110.883 11.8022 110.764 11.4963 110.323 11.0552C109.64 10.3715 109.17 10.3373 107.301 10.8333ZM92.6205 15.9735C91.9958 16.0787 90.8758 16.5454 90.1317 17.011C88.7787 17.8575 88.7787 17.8575 87.5518 17.391C85.9372 16.7773 83.3431 16.7523 82.6506 17.344C82.3804 17.5748 81.8106 18.608 81.3841 19.6405C80.6956 21.3071 80.6402 21.6044 80.8898 22.2946C81.3016 23.4333 81.2625 23.5279 80.2135 23.94C78.8526 24.4746 78.684 25.0912 79.2894 27.318C79.7379 28.9683 79.9057 29.2409 81.293 30.5733C82.8073 32.0272 82.8073 32.0272 84.8568 32.0272C86.3397 32.0272 87.242 31.8949 88.1201 31.5487C89.3341 31.0702 89.3341 31.0702 90.5325 31.6971C91.5319 32.2195 91.9639 32.3067 93.1328 32.2223C94.4875 32.1243 94.6004 32.0615 96.4827 30.3618C98.431 28.6027 98.431 28.6027 98.431 26.6919C98.431 25.1761 98.3236 24.5897 97.9118 23.8568C97.4191 22.9807 97.4088 22.8459 97.7089 21.2549C98.0244 19.5825 98.0232 19.5734 97.3534 18.5503C96.984 17.9857 96.3648 17.1194 95.9779 16.6248C95.2151 15.6501 94.9017 15.5894 92.6205 15.9735ZM94.3557 19.4962C94.7049 19.9402 94.8265 20.3441 94.7342 20.7548C94.2516 22.9023 94.2849 23.5939 94.9233 24.6832C95.8252 26.2222 95.7513 26.8937 94.5455 28.1225C93.3382 29.3526 92.5311 29.4499 90.964 28.554C89.6994 27.8313 89.2049 27.8109 87.8493 28.426C86.2769 29.1395 84.1989 29.0831 83.171 28.2992C82.576 27.8454 82.3693 27.5024 82.3693 26.9685C82.3693 26.3632 82.5117 26.1906 83.2683 25.878C85.1605 25.0967 85.4333 24.2874 84.3991 22.5228C83.8319 21.555 83.8154 21.4407 84.1498 20.7941C84.6513 19.8242 85.3108 19.7393 87.1044 20.4146C87.9598 20.7363 88.8844 20.9998 89.1598 20.9998C89.435 20.9998 90.2583 20.581 90.9892 20.0689C92.2058 19.217 92.7859 18.9463 93.559 18.8701C93.7144 18.8547 94.0728 19.1364 94.3557 19.4962ZM66.1298 25.3283C65.5705 25.4386 64.6342 25.8583 64.049 26.2608C62.8463 27.0884 62.4143 27.1447 61.1905 26.6334C60.6902 26.4243 59.5915 26.2738 58.566 26.2738C56.4813 26.2738 56.2083 26.4842 55.2012 28.8666C54.5415 30.427 54.3809 31.6477 54.8009 31.9073C55.2933 32.2115 55.0121 32.7512 54.1255 33.2035C52.5712 33.9965 52.5007 34.1883 52.9914 36.296C53.3992 38.0477 53.5032 38.2231 55.0648 39.7948C56.7088 41.4494 56.7088 41.4494 58.9661 41.3012C60.2076 41.2197 61.6652 40.9762 62.205 40.7602C63.146 40.3838 63.222 40.3884 64.0416 40.8719C64.7049 41.2634 65.2977 41.3765 66.6836 41.3765C68.4705 41.3765 68.4705 41.3765 70.3857 39.5467C72.3008 37.7171 72.3009 37.7171 72.3009 36.0627C72.3009 34.7893 72.1678 34.1457 71.7224 33.2668C71.1605 32.1581 71.1538 32.0816 71.4925 30.6157C71.8334 29.1397 71.8281 29.0846 71.2535 28.1096C70.9301 27.5613 70.3317 26.6545 69.9235 26.094C69.2432 25.1598 69.0969 25.0773 68.1641 25.1015C67.6046 25.1159 66.6891 25.218 66.1298 25.3283ZM68.1989 28.9244C68.6175 29.6129 68.6223 29.746 68.2761 31.1203C67.9096 32.575 67.911 32.5896 68.546 33.7189C68.9334 34.4082 69.1844 35.2213 69.1844 35.7875C69.1844 36.5976 69.0447 36.8371 68.12 37.6099C66.8665 38.6578 66.2497 38.7129 64.8339 37.9034C63.577 37.1849 62.923 37.1614 61.547 37.7859C60.8657 38.0951 59.9845 38.2601 59.0148 38.2601C57.7042 38.2601 57.4532 38.1817 56.9004 37.6008C56.5556 37.2384 56.203 36.6568 56.1172 36.3087C55.9731 35.7259 56.0654 35.6281 57.2897 35.0676C59.02 34.2753 59.2137 33.6595 58.2774 31.9282C57.6284 30.7286 57.6212 30.6742 58.0096 29.9229C58.4953 28.9839 58.847 28.9633 60.9369 29.7498C61.8126 30.0794 62.7051 30.3467 62.9201 30.3441C63.1352 30.3412 64.0569 29.8558 64.9686 29.2653C66.9502 27.9816 67.5847 27.9147 68.1989 28.9244ZM97.5919 50.2464V53.4827H61.9926H26.3933L26.3257 50.4993C26.2883 48.8586 26.3121 47.3749 26.3785 47.2023C26.477 46.9453 32.9352 46.8996 62.0454 46.9494L97.5919 47.0101V50.2464ZM97.5919 83.4484V110.058H61.9926H26.3933L26.3315 83.6882C26.2977 69.1847 26.3214 57.1831 26.3842 57.0179C26.4755 56.7787 33.7342 56.7298 62.0454 56.7782L97.5919 56.8388V83.4484ZM37.5758 59.8464C36.143 60.1377 34.6552 61.0575 33.507 62.3621C31.7184 64.394 31.7872 63.5495 31.7872 83.4484C31.7872 103.478 31.7047 102.522 33.6184 104.651C35.0666 106.261 36.8559 107.118 38.8032 107.133C41.8995 107.158 44.4382 105.596 45.7251 102.876C46.41 101.428 46.41 101.428 46.41 83.4484C46.41 65.469 46.41 65.469 45.7284 64.0306C44.2404 60.8902 40.8932 59.1723 37.5758 59.8464ZM60.6324 59.8436C58.3323 60.3043 56.5278 61.7074 55.4685 63.8592C54.681 65.4589 54.681 65.4589 54.681 83.4434C54.681 101.428 54.681 101.428 55.3091 102.767C56.5983 105.516 59.0848 107.132 62.0264 107.132C65.205 107.132 68.1737 104.952 69.06 101.968C69.6054 100.131 69.6054 66.7659 69.06 64.9289C68.0469 61.5181 64.1159 59.1457 60.6324 59.8436ZM83.1535 59.9577C80.6951 60.6339 78.9271 62.2344 78.0495 64.5791C77.5923 65.8 77.5748 66.4933 77.5748 83.4484C77.5748 100.487 77.5902 101.092 78.0562 102.337C78.7344 104.149 79.9512 105.465 81.7849 106.367C84.7736 107.839 87.9152 107.262 90.2264 104.819C92.4338 102.485 92.318 103.667 92.318 83.4484C92.318 63.2295 92.4338 64.4123 90.2264 62.0781C88.3232 60.0658 85.6617 59.268 83.1535 59.9577ZM41.5641 63.4884C42.0788 63.829 42.7055 64.5218 42.957 65.0281C43.3937 65.9079 43.4139 66.717 43.4139 83.4484C43.4139 100.18 43.3937 100.989 42.957 101.869C42.2505 103.291 40.8915 104.065 39.0988 104.065C37.2323 104.065 35.9265 103.285 35.1678 101.718C34.656 100.661 34.6548 100.615 34.7192 83.1658C34.7837 65.6735 34.7837 65.6735 35.4233 64.7069C36.7528 62.6982 39.5356 62.1459 41.5641 63.4884ZM63.5952 62.9672C64.422 63.2796 65.5154 64.2883 65.9695 65.1573C66.2516 65.6974 66.3077 68.7271 66.3077 83.4484C66.3077 102.635 66.3736 101.685 64.9506 103.031C63.1033 104.779 60.0904 104.471 58.4888 102.372C57.7974 101.465 57.7974 101.465 57.7974 83.4484C57.7974 65.4316 57.7974 65.4316 58.4888 64.5252C59.6522 63 61.8816 62.3197 63.5952 62.9672ZM86.6235 63.0808C87.8121 63.5775 88.3467 64.0886 88.8705 65.2292C89.285 66.1316 89.3109 67.2072 89.3109 83.4484C89.3109 99.6896 89.285 100.765 88.8705 101.668C88.3467 102.808 87.8121 103.319 86.6235 103.816C85.5347 104.271 84.2783 104.288 83.2568 103.861C82.3262 103.472 81.0084 102.031 80.7546 101.124C80.5153 100.269 80.5153 66.6283 80.7546 65.7729C81.0008 64.8941 82.3109 63.4354 83.2038 63.0463C84.1814 62.6203 85.5546 62.6342 86.6235 63.0808ZM96.9926 113.663C96.9926 115.132 94.3024 118.195 92.1315 119.198C90.6399 119.887 90.6399 119.887 62.6166 119.952C32.2158 120.022 32.9855 120.051 30.8935 118.728C29.1818 117.646 26.9926 114.803 26.9926 113.663C26.9926 113.333 30.6389 113.294 61.9926 113.294C93.3464 113.294 96.9926 113.333 96.9926 113.663Z" fill="#17171B"/>
</svg>
