<svg width="27" height="26" viewBox="0 0 27 26" fill="none" xmlns="http://www.w3.org/2000/svg">
<path opacity="0.2" fill-rule="evenodd" clip-rule="evenodd" d="M0.333984 20C0.333984 23.3138 3.02028 26 6.33398 26H20.334C23.6477 26 26.334 23.3137 26.334 20V5.99999C26.334 2.68629 23.6477 0 20.334 0H6.33398C3.02028 0 0.333984 2.68629 0.333984 6V20Z" fill="#BD9542"/>
<path d="M14.3333 13.9855H18.2227C18.775 13.9855 19.2227 13.5378 19.2227 12.9855C19.2227 12.4333 18.775 11.9855 18.2227 11.9855H14.3333V8.10156C14.3333 7.54928 13.8856 7.10156 13.3333 7.10156C12.7811 7.10156 12.3333 7.54928 12.3333 8.10156V11.9855H8.44531C7.89303 11.9855 7.44531 12.4333 7.44531 12.9855C7.44531 13.5378 7.89303 13.9855 8.44531 13.9855H12.3333V17.8709C12.3333 18.4232 12.7811 18.8709 13.3333 18.8709C13.8856 18.8709 14.3333 18.4232 14.3333 17.8709V13.9855Z" fill="#BD9542"/>
</svg>
