<svg width="162" height="48" viewBox="0 0 162 48" fill="none" xmlns="http://www.w3.org/2000/svg">
<path fill-rule="evenodd" clip-rule="evenodd" d="M62.7145 2.15644H63.8038L64.9904 13.4794L63.9151 13.7284L63.9641 13.94L69.5454 13.33L69.5283 13.1059H68.453L67.8772 7.47167L68.1168 7.37751L71.844 12.6904L71.0075 12.9822L71.0542 13.1853L76.7001 12.5815C76.5278 12.4695 76.3358 12.4028 76.1595 12.3414C75.94 12.2652 75.7446 12.1972 75.6411 12.0609C74.1984 10.1679 72.7834 8.25164 71.3503 6.31097L71.3466 6.30595C70.9831 5.81372 70.6185 5.31994 70.252 4.82456C70.6423 4.43462 70.9995 4.01404 71.3548 3.59564C72.3466 2.42771 73.3241 1.27671 74.9688 0.856223L74.8467 0.65625L71.1515 1.05931C71.1927 1.13912 71.2527 1.20772 71.3263 1.25922C71.3999 1.31073 71.4849 1.34359 71.574 1.35499C72.1778 1.46081 72.3326 1.82574 71.963 2.2677C70.9979 3.4208 70.0115 4.55563 68.9603 5.76505L68.9582 5.76751C68.5871 6.19444 68.208 6.63066 67.8188 7.08028L67.2812 1.78917L68.3324 1.56196L68.2857 1.33631L62.6942 1.93701L62.7145 2.15644ZM100.86 2.62563H101.984L101.99 2.42021C101.684 2.38887 101.379 2.35679 101.073 2.32471L101.073 2.32467C99.9139 2.20304 98.7557 2.08147 97.5945 2.00081C97.4296 1.99381 97.1627 2.30972 97.0569 2.53148C96.6305 3.41611 96.2236 4.31371 95.8152 5.21461C95.6758 5.52214 95.5362 5.83007 95.3956 6.13799C95.1147 6.7587 94.8287 7.37561 94.5197 8.04201L94.5152 8.05168L94.5137 8.05496L94.5089 8.06542L94.5077 8.06786L94.5025 8.07913C94.352 8.40374 94.1959 8.74026 94.0324 9.09479L94.0308 9.08942C93.8979 8.64542 93.8252 8.40206 93.7639 8.15406C93.6101 7.54169 93.4573 6.92925 93.3045 6.31689L93.3044 6.31659L93.3044 6.31628L93.3043 6.31598L93.3042 6.31568L93.3041 6.31537L93.3041 6.31507L93.304 6.31477L93.3039 6.31447L93.3039 6.31416L93.3038 6.31386L93.3037 6.31356L93.3036 6.31325L93.3036 6.31295L93.3035 6.31265L93.3034 6.31235L93.3034 6.31204C92.9481 4.88819 92.5929 3.46476 92.2248 2.04361C92.1618 1.79773 91.9867 1.41023 91.8218 1.38767C90.7628 1.2412 89.6976 1.13463 88.6333 1.02815C88.2953 0.994338 87.9575 0.960538 87.62 0.925475L87.5835 1.14879L88.5397 1.42657C88.5367 1.48806 88.5349 1.54596 88.5332 1.60113C88.5302 1.70028 88.5275 1.79061 88.518 1.8771C88.2129 4.77009 87.9017 7.6597 87.5842 10.546C87.5684 10.693 87.5593 10.8436 87.5503 10.9944C87.5025 11.7899 87.4544 12.5928 86.3999 12.9316L88.8331 13.1705C87.792 12.6009 87.7476 12.5387 87.8589 11.3614C87.9917 9.95823 88.1338 8.55453 88.2853 7.15031C88.4495 5.64078 88.623 4.1297 88.7965 2.61941C88.9618 2.83687 89.0755 3.08913 89.1288 3.35705C89.2737 3.93369 89.4185 4.51035 89.5633 5.087L89.5721 5.1222C90.2161 7.68753 90.86 10.2525 91.5214 12.8134C91.5664 12.9869 91.6978 13.1374 91.8291 13.288L91.8293 13.2881C91.891 13.3589 91.9527 13.4296 92.0054 13.5028C92.0707 13.4364 92.144 13.3744 92.2171 13.3126L92.2173 13.3124C92.3679 13.185 92.5174 13.0584 92.5944 12.8966C93.9712 9.95019 95.3458 7.00636 96.7184 4.06512C96.8041 3.87472 96.8974 3.69148 96.9929 3.50402L97.0568 3.37839C97.0736 3.34505 97.0905 3.3115 97.1075 3.27768L97.2794 3.34382L96.1901 13.6576H95.1311L95.1217 13.8521L100.696 14.4318L100.723 14.2264L99.6682 13.9642L100.86 2.62563ZM12.6066 19.7179L12.606 19.7183C12.1145 19.9816 11.6229 20.245 11.13 20.5057L11.26 20.7111L12.2871 20.308L17.6264 30.3425L16.6787 30.9689L16.7946 31.1704L21.8523 28.482L21.7636 28.2828L20.7163 28.6859C20.468 28.2191 20.2176 27.7542 19.9691 27.2926L19.9664 27.2876C19.7663 26.9161 19.5674 26.5468 19.3717 26.1804C19.0383 25.556 18.7067 24.9299 18.3775 24.3084L18.0637 23.7161C19.9864 22.465 20.3934 22.5778 21.4244 24.4312C21.8052 25.1694 22.2703 25.8611 22.8102 26.4924C23.1499 26.8558 23.6052 27.0902 24.0983 27.1556C24.5915 27.221 25.0921 27.1134 25.5149 26.8511C25.9814 26.6939 26.3813 26.3838 26.6496 25.971C26.9179 25.5582 27.039 25.0669 26.9932 24.5767C26.9788 24.6037 26.9652 24.6292 26.9524 24.6534C26.9172 24.7196 26.8881 24.7757 26.8629 24.8243L26.8629 24.8244C26.8012 24.9433 26.7627 25.0174 26.7162 25.0864C26.6156 25.2378 26.5094 25.3854 26.4032 25.5328L26.4021 25.5343L26.402 25.5346C26.3509 25.6055 26.2998 25.6764 26.2494 25.7478C26.0333 25.5842 25.8383 25.3944 25.6689 25.1829C25.4663 24.8619 25.2936 24.5232 25.121 24.1846L25.121 24.1845L25.1206 24.1837C25.0448 24.0351 24.9691 23.8866 24.8908 23.7395C23.7984 21.6845 23.4124 21.5032 21.1271 21.9397C21.021 21.9412 20.915 21.9308 20.8112 21.9086C20.9149 21.7891 21.0164 21.6771 21.1145 21.5689L21.1146 21.5688C21.3008 21.3634 21.4746 21.1717 21.6274 20.9679C21.9793 20.5425 22.1875 20.0167 22.2225 19.4658C22.2574 18.9149 22.1172 18.367 21.822 17.9006C21.5702 17.4053 21.1486 17.0172 20.6343 16.8072C20.12 16.5972 19.5472 16.5793 19.0208 16.7568C18.077 17.007 17.1619 17.3552 16.2904 17.7956C15.0494 18.4091 13.8281 19.0635 12.6066 19.7179ZM19.1484 19.9384C20.0985 21.7203 19.8456 22.4338 17.8645 23.3543L15.3909 18.6966C16.6717 17.6197 17.6412 17.7193 18.5539 18.9868C18.773 19.2905 18.9716 19.6084 19.1484 19.9384ZM154.702 30.7798L151.602 35.5332L152.474 36.2335L152.34 36.4234L147.551 33.3032L147.653 33.1149L148.683 33.6253L154.876 24.1138L153.895 23.317C153.988 23.317 154.063 23.3112 154.123 23.3065C154.213 23.2994 154.271 23.295 154.309 23.317L154.688 23.5676C156.529 24.7865 158.371 26.0056 160.198 27.2472C160.571 27.5191 160.911 27.8349 161.209 28.1879C161.605 28.554 161.866 29.0425 161.951 29.575C162.036 30.1074 161.939 30.6529 161.676 31.1237C161.43 31.6522 161.014 32.0825 160.494 32.3454C159.974 32.6082 159.38 32.6882 158.809 32.5725C158.529 32.5314 158.253 32.4634 157.962 32.3919C157.819 32.3566 157.672 32.3204 157.519 32.2862C159.328 34.5715 159.332 34.6415 157.744 37.1252C157.705 37.185 157.666 37.2444 157.627 37.3036C157.597 37.3491 157.567 37.3944 157.536 37.4397C157.366 37.6955 157.195 37.9511 157.055 38.2223C156.97 38.451 156.913 38.6894 156.887 38.932C156.928 38.9386 156.969 38.9457 157.01 38.9529L157.089 38.9671C157.262 38.9981 157.436 39.0291 157.611 39.0409C157.778 39.0136 157.949 39.049 158.091 39.1405C157.903 39.2407 157.705 39.3206 157.5 39.3786C157.074 39.4409 156.639 39.3963 156.234 39.2489C155.829 39.1015 155.467 38.8559 155.18 38.534C154.894 38.2122 154.692 37.8243 154.592 37.4051C154.493 36.986 154.499 36.5486 154.61 36.1324C154.887 35.4084 155.251 34.7205 155.692 34.0836C156.818 32.3064 156.71 31.8722 154.702 30.7798ZM157.814 25.9999L154.936 30.4242C156.549 31.7049 157.386 31.61 158.399 30.0842C158.607 29.7738 158.799 29.4531 158.974 29.1232C159.766 27.6191 159.478 26.8029 157.821 26.0007L157.814 25.9999ZM141.02 29.3714C141.989 30.0855 143.135 30.5206 144.334 30.6296C145.324 30.6583 145.999 30.1365 146.697 29.5973C146.906 29.4355 147.118 29.2721 147.34 29.1216L145.706 32.2216L136.836 27.5047L136.928 27.3055L137.989 27.7086L143.314 17.7022L142.374 17.0587L142.488 16.8649L151.018 21.3779L149.629 23.9861C149.636 23.8301 149.647 23.6737 149.658 23.518C149.721 22.6084 149.782 21.7215 149.044 21.0558C148.219 20.3768 147.359 19.742 146.467 19.1541L143.926 23.9247C145.282 25.277 146.375 25.2545 148.009 23.9371L145.908 27.886C146.154 25.817 145.836 25.27 143.694 24.3612L141.02 29.3714ZM38.5995 16.7653L36.6651 11.1412C36.805 11.2386 36.9244 11.3213 37.0301 11.3946L37.0312 11.3953C37.2341 11.5359 37.3866 11.6416 37.5373 11.7489C38.2699 12.2782 39.0086 12.8007 39.7477 13.3235C41.5269 14.582 43.3078 15.8416 45.0071 17.1995C45.4285 17.5647 45.9636 17.7721 46.521 17.7862C47.0784 17.8004 47.6234 17.6206 48.0628 17.2773C47.9921 17.0671 47.9222 16.8584 47.8527 16.6511L47.8477 16.6363L47.8473 16.6351C47.6309 15.9893 47.4186 15.3558 47.2014 14.7236C47.0569 14.3037 46.9126 13.8838 46.7683 13.4639L46.7501 13.4111L46.7486 13.4065C46.0677 11.4259 45.387 9.44552 44.6928 7.46466C44.4282 6.70912 44.436 6.10453 45.3394 5.82364C45.364 5.81608 45.3759 5.77234 45.3975 5.69314L45.3976 5.69301L45.3976 5.69285L45.3977 5.6926C45.4117 5.64148 45.4297 5.57564 45.4577 5.49528L42.7779 6.422C42.9375 6.50685 43.1189 6.578 43.2962 6.64752C43.6668 6.79286 44.0191 6.93103 44.1154 7.17209C44.7844 8.84989 45.384 10.5561 45.9835 12.2618C46.1719 12.798 46.3604 13.3341 46.5509 13.8692C46.2457 13.8165 45.9587 13.6881 45.716 13.4957C43.404 11.8239 41.0878 10.1579 38.7675 8.49799C38.7278 8.46963 38.6854 8.43776 38.6416 8.40475C38.4339 8.24842 38.1925 8.0667 38.0338 8.1136C37.0929 8.38742 36.1636 8.70155 35.2584 9.00754L35.2575 9.00784C34.918 9.1226 34.5819 9.23621 34.2499 9.34612C34.4816 9.53547 34.7379 9.70432 34.9876 9.8687C35.5083 10.2116 35.9995 10.5351 36.1757 10.9848C37.2039 13.5903 38.0605 16.2625 38.916 18.9316L39.0375 19.3105C39.1016 19.5119 38.911 19.8086 38.7384 20.0773C38.6909 20.1512 38.6448 20.223 38.6057 20.2902C38.5564 20.3726 38.4545 20.427 38.3519 20.4819L38.3518 20.4819C38.3053 20.5068 38.2586 20.5317 38.2166 20.5594L38.3092 20.7243L40.9882 19.7906L40.9853 19.7903C39.597 19.635 39.5881 19.634 39.106 18.2344C38.9369 17.7452 38.768 17.2555 38.5995 16.7653ZM1.76089 26.7445L0.807707 27.2511L0.685547 27.0495C2.0161 26.2123 3.34692 25.3758 4.678 24.5402C5.60655 23.9582 6.53727 23.3826 7.49509 22.7903L7.50289 22.7855C7.95116 22.5083 8.40537 22.2275 8.86809 21.9405L10.5021 24.5184L10.3465 24.6849L10.2856 24.6276C9.51755 23.9049 8.71466 23.1495 7.592 23.4936C6.59214 23.8623 5.6145 24.2886 4.66399 24.7705L7.51886 29.3411C9.45867 28.7318 9.95744 27.8152 9.55126 25.8458L11.9222 29.5807C11.3185 29.1785 10.643 28.8963 9.93254 28.7497C9.14177 28.9033 8.38292 29.1904 7.68849 29.5986L10.7799 34.545L11.7206 34.0626L11.8482 34.2711L7.0839 37.2793L6.94929 37.1237L7.81532 36.3868L1.76089 26.7445ZM116.188 5.92635L113.688 5.35133L113.562 5.58709C114.686 5.80107 114.698 6.52005 114.491 7.35728C114.378 7.81913 114.272 8.28205 114.166 8.74449L114.166 8.74475L114.166 8.74502L114.166 8.74529L114.166 8.74555L114.166 8.74582L114.166 8.74609L114.166 8.74636L114.166 8.74662L114.166 8.74689L114.166 8.74716C114.015 9.4065 113.865 10.0649 113.693 10.7179C113.377 12.205 112.956 13.6676 112.432 15.0948C112.211 15.5145 111.886 15.8709 111.489 16.1305C111.092 16.39 110.635 16.544 110.162 16.5781C109.688 16.6121 109.214 16.525 108.784 16.3249C108.353 16.1249 107.981 15.8186 107.702 15.4348C107.422 15.0382 107.297 14.5533 107.349 14.0708C107.839 11.6955 108.374 9.33081 108.906 6.97385L108.906 6.97244L108.908 6.96366C109.069 6.25331 109.229 5.54368 109.388 4.83467L110.234 4.75686L110.247 4.54988L105.259 3.41385L105.187 3.62627L106.07 4.01065C106.056 4.08787 106.044 4.15873 106.032 4.22533C106.011 4.34799 105.993 4.4562 105.968 4.56311C105.748 5.53905 105.527 6.51463 105.306 7.49022L105.304 7.49708L105.303 7.50395L105.301 7.51085L105.299 7.51776L105.299 7.52032L105.299 7.52148L105.298 7.52264L105.298 7.52379L105.298 7.52495L105.298 7.52611L105.297 7.52727L105.297 7.52843L105.297 7.52958L105.297 7.53074C104.949 9.06493 104.601 10.5992 104.257 12.1348C104.062 12.8243 104.11 13.5597 104.392 14.2182C104.675 14.8766 105.174 15.4182 105.808 15.7522C106.728 16.2768 107.727 16.6504 108.765 16.8587C111.326 17.3886 112.629 16.57 113.312 14.028C113.787 12.2621 114.196 10.4776 114.605 8.69424C114.684 8.34732 114.764 8.00043 114.844 7.65374C115.021 6.88108 115.214 6.15978 116.188 5.92635ZM125.871 18.5503L124.681 21.858L115.272 18.4484L115.324 18.2398L116.422 18.4888L120.306 7.8187L119.323 7.30826L119.414 7.09195L124.729 9.0271L124.661 9.24497L123.586 8.97574L119.687 19.6809C120.73 20.2665 121.918 20.5451 123.112 20.4847C124.086 20.3899 124.68 19.7692 125.293 19.1286L125.293 19.1285C125.48 18.9328 125.669 18.7353 125.871 18.5503ZM135.297 13.758L136.325 14.1128L136.401 13.8856L131.248 11.5839L131.146 11.7933L132.104 12.3659L127.474 22.763L126.413 22.4159L126.341 22.6322L135.488 26.6698L136.921 23.4345C134.593 26.1851 132.655 25.256 130.673 24.1068L135.297 13.758ZM37.4914 21.1126L33.0368 22.9956L32.9356 22.8011L33.5527 22.3428C32.8837 21.4757 32.1275 20.6794 31.2962 19.9665C30.6888 19.5369 30.1479 19.8736 29.6009 20.2141C29.3196 20.3892 29.0368 20.5653 28.7424 20.6387C28.5627 20.6831 28.3969 21.1375 28.3798 21.4168C28.3732 21.8777 28.4109 22.3381 28.4927 22.7918C28.67 24.1475 28.674 24.148 29.94 24.3182L29.9415 24.3184L27.9706 25.1533C28.0598 24.4739 28.1006 23.789 28.0927 23.1038C27.9022 20.7472 27.6937 18.3926 27.4852 16.0381C27.3991 15.0659 27.3131 14.0938 27.2282 13.1215C27.2261 13.0971 27.2238 13.0728 27.2215 13.0486L27.2177 13.0092C27.1732 12.5492 27.1337 12.1422 27.7659 11.8672C28.378 11.5993 28.6333 11.9078 28.8984 12.2281C28.9414 12.28 28.9846 12.3322 29.0296 12.3823C29.717 13.1389 30.4032 13.8956 31.0891 14.652C32.8402 16.583 34.5898 18.5124 36.3554 20.4357C36.7036 20.709 37.0854 20.9365 37.4914 21.1126ZM30.8371 19.365L28.1293 16.4533L27.9667 16.5397L28.288 20.438L30.8371 19.365ZM61.489 14.2381L60.798 10.6588L60.556 10.6813C60.5434 10.834 60.5332 10.9869 60.523 11.1397L60.523 11.1404V11.1404V11.1405V11.1406V11.1407V11.1408V11.1409C60.4994 11.4957 60.4758 11.8502 60.4214 12.2002C60.294 12.9752 59.9105 13.6852 59.3322 14.2167C58.7539 14.7482 58.0142 15.0705 57.2312 15.1321C55.8952 15.2309 54.9 14.5493 54.4526 12.811C53.905 10.6664 53.4866 8.49075 53.1998 6.29595C53.1371 5.95879 53.1425 5.61251 53.2156 5.27745C53.2887 4.9424 53.428 4.62535 53.6254 4.34493C53.8228 4.06451 54.0743 3.82639 54.3651 3.64459C54.6558 3.46278 54.98 3.34094 55.3186 3.28624C55.9601 3.15681 56.6256 3.22125 57.2303 3.47137C57.835 3.7215 58.3516 4.14597 58.7142 4.69072C58.9814 5.04547 59.214 5.42664 59.4462 5.80701C59.5521 5.98062 59.658 6.15406 59.767 6.32474L59.9335 6.26794L59.2924 2.8863C58.8321 2.99674 58.3657 3.07988 57.8957 3.13529C57.5502 3.12586 57.2064 3.08444 56.8686 3.01157C55.4606 2.79001 54.0198 3.07836 52.8056 3.8247C51.5914 4.57105 50.6835 5.72635 50.2453 7.08261C49.7645 8.36347 49.7134 9.76602 50.0999 11.0784C50.4865 12.3909 51.2895 13.5419 52.3879 14.3576C53.4862 15.1734 54.8202 15.6096 56.1883 15.6004C57.5564 15.5912 58.8844 15.137 59.9716 14.3065L59.9965 14.2899C60.4629 13.9782 60.9079 13.6807 61.489 14.2381ZM103.092 38.4075V42.2265C104.502 42.5937 105.119 42.284 105.684 40.8477V43.9313C105.601 43.8249 105.522 43.7009 105.441 43.5733C105.259 43.2868 105.066 42.9818 104.786 42.8155C104.256 42.6085 103.698 42.4839 103.131 42.4459V46.7706C104.576 47.0569 106.126 47.1254 107.065 44.5382V47.0281C106.983 47.0358 106.907 47.0449 106.834 47.0536C106.693 47.0704 106.565 47.0857 106.436 47.0857H100.162C100.287 46.8134 100.375 46.5255 100.423 46.2298C100.442 43.8387 100.45 41.4468 100.415 39.0557C100.34 38.7131 100.204 38.3869 100.012 38.0932H106.795V40.2586C106.686 39.8851 106.502 39.538 106.253 39.2391C106.004 38.9401 105.697 38.6959 105.349 38.5215C105.001 38.3472 104.621 38.2466 104.233 38.2261C103.844 38.2055 103.456 38.2654 103.092 38.4021V38.4075ZM73.6844 41.6947L73.6844 41.6793C73.6855 41.2099 73.6865 40.7405 73.6865 40.2711L73.8779 40.2283C75.3008 42.2467 76.7224 44.2674 78.1427 46.2905C78.7893 47.2118 79.0687 47.3005 80.2786 46.9184C80.2786 46.2414 80.2799 45.5629 80.2812 44.8832C80.2845 43.1309 80.2878 41.3711 80.2693 39.6113C80.2638 38.9553 80.2677 38.3717 81.2598 38.1329H79.3145C79.384 38.2218 79.4709 38.3092 79.5573 38.396C79.7399 38.5796 79.9198 38.7605 79.9261 38.9475C79.9678 40.2378 79.963 41.5297 79.9578 42.921V42.9213V42.9215V42.9218V42.9232V42.9258V42.9284V42.931C79.956 43.4076 79.9541 43.8959 79.9541 44.3997C79.8452 44.2567 79.7533 44.1375 79.6733 44.0337C79.5135 43.8261 79.4011 43.6802 79.2943 43.5298C78.9108 42.9874 78.5277 42.4444 78.1445 41.9014C77.3664 40.7986 76.5881 39.6957 75.8061 38.5966L75.7727 38.5513C75.6282 38.3547 75.443 38.1025 75.2684 38.0924C74.555 38.0535 73.8398 38.0592 73.1669 38.0646C72.9386 38.0665 72.7152 38.0683 72.4983 38.0683C72.8878 38.6695 73.1745 39.3314 73.3465 40.0268C73.4508 41.9203 73.4097 43.8255 73.3688 45.7253V45.7255V45.7257V45.7258V45.7264L73.3652 45.8952C73.2927 46.2984 73.1594 46.6883 72.9699 47.0515H74.1627C74.113 46.9626 74.0492 46.8737 73.9853 46.7846L73.9851 46.7844L73.9851 46.7844C73.8471 46.5919 73.7083 46.3985 73.7083 46.2018C73.6775 44.6998 73.681 43.1973 73.6844 41.6947ZM63.8762 47.0227C63.9834 46.7903 64.0581 46.5441 64.0979 46.2913C64.1143 43.8449 64.1236 41.397 64.0855 38.9506C64.0855 38.7485 63.9465 38.5481 63.8108 38.3525L63.8107 38.3524C63.7481 38.262 63.6861 38.1727 63.6389 38.0846H70.4644V40.0859C69.894 38.206 68.3977 38.2558 66.8034 38.3165V42.2148C68.0966 42.6544 68.8319 42.2965 69.3789 40.8508V44.0768C69.316 43.9505 69.2657 43.8146 69.2175 43.6844L69.2175 43.6843L69.2174 43.6841L69.2173 43.684C69.1171 43.4131 69.026 43.1672 68.8506 43.0847C68.2529 42.8502 67.6351 42.6702 67.0049 42.547C66.879 42.956 66.7889 43.3752 66.7357 43.7998C66.708 44.5124 66.7135 45.2253 66.7189 45.9302C66.7211 46.2136 66.7233 46.4958 66.7233 46.776C68.8093 47.2429 69.8769 46.6414 70.7951 44.6425V47.0204L63.8762 47.0227ZM60.3878 40.3887C60.473 40.5968 60.5654 40.8223 60.6735 41.071L60.6696 38.4573C60.1403 38.3816 59.6159 38.2743 59.0994 38.136C58.107 37.762 57.0144 37.7501 56.0141 38.1022C55.0137 38.4543 54.1695 39.1479 53.6301 40.061C53.0609 41.0674 52.8464 42.2359 53.0209 43.3788C53.1955 44.5218 53.749 45.573 54.5926 46.3637C55.4943 46.9658 56.5458 47.3048 57.6294 47.3428C58.7129 47.3807 59.7856 47.116 60.7272 46.5784C61.0083 46.4735 61.2452 46.2757 61.3985 46.0176C61.5517 45.7597 61.6122 45.457 61.5699 45.1599C61.5852 44.7241 61.659 44.2923 61.7893 43.8761H58.6979C58.7515 43.9404 58.815 44.0018 58.8771 44.062C59.0096 44.1902 59.1357 44.3124 59.1469 44.4433C59.1961 44.958 59.1756 45.477 59.0862 45.9863C59.0604 46.2021 58.984 46.4088 58.8631 46.5895C58.7423 46.7702 58.5804 46.9198 58.3907 47.026C58.2011 47.1322 57.989 47.1921 57.7718 47.2007C57.5546 47.2093 57.3384 47.1665 57.1409 47.0756C56.7901 46.9684 56.4836 46.7501 56.2676 46.4535C56.0516 46.157 55.9378 45.7983 55.9434 45.4315C55.8734 43.6006 55.8601 41.7619 55.9675 39.935C55.9649 39.4779 56.1297 39.0356 56.4307 38.6916C56.7317 38.3476 57.1481 38.1256 57.6015 38.0675C58.0625 38.009 58.5302 38.0956 58.9397 38.315C59.3492 38.5345 59.6803 38.876 59.8868 39.2922C60.0722 39.6182 60.2154 39.9678 60.3878 40.3887ZM89.6089 38.1134V40.1754C89.0565 38.2159 87.5197 38.2628 85.8892 38.3126L85.888 38.3126V42.2109C87.1882 42.6373 87.8184 42.3455 88.4985 40.892V43.9445C88.1273 42.5906 87.08 42.5089 85.8817 42.5548V46.7823C87.8659 47.0608 88.9825 46.9231 89.8672 44.4799V47.0336H82.9265C83.0623 46.8204 83.1588 46.5845 83.2113 46.3372C83.2273 44.2576 83.2262 42.1745 83.2251 40.0681V40.0635C83.2248 39.5194 83.2245 38.9738 83.2245 38.4262L82.2908 38.115L89.6089 38.1134ZM91.2276 38.0804C91.1678 38.0851 91.1119 38.0895 91.0616 38.0924C91.3047 38.4455 91.5182 38.8182 91.6996 39.2066C92.0667 40.2079 92.4255 41.2119 92.7843 42.2159C93.2584 43.5424 93.7324 44.8687 94.2253 46.1886C94.353 46.5286 94.6611 46.9667 94.9646 47.0445C95.4892 47.1724 95.5741 46.7749 95.652 46.4101C95.6731 46.3112 95.6937 46.2147 95.7224 46.1318C96.0321 45.2318 96.334 44.328 96.636 43.4236C97.0534 42.1738 97.4712 40.923 97.9105 39.6797C98.1479 39.1391 98.4289 38.6186 98.7508 38.1235H97.2545C97.312 38.2198 97.3899 38.321 97.4674 38.4214C97.6322 38.6354 97.7946 38.8461 97.7517 38.9997C97.3955 40.283 96.9861 41.5553 96.5428 42.9329C96.411 43.3428 96.2761 43.7619 96.1387 44.1935C95.9514 43.6619 95.7702 43.1511 95.5943 42.655C95.1248 41.3313 94.6924 40.1123 94.2798 38.8829C94.2325 38.7429 94.276 38.5739 94.3265 38.3783C94.3523 38.2782 94.3799 38.1711 94.3981 38.0574H91.656C91.5071 38.0585 91.3582 38.0701 91.2276 38.0804Z" fill="#BD9542"/>
</svg>
