<svg width="90" height="86" viewBox="0 0 90 86" fill="none" xmlns="http://www.w3.org/2000/svg">
<path fill-rule="evenodd" clip-rule="evenodd" d="M14.7156 0.38243C14.7156 1.05474 18.5783 4.1577 21.3534 5.71468C26.8669 8.80757 40.6567 17.0697 40.7353 17.3274C40.8228 17.6137 29.973 23.8183 29.1088 23.9763C28.8058 24.0313 28.5582 23.9458 28.5582 23.7853C28.5582 23.6252 28.0627 22.8453 27.4571 22.0521C26.8515 21.259 26.356 20.2507 26.356 19.8118C26.356 19.3075 26.0662 18.824 25.5695 18.4984C24.8396 18.0202 24.725 18.0211 23.9779 18.5106C23.3446 18.9253 23.1936 19.2518 23.27 20.0412C23.332 20.6798 23.5956 21.1448 23.9964 21.3213C24.3425 21.4739 24.9538 22.3941 25.3549 23.3663C26.5778 26.3305 26.6574 26.0763 24.1065 27.3542C22.8349 27.9913 20.9026 29.133 19.8128 29.8909C18.3027 30.941 17.5413 31.2688 16.6111 31.2688C15.6672 31.2688 15.2425 31.4566 14.7385 32.0978C13.9158 33.1436 13.9158 33.7986 14.7385 34.8443C15.823 36.2229 18.1558 35.7315 18.6094 34.0289C18.745 33.5195 19.412 33.0429 20.9262 32.3728C22.0959 31.8553 24.1002 30.7334 25.381 29.8802C27.7091 28.3285 27.7091 28.3285 28.2949 29.0908C28.6167 29.5102 29.3035 30.3744 29.8204 31.0118C30.3373 31.6489 30.7604 32.5238 30.7604 32.9554C30.7604 33.8307 31.4998 34.7295 32.2193 34.7295C33.9062 34.7295 34.5304 32.7642 33.1854 31.6882C32.4989 31.1395 30.4993 27.3035 30.7831 27.0799C31.2968 26.6746 44.084 19.3138 44.2746 19.3138C44.4659 19.3138 57.2883 26.6794 57.7939 27.0795C58.0773 27.3039 56.078 31.1392 55.3915 31.6882C54.0466 32.7642 54.6708 34.7295 56.3577 34.7295C57.1011 34.7295 57.8165 33.8197 57.8165 32.8743C57.8165 32.3693 58.1277 31.7153 58.5624 31.3069C58.9727 30.9215 59.5714 30.118 59.8926 29.5218C60.2138 28.9253 60.5816 28.4374 60.7096 28.4374C60.838 28.4374 61.974 29.11 63.2343 29.9318C64.4943 30.7538 66.482 31.8509 67.6511 32.37C69.1634 33.0413 69.8319 33.5201 69.9675 34.0289C70.2129 34.95 71.2546 35.6733 72.3355 35.6733C73.2599 35.6733 74.4906 34.4155 74.4906 33.4711C74.4906 33.1716 74.1971 32.5537 73.8384 32.0978C73.3344 31.4566 72.9097 31.2688 71.9659 31.2688C71.0356 31.2688 70.2743 30.941 68.7642 29.8909C67.6744 29.133 65.7421 27.9913 64.4704 27.3542C61.9196 26.0763 61.9992 26.3305 63.2221 23.3663C63.6232 22.3941 64.2345 21.4739 64.5805 21.3213C64.9813 21.1448 65.245 20.6798 65.307 20.0412C65.3834 19.2518 65.2324 18.9253 64.5991 18.5106C63.8519 18.0211 63.7374 18.0202 63.0075 18.4984C62.5107 18.824 62.221 19.3075 62.221 19.8118C62.221 20.2507 61.7255 21.259 61.1199 22.0521C60.5143 22.8453 60.0187 23.6252 60.0187 23.7853C60.0187 23.9458 59.7712 24.0313 59.4682 23.9763C58.5747 23.813 47.7664 17.609 47.853 17.3088C47.8964 17.1578 53.0937 14.0004 59.4024 10.2925C67.5948 5.47715 71.3178 3.10912 72.4306 2.00517C73.2876 1.15542 73.9208 0.391868 73.8378 0.308812C73.7547 0.225756 72.7703 0.387148 71.6503 0.667147C70.1 1.05474 66.5934 2.89456 56.9514 8.37908L44.2885 15.582L31.6256 8.37845C23.6809 3.85882 18.3766 1.03209 17.3897 0.791731C16.5245 0.58126 15.5691 0.335239 15.2661 0.244633C14.9632 0.154341 14.7156 0.216318 14.7156 0.38243ZM4.01898 46.0553C4.01898 46.2283 4.36787 46.3699 4.79448 46.3699C6.00036 46.3699 6.26274 47.2376 5.70652 49.386C5.06567 51.861 2.2553 61.4187 1.87116 62.4286C1.51975 63.3536 0.974224 63.8566 0.0864073 64.0746C-0.259659 64.1599 2.45224 64.2458 6.11299 64.2659L12.7688 64.3024L13.2967 62.808C14.5935 59.1369 14.5334 58.7817 12.9808 60.9396C12.4595 61.6645 11.5069 62.5155 10.8642 62.8307C9.46448 63.5172 5.2129 63.7276 4.62082 63.1399C4.32572 62.8467 4.71237 61.1082 6.36939 55.2748C8.56691 47.5383 9.11212 46.3699 10.5231 46.3699C10.9255 46.3699 11.2549 46.2283 11.2549 46.0553C11.2549 45.8637 9.83918 45.7407 7.63694 45.7407C5.4347 45.7407 4.01898 45.8637 4.01898 46.0553ZM19.047 46.1339C18.5166 46.5448 17.424 49.8123 17.7185 50.1071C17.9459 50.3346 21.2896 46.6335 21.3078 46.1339C21.316 45.9093 20.9435 45.7407 20.4385 45.7407C19.9525 45.7407 19.3264 45.9178 19.047 46.1339ZM26.0414 46.0333C26.0414 46.1944 26.3601 46.3715 26.7492 46.4265C27.9 46.5901 27.7865 48.1197 26.2226 53.5294C23.3666 63.4093 23.4704 63.1409 22.2579 63.7512C21.1848 64.2914 21.2921 64.3015 28.136 64.3018L35.107 64.3024L35.7312 62.4934C36.0744 61.4987 36.4567 60.4369 36.5803 60.1339C36.978 59.1605 36.2925 59.5594 35.4006 60.8207C34.3359 62.3258 32.4804 63.2381 29.9129 63.5184C27.3419 63.7987 26.0414 63.5109 26.0414 62.6608C26.0414 62.3047 26.4661 60.5432 26.9852 58.7468C27.5043 56.9501 27.929 55.4126 27.929 55.3296C27.929 55.2468 28.7564 55.1789 29.7679 55.1789C31.7776 55.1789 32.4895 55.635 32.7141 57.0665C32.828 57.7901 33.2213 56.7563 34.4199 52.5834C34.6534 51.771 34.0761 51.9145 33.6105 52.7847C33.0728 53.7896 31.9994 54.235 30.1164 54.235C28.2209 54.235 28.225 54.2627 29.5055 50.0152C30.0227 48.3 30.4458 46.849 30.4458 46.7905C30.4458 46.7323 31.4724 46.6848 32.7267 46.6851C35.6286 46.6858 37.061 47.3364 37.5742 48.8867C37.8057 49.5871 37.9961 49.8161 38.097 49.516C39.4841 45.3886 40.0067 45.7407 32.4908 45.7407C28.7224 45.7407 26.0414 45.8624 26.0414 46.0333ZM43.0301 45.9961C43.0301 46.1786 43.4195 46.3731 43.8952 46.4278C45.1794 46.5753 45.1414 47.5283 43.6439 52.7029C42.9244 55.1892 42.2004 57.7193 42.035 58.3249C40.9241 62.3899 40.444 63.4181 39.4552 63.8484C38.5391 64.2471 38.7052 64.2782 41.7716 64.2854C44.6298 64.292 44.969 64.2398 44.2885 63.8972C43.1786 63.3385 43.1685 62.3667 44.2347 58.7663L45.1574 55.6508H48.105C50.7561 55.6508 51.2148 55.5608 52.667 54.7557C54.9904 53.468 55.7716 52.2961 55.7716 50.0996C55.7716 48.149 55.2868 47.342 53.57 46.4363C52.4188 45.8288 43.0301 45.4368 43.0301 45.9961ZM59.0749 46.0333C59.0749 46.1944 59.3792 46.3715 59.7507 46.4265C61.1947 46.6414 61.1416 47.2023 58.9482 54.8904C57.7923 58.9422 56.5918 62.608 56.2806 63.0364C55.9695 63.4649 55.3736 63.9123 54.9568 64.0309C54.5396 64.1492 57.3651 64.2235 61.2353 64.1955L68.2721 64.1451L69.046 61.9932C69.4714 60.8097 69.7187 59.7479 69.5953 59.6337C69.4717 59.5195 69.3031 59.6167 69.22 59.8498C68.8733 60.8257 67.1326 62.4094 65.882 62.887C64.2301 63.5178 59.9058 63.6795 59.3534 63.1311C59.0469 62.8266 59.1935 61.9737 60.0574 59.0413C61.1488 55.3362 61.1488 55.3362 62.9062 55.243C64.9643 55.1339 65.6816 55.6272 65.6816 57.1517C65.6816 58.659 66.1501 57.8304 66.8982 55.0002C67.7398 51.8173 67.7373 51.2818 66.8875 52.6092C66.5185 53.1855 65.8745 53.7874 65.4567 53.9462C64.4553 54.3269 61.5918 54.3181 61.5918 53.9346C61.5918 53.4429 63.2246 47.835 63.5533 47.1973C63.8223 46.6751 64.1542 46.6244 66.4977 46.7474C69.5611 46.9082 70.7153 47.6123 70.7153 49.319C70.7153 49.9051 70.8264 50.1562 71.0048 49.9721C71.388 49.5764 72.2682 46.1402 72.0442 45.9159C71.7365 45.6082 59.0749 45.7231 59.0749 46.0333ZM76.3782 46.0333C76.3782 46.1944 76.6966 46.3715 77.0861 46.4265C78.4987 46.6272 78.3253 47.6035 74.7259 59.7406C73.7651 62.9795 73.6289 63.2365 72.6008 63.7512C71.5217 64.2917 71.6268 64.3015 78.471 64.3018C85.4401 64.3024 85.4401 64.3024 85.8107 63.28C87.1802 59.5 87.1494 58.6461 85.7217 60.8037C84.7014 62.3453 82.8333 63.2479 80.0821 63.5288C77.4347 63.799 76.3782 63.5637 76.3782 62.7036C76.3782 62.35 76.8243 60.5121 77.3696 58.6197C78.3612 55.1789 78.3612 55.1789 80.1834 55.1789C81.7095 55.1789 82.0849 55.2924 82.4951 55.8782C82.7644 56.2627 82.9966 56.935 83.0104 57.3726C83.0328 58.0635 84.1018 55.1515 84.6983 52.7753C84.9399 51.8123 84.4645 51.8179 83.9473 52.7847C83.4097 53.7896 82.3362 54.235 80.4533 54.235C78.7384 54.235 78.7038 54.1772 79.2348 52.1901C80.7742 46.4281 80.5955 46.6845 83.0768 46.6851C85.9649 46.6858 87.3989 47.3389 87.911 48.8867C88.1486 49.6053 88.3339 49.824 88.4443 49.516C88.7514 48.6593 89.2736 46.5344 89.2752 46.1339C89.2767 45.8319 87.7783 45.7407 82.8276 45.7407C79.0593 45.7407 76.3782 45.8624 76.3782 46.0333ZM52.3543 47.4707C53.2648 48.0669 53.5876 49.7506 53.0899 51.3045C52.3386 53.6496 50.5384 54.868 47.8379 54.8595C45.3927 54.8517 45.3824 54.8174 46.5536 50.68C47.3845 47.745 47.7136 46.9947 48.2198 46.8808C49.2747 46.6436 51.598 46.9749 52.3543 47.4707ZM32.9627 74.8914C32.7031 74.9779 32.2919 75.1123 32.0494 75.19C31.6907 75.3045 31.7058 75.4033 32.1287 75.7157C32.6091 76.0702 32.5905 76.2952 31.8911 78.617C31.474 80.0012 30.9058 81.9392 30.6286 82.9236C30.3518 83.9077 29.9038 84.9343 29.6335 85.2045C29.1884 85.6497 29.2809 85.6956 30.6192 85.6956C31.8892 85.6956 32.0415 85.6302 31.7083 85.2287C31.395 84.8509 31.568 83.8957 32.6135 80.2359C34.2148 74.6316 34.2252 74.4705 32.9627 74.8914ZM39.0833 75.4568C38.1722 76.3679 38.097 77.5181 38.8615 78.8492C39.34 79.6822 39.3501 79.8292 38.9402 79.9707C38.6806 80.0604 38.008 80.5924 37.4458 81.153C36.1402 82.4542 36.048 83.9747 37.2086 85.0651C37.6405 85.471 38.0687 85.7283 38.16 85.6368C38.2515 85.5455 38.1103 85.2916 37.8466 85.0727C37.0645 84.4233 37.2419 82.4322 38.1817 81.3153C39.234 80.0645 39.9888 80.0909 40.802 81.4069C41.6448 82.7704 41.6345 84.0505 40.7731 84.9676C39.8195 85.9825 40.5532 85.8844 41.5778 84.8597C42.7765 83.661 42.9199 82.7122 42.1432 81.1134C41.4831 79.7549 41.4831 79.7549 42.571 78.667C43.7675 77.4706 43.9113 76.757 43.1694 75.6984C42.5566 74.8231 41.9308 74.7502 42.3898 75.6075C42.8599 76.4858 42.7906 77.5832 42.213 78.4075C41.4806 79.4535 40.477 79.1798 39.7751 77.7427C39.2413 76.6501 39.2343 76.4928 39.6896 75.7981C39.962 75.3822 40.5774 74.983 41.0569 74.9103C41.866 74.7882 41.8541 74.7753 40.8923 74.7316C40.1681 74.6986 39.6226 74.9172 39.0833 75.4568ZM47.9851 75.0242C47.2002 75.4813 47.2744 76.0507 48.0637 75.6282C48.9947 75.1299 49.9514 75.7456 49.9514 76.8429C49.9514 77.8474 48.9943 78.8548 47.5918 79.3261C46.648 79.6432 46.648 79.6432 47.4968 79.9811C48.7518 80.481 49.4392 81.707 49.2202 83.0557C48.8861 85.1152 48.4013 85.3096 45.4371 84.5743C44.6758 84.3853 44.5575 84.4394 44.6522 84.9314C44.9139 86.2908 48.0301 85.9787 49.3942 84.4564C50.764 82.9277 50.9289 81.0552 49.7934 79.9198C49.2548 79.3811 49.1718 78.7743 49.6368 78.7743C50.272 78.7743 51.2098 77.4907 51.2098 76.6208C51.2098 75.0415 49.4508 74.1706 47.9851 75.0242ZM55.8405 75.2435C55.3591 75.5414 54.6695 76.3962 54.308 77.1427C53.1405 79.5542 54.1161 81.9203 56.2784 81.9203C56.7783 81.9203 57.1873 82.0468 57.1873 82.2016C57.1873 82.5606 55.7373 84.0848 54.5132 85.0126C53.6102 85.6972 53.6033 85.7195 54.3559 85.5298C56.7849 84.9173 59.4569 81.9527 60.0184 79.2474C60.3343 77.7263 60.3072 77.3586 59.8061 76.348C59.4905 75.7113 59.0199 75.1245 58.7603 75.0437C58.3539 74.9169 58.3488 74.9701 58.7251 75.4256C59.6101 76.4978 58.5939 80.9256 57.3534 81.4016C56.5549 81.708 55.3934 81.0781 55.1786 80.2221C54.7101 78.3552 56.0412 75.3756 57.5302 74.959C58.2884 74.747 58.2884 74.747 57.5019 74.724C57.0693 74.7115 56.3215 74.9452 55.8405 75.2435Z" fill="#BD9542"/>
</svg>
