<svg width="149" height="42" viewBox="0 0 149 42" fill="none" xmlns="http://www.w3.org/2000/svg">
<path fill-rule="evenodd" clip-rule="evenodd" d="M27.3551 0.918217C28.8911 0.527478 30.3072 0.379797 31.5751 0.382859C35.7168 0.392863 38.2778 2.01049 38.2778 2.01049C39.4276 2.70035 41.7846 2.41291 41.7846 2.41291C43.6817 2.18295 45.2339 1.4931 45.2339 1.4931C43.5667 3.21774 41.6696 6.20712 41.6696 6.20712L40.1749 8.73659C39.945 4.42499 37.358 2.29793 37.358 2.29793C34.3111 -0.174057 28.8498 1.26314 28.8498 1.26314C22.1812 3.04527 15.7425 10.1163 15.7425 10.1163C13.2131 12.8757 9.07392 18.9695 9.07392 18.9695C5.16474 26.3854 5.10725 31.8468 5.10725 31.8468C5.10725 36.4458 7.69421 39.0903 7.69421 39.0903C10.0512 41.5623 15.5701 40.4125 15.5701 40.4125C21.7788 39.2053 27.6425 33.7439 27.6425 33.7439C30.5744 28.5125 34.4261 25.0632 34.4261 25.0632C40.0599 20.1192 45.0039 20.1767 45.0039 20.1767L46.9585 20.3492C49.4305 20.8666 49.7754 23.4535 49.7754 23.4535C49.9479 24.5458 49.7754 25.0632 49.7754 25.0632L50.6377 23.396L51.96 21.0965L56.0991 21.039L47.7633 35.1236C46.6711 36.9057 46.6711 38.1705 46.6711 38.1705C46.7286 39.4352 47.7633 39.9526 47.7633 39.9526C51.2701 40.8149 57.6513 33.4565 57.6513 33.4565C62.5378 27.7651 66.2745 21.0965 66.2745 21.0965H70.4136L68.6315 24.0859C70.7585 22.2463 73.0581 21.7289 73.0581 21.7289L75.0126 21.5564L76.0474 21.8439C77.1972 22.4188 77.4271 23.626 77.4271 23.626L77.4846 24.5458C77.4271 25.6956 76.8523 26.4429 76.8523 26.4429C80.1866 25.0057 84.2107 19.7168 84.2107 19.7168C86.3953 16.7849 89.2697 11.8984 89.2697 11.8984L93.4088 11.8409L88.5223 20.5216H93.1214L92.5465 21.0965L88.0049 21.154L79.8416 35.0661C78.6919 36.7333 78.6344 37.9405 78.6344 37.9405C78.5769 39.0328 79.4392 39.4352 79.4392 39.4352C81.3938 40.355 84.9006 37.6531 84.9006 37.6531C90.017 34.0313 94.731 27.7651 94.731 27.7651C97.1455 24.5458 99.2151 21.154 99.2151 21.154H102.952L94.6161 35.641C93.8112 36.9632 93.8112 38.0555 93.8112 38.0555C93.8112 39.1478 94.5011 39.6077 94.5011 39.6077C96.2832 40.6425 99.8475 37.1357 99.8475 37.1357L102.779 34.2038L105.654 30.8695L105.769 30.697L106.804 29.1449C110.828 23.7985 116.232 21.5564 116.232 21.5564C121.463 19.3719 123.877 21.7289 123.877 21.7289C125.2 23.5685 124.05 25.7531 124.05 25.7531C123.073 27.7077 120.371 29.5473 120.371 29.5473C117.841 31.2719 114.794 32.2492 114.794 32.2492C111.575 33.284 109.161 33.054 109.161 33.054C108.126 35.5835 108.356 37.3656 108.356 37.3656C108.758 40.355 112.667 40.0676 112.667 40.0676C116.691 39.8951 123.82 34.0888 123.82 34.0888C131.121 28.0526 135.26 21.039 135.26 21.039H139.629L136.697 26.0405C137.79 24.9482 140.434 23.2236 140.434 23.2236C143.998 20.8666 145.78 20.9241 145.78 20.9241C147.39 21.039 148.08 22.0738 148.08 22.0738C148.655 22.9361 148.425 24.1434 148.425 24.1434C148.137 25.3506 147.275 25.983 147.275 25.983C146.298 26.6729 145.09 26.2705 145.09 26.2705C143.481 25.6381 143.941 23.626 143.941 23.626C144.401 21.6139 146.355 22.0163 146.355 22.0163C146.068 21.3265 144.688 21.6139 144.688 21.6139C143.366 21.8439 141.641 22.8787 141.641 22.8787C137.33 25.2932 134.973 29.0299 134.973 29.0299L130.833 35.756L127.614 41.1599H123.303L132.041 26.5004C129.569 29.3748 126.062 32.5941 126.062 32.5941C119.106 38.9753 114.162 40.585 114.162 40.585C112.035 41.3323 110.655 41.4473 110.655 41.4473L107.148 41.1599C103.412 39.5502 103.987 35.526 103.987 35.526C104.159 34.2613 104.906 32.5366 104.906 32.5366C103.412 34.4338 100.595 37.0782 100.595 37.0782L97.318 39.8951C95.3059 41.3323 93.2938 41.6198 93.2938 41.6198L90.8793 41.3898C88.7523 40.1826 89.6721 37.1357 89.6721 37.1357C90.0745 35.6985 92.4315 31.3869 92.4315 31.3869L92.604 31.1569C89.902 34.1463 86.9127 36.6758 86.9127 36.6758L84.4407 38.6879C82.716 40.1826 80.589 40.8149 80.589 40.8149L76.8523 41.1024C75.1276 40.7574 74.6102 39.4352 74.6102 39.4352C74.0928 38.0555 75.2426 35.756 75.2426 35.756L79.2093 28.7424L82.6011 22.9361L83.5209 21.269C79.4967 26.3279 76.5648 27.4202 76.5648 27.4202L74.8977 27.6502L74.3803 27.4777C73.6329 27.1903 73.3455 26.3854 73.3455 26.3854C73.1155 25.4081 73.5754 24.4308 73.5754 24.4308C74.0928 23.396 75.0701 23.2811 75.0701 23.2811L76.7373 23.5685C76.7373 22.5337 75.8175 22.0738 75.8175 22.0738L73.5754 21.9014C70.1837 22.5912 67.9416 25.5806 67.9416 25.5806C67.0218 26.5004 62.6527 33.9739 62.6527 33.9739L58.4561 41.2173L53.6271 41.2748L58.916 32.7666C51.3851 42.0222 45.9812 41.6198 45.9812 41.6198C43.9691 41.4473 42.8769 39.8951 42.8769 39.8951C41.9571 38.5154 42.3595 36.9057 42.3595 36.9057C40.2899 38.5154 38.1628 39.6652 38.1628 39.6652C37.1281 40.1826 35.5759 40.8724 35.5759 40.8724C33.1039 41.7922 31.3793 41.4473 31.3793 41.4473C29.0223 41.0449 27.9875 39.2053 27.9875 39.2053C26.8952 37.2507 27.6425 34.5487 27.6425 34.5487C26.0329 36.0434 23.5609 37.6531 23.5609 37.6531C18.4445 40.8724 13.7304 41.4473 13.7304 41.4473C6.19952 42.0797 2.75025 38.9178 2.75025 38.9178C-0.239129 36.2159 0.220774 30.927 0.220774 30.927C0.680678 26.213 3.72754 20.5791 3.72754 20.5791C6.65943 15.1753 10.7986 10.9786 10.7986 10.9786C19.4792 2.87281 27.3551 0.918217 27.3551 0.918217ZM48.1658 21.4989C48.1658 21.4989 47.299 20.7062 45.6147 20.6977C44.7325 20.6932 43.626 20.9043 42.302 21.5564C42.302 21.5564 39.0827 23.1661 36.2657 26.2705L33.1614 30.812C33.1614 30.812 31.5517 33.6289 31.1493 35.5835C31.1493 35.5835 30.5169 38.4579 32.0116 39.7227C32.0116 39.7227 33.8512 41.2173 38.1628 39.0903L40.9223 37.1357C40.9223 37.1357 45.4638 33.2265 48.5682 26.7878C48.5682 26.7878 50.1778 23.3386 48.1658 21.4989ZM119.738 21.2115C119.683 21.2061 119.625 21.2036 119.568 21.2043C117.775 21.2262 115.024 24.0859 115.024 24.0859C112.15 27.0178 110.195 30.812 110.195 30.812L109.333 32.5941C113.817 32.7091 117.669 29.4323 117.669 29.4323C121.061 26.5579 121.348 23.511 121.348 23.511C121.463 22.3613 121.061 21.7864 121.061 21.7864C120.658 21.3265 119.738 21.2115 119.738 21.2115ZM102.664 16.0945C102.09 15.5197 102.09 14.7723 102.09 14.7723C102.09 13.9675 102.664 13.4501 102.664 13.4501C103.182 12.9327 103.987 12.9327 103.987 12.9327C104.676 12.9327 105.251 13.4501 105.251 13.4501L105.769 14.7723C105.769 15.5197 105.251 16.0945 105.251 16.0945C104.734 16.6119 103.987 16.6119 103.987 16.6119C103.182 16.6119 102.664 16.0945 102.664 16.0945Z" fill="#BD9542"/>
</svg>
