<svg width="164" height="36" viewBox="0 0 164 36" fill="none" xmlns="http://www.w3.org/2000/svg">
<path d="M61.8584 33.4619C61.4635 34.7088 61.4141 34.9582 62.747 34.9582C64.0305 34.9582 64.5242 34.9083 65.2153 33.7611C65.314 33.7113 65.4621 33.7611 65.4621 33.811C65.3634 34.21 64.9685 35.0081 64.771 35.3074C64.3267 35.3074 63.8824 35.3074 63.4875 35.3074C63.0432 35.3074 62.5989 35.3074 62.204 35.3074H60.9204C60.4761 35.3074 60.0812 35.3074 59.7356 35.3572C59.6369 35.3074 59.6369 35.1577 59.7356 35.058L59.9825 35.0081C60.5255 34.9083 60.6242 34.8086 60.9698 33.6614L62.2533 29.4716C62.5989 28.4241 62.5989 28.2246 62.0065 28.1249L61.7597 28.075C61.7103 27.9752 61.7103 27.8256 61.809 27.7757C62.2533 27.7757 62.6483 27.8256 63.0925 27.8256C63.5862 27.8256 63.9318 27.8256 64.4748 27.7757C64.5735 27.8256 64.5735 28.0251 64.4748 28.075L64.1292 28.1249C63.4875 28.2246 63.4381 28.3244 63.0925 29.4716L61.8584 33.4619ZM70.0038 31.367C70.0038 32.2149 68.9177 32.7636 67.2887 33.2623C67.1899 33.4619 67.1406 33.811 67.1406 34.2599C67.1406 34.6589 67.3874 34.9083 67.6836 34.9083C68.0785 34.9083 68.3747 34.6589 68.8684 34.2599C68.9671 34.2599 69.0165 34.3597 69.0165 34.4594C68.3253 35.3074 67.6836 35.5069 67.2393 35.5069C66.5482 35.5069 66.3507 34.8585 66.3507 34.3098C66.3507 33.6115 66.795 32.2149 68.0292 31.2672C68.6216 30.8183 69.0658 30.7185 69.362 30.7185C69.757 30.6687 70.0038 31.0677 70.0038 31.367ZM68.2266 31.5665C67.7823 32.0653 67.5355 32.564 67.3874 32.8633C68.1279 32.6139 68.4734 32.4144 68.8684 32.0154C69.2139 31.6662 69.3127 31.367 69.3127 31.2672C69.3127 31.1675 69.2633 31.0178 69.0658 31.0178C68.9178 31.0178 68.6216 31.1176 68.2266 31.5665ZM76.1252 29.2222C76.372 28.3743 76.2733 28.2745 75.7796 28.2246H75.4341C75.3353 28.1747 75.3847 28.0251 75.4341 27.9752C76.0758 27.8755 76.6682 27.8256 77.31 27.8256C77.9024 27.8256 78.5935 27.8755 79.1365 28.075C79.6796 28.3244 80.0745 28.7234 80.0745 29.4716C80.0745 30.6188 78.9391 31.1176 78.3467 31.1674C78.1492 31.1674 78.2479 31.2672 78.3467 31.2672C79.0378 31.5166 79.5315 32.165 79.5315 32.9132C79.5315 33.3122 79.4327 33.9108 78.9391 34.3597C78.4948 34.8086 77.6555 35.2076 76.2733 35.2076C75.6809 35.2076 75.2366 35.1577 74.7923 35.1577C74.3974 35.1577 74.0025 35.1577 73.6569 35.2076C73.5582 35.1577 73.5582 35.0081 73.6569 34.9083L73.9037 34.8585C74.4468 34.7587 74.5455 34.6589 74.8911 33.5117L76.1252 29.2222ZM75.5328 33.9606C75.286 34.7088 75.6315 34.9582 76.4214 34.9582C77.3594 34.9582 78.5441 34.3597 78.5441 32.8633C78.5441 31.9156 77.7049 31.4667 76.9151 31.4667C76.372 31.4667 76.3227 31.4667 76.2239 31.8658L75.5328 33.9606ZM76.5201 30.7684C76.4214 31.0178 76.4708 31.1176 76.9151 31.1176C77.7049 31.1176 79.1365 30.7185 79.1365 29.3219C79.1365 28.6735 78.6429 28.1747 77.7543 28.1747C77.31 28.1747 77.31 28.1747 77.2113 28.5239L76.5201 30.7684ZM82.3453 31.7161L81.8517 33.1626H81.901C82.2466 32.5142 82.7896 31.6164 83.0858 31.2672C83.3327 30.9181 83.6289 30.6687 83.8757 30.6687C84.2706 30.6687 84.32 31.0677 84.32 31.2173C84.32 31.367 84.2212 31.7161 84.0732 31.9156C83.925 32.0653 83.777 32.1151 83.7276 31.8658C83.6782 31.5665 83.6289 31.4168 83.4808 31.4168C83.382 31.4168 83.2339 31.5166 83.0858 31.766C82.3947 32.6638 81.8023 34.0105 81.2099 35.3074C81.1605 35.4071 81.1112 35.457 81.0125 35.457C80.9137 35.457 80.5682 35.4071 80.6669 35.1577C80.815 34.7088 81.5061 32.7137 81.8023 31.6164C81.8517 31.5166 81.8023 31.367 81.7036 31.367C81.4074 31.367 81.1112 31.6662 80.9137 31.9655C80.815 31.9655 80.7162 31.9156 80.7162 31.766C81.0618 31.1675 81.5061 30.6687 82.0491 30.6687C82.6415 30.6687 82.4441 31.4168 82.3453 31.7161ZM88.1705 30.4193C88.368 30.3195 88.6642 30.4193 88.7136 30.5689C88.5655 30.9679 87.5781 33.4619 87.2326 34.5093C87.1832 34.7088 87.2326 34.7587 87.3313 34.7587C87.5288 34.7587 87.825 34.5592 88.4667 34.0105C88.5655 34.0105 88.6148 34.0604 88.6148 34.1602C88.1705 34.8086 87.3313 35.4071 86.7389 35.4071C86.5908 35.4071 86.4427 35.3074 86.3934 35.1079C86.3934 35.0081 86.3934 34.9083 86.4921 34.6589L86.8377 33.6614H86.7883C85.9984 34.6589 84.863 35.457 84.32 35.457C84.0238 35.457 83.8263 35.1577 83.8263 34.8086C83.8263 34.5592 84.0732 33.6614 84.8136 32.6139C85.3567 31.8658 85.8503 31.4168 86.2946 31.1674C86.7389 30.9181 86.9857 30.8183 87.2819 30.8183C87.3807 30.8183 87.4794 30.8682 87.5288 30.8682C87.5781 30.8682 87.6769 30.9679 87.7756 31.1176L88.1705 30.4193ZM86.2453 31.7161C85.5541 32.3645 84.863 33.8609 84.863 34.6589C84.863 34.8086 84.9124 34.8585 85.0111 34.8585C85.1098 34.8585 85.4554 34.7088 86.0972 34.1103C86.9364 33.3122 87.43 32.3645 87.5781 31.6662C87.4794 31.4667 87.3313 31.2672 87.0351 31.2672C86.7883 31.2672 86.5908 31.367 86.2453 31.7161ZM92.1198 31.3171C92.1198 31.5166 92.0211 31.6164 91.9224 31.6662C91.8236 31.6662 91.7743 31.6662 91.7249 31.5665C91.5274 31.367 91.3793 31.2173 91.0338 31.2173C90.6882 31.2173 90.5895 31.5166 90.5895 31.6662C90.5895 31.9156 90.6388 32.1151 90.9844 32.7137C91.2806 33.1626 91.4287 33.4619 91.4287 33.9606C91.4287 34.2599 91.2806 34.6589 90.8363 35.058C90.5401 35.3074 90.1452 35.457 89.7009 35.457C89.2566 35.457 89.0098 35.1079 89.0098 34.8585C89.0098 34.7587 89.0591 34.6091 89.1579 34.5093C89.2566 34.4096 89.3553 34.4096 89.4541 34.5093C89.6022 34.6589 89.9477 34.9582 90.2439 34.9582C90.4907 34.9582 90.7869 34.6589 90.7869 34.3098C90.7869 34.1103 90.6388 33.7611 90.392 33.3122C90.0958 32.8633 89.9971 32.4643 89.9971 32.2648C89.9971 31.8159 90.1946 31.5166 90.6882 31.0677C91.0338 30.7684 91.3793 30.7185 91.5274 30.7185C91.8236 30.6687 92.1198 31.0178 92.1198 31.3171ZM95.2793 31.3171C95.2793 31.5166 95.1805 31.6164 95.0818 31.6662C94.9831 31.6662 94.9337 31.6662 94.8843 31.5665C94.6869 31.367 94.5388 31.2173 94.1932 31.2173C93.8476 31.2173 93.7489 31.5166 93.7489 31.6662C93.7489 31.9156 93.7983 32.1151 94.1438 32.7137C94.44 33.1626 94.5881 33.4619 94.5881 33.9606C94.5881 34.2599 94.44 34.6589 93.9957 35.058C93.6995 35.3074 93.3046 35.457 92.8603 35.457C92.416 35.457 92.1692 35.1079 92.1692 34.8585C92.1692 34.7587 92.2186 34.6091 92.3173 34.5093C92.416 34.4096 92.5148 34.4096 92.6135 34.5093C92.7616 34.6589 93.1072 34.9582 93.4034 34.9582C93.6502 34.9582 93.9464 34.6589 93.9464 34.3098C93.9464 34.1103 93.7983 33.7611 93.5514 33.3122C93.2552 32.8633 93.1565 32.4643 93.1565 32.2648C93.1565 31.8159 93.354 31.5166 93.8476 31.0677C94.1932 30.7684 94.5388 30.7185 94.6869 30.7185C95.0324 30.6687 95.2793 31.0178 95.2793 31.3171ZM96.9577 34.3098C96.859 34.5592 96.9083 34.7088 97.0564 34.7088C97.2045 34.7088 97.6488 34.3597 98.2412 33.7611C99.2779 32.7636 99.8209 31.4168 100.216 30.7684C100.463 30.7185 100.71 30.8183 100.759 30.9679C100.66 31.2672 99.9197 33.1127 99.4754 34.4594C99.426 34.6091 99.426 34.7587 99.5247 34.7587C99.7222 34.7587 100.315 34.21 100.611 33.8609C100.71 33.8609 100.808 33.8609 100.808 34.0105C100.512 34.5592 99.426 35.457 98.8336 35.457C98.6362 35.457 98.4881 35.2575 98.5374 35.058L99.2779 33.013C98.4881 34.0604 97.1058 35.5069 96.4641 35.5069C96.0198 35.5069 95.9704 35.058 96.1185 34.5592L97.1552 31.8159C97.2539 31.6164 97.2539 31.4667 97.1552 31.4667C96.9577 31.4667 96.3653 31.9655 96.1185 32.2648C96.0198 32.2648 95.9704 32.2149 95.921 32.165V32.1151C96.2172 31.6662 97.3033 30.7684 97.8463 30.7684C97.9944 30.7684 98.2412 30.9181 98.1919 31.1176L96.9577 34.3098ZM104.264 31.3171C104.264 31.5166 104.165 31.6164 104.066 31.6662C103.968 31.6662 103.918 31.6662 103.869 31.5665C103.672 31.367 103.523 31.2173 103.178 31.2173C102.832 31.2173 102.734 31.5166 102.734 31.6662C102.734 31.9156 102.783 32.1151 103.128 32.7137C103.425 33.1626 103.573 33.4619 103.573 33.9606C103.573 34.2599 103.425 34.6589 102.98 35.058C102.684 35.3074 102.289 35.457 101.845 35.457C101.401 35.457 101.154 35.1079 101.154 34.8585C101.154 34.7587 101.203 34.6091 101.302 34.5093C101.401 34.4096 101.499 34.4096 101.598 34.5093C101.746 34.6589 102.092 34.9582 102.388 34.9582C102.635 34.9582 102.931 34.6589 102.931 34.3098C102.931 34.1103 102.783 33.7611 102.536 33.3122C102.24 32.8633 102.141 32.4643 102.141 32.2648C102.141 31.8159 102.339 31.5166 102.832 31.0677C103.178 30.7684 103.523 30.7185 103.672 30.7185C104.017 30.6687 104.264 31.0178 104.264 31.3171ZM21.8225 4.78174C22.6123 4.78174 23.3528 5.62967 23.3528 6.92651V17.3012C23.3528 21.092 21.8225 20.7927 20.1934 20.7927C18.5643 20.7927 18.3668 19.1467 18.3668 17.2514V6.97639C18.3668 5.62967 19.058 4.83162 19.8972 4.83162V4.23307H14.3188V4.78174C15.1087 4.78174 15.8492 5.62967 15.8492 6.92651V18.1492C15.8492 20.2939 16.9846 21.9399 19.6997 21.9399C22.4149 21.9399 24.0933 21.7903 24.0933 17.2514V6.97639C24.0933 5.62967 24.7844 4.83162 25.6237 4.83162V4.23307H21.8225V4.78174ZM139.314 4.78174C140.104 4.78174 140.795 5.62967 140.795 6.92651V17.3012C140.795 21.092 139.264 20.7927 137.635 20.7927C136.006 20.7927 135.809 19.1467 135.809 17.2514V6.97639C135.809 5.62967 136.5 4.83162 137.29 4.83162V4.23307H131.81V4.78174C132.6 4.78174 133.291 5.62967 133.291 6.92651V18.1492C133.291 20.2939 134.427 21.9399 137.142 21.9399C139.857 21.9399 141.535 21.7903 141.535 17.2514V6.97639C141.535 5.62967 142.177 4.83162 143.016 4.83162V4.23307H139.363L139.314 4.78174ZM33.0286 20.693C32.8311 20.7429 31.8438 20.8426 31.0539 20.7927C30.4122 20.7428 30.4122 20.6431 30.4122 19.1966V6.77688C30.4122 5.3304 30.7577 4.98125 31.8932 4.98125C33.3248 4.98125 33.9172 5.38028 34.4108 6.67712C35.3488 9.12116 35.2007 13.71 34.9538 17.2015C34.9538 17.2015 34.5589 20.2441 33.0286 20.693ZM32.6336 4.23307H26.4135V4.78174C27.2527 4.78174 27.8945 5.62967 27.8945 6.92651V18.8973C27.8945 20.2441 27.2034 21.0421 26.4135 21.0421V21.5908H33.3741C34.5096 21.5908 35.7931 20.9424 36.5829 18.5981C37.3728 16.2039 37.4715 14.2088 37.3234 11.2161C37.1753 8.22335 36.6817 6.37785 35.9905 5.48004C35.3488 4.6321 34.2627 4.23307 32.6336 4.23307ZM42.9512 20.7927C42.1613 20.693 42.0626 20.3438 42.0626 19.047V13.311C43.8398 13.4606 44.0372 13.4606 44.4815 15.8548H44.9752V9.86934H44.4815C44.0866 12.1139 43.8398 12.2635 42.0626 12.4131V6.57736C42.0626 5.28052 42.1613 5.03113 42.7537 5.08101L43.741 5.13089C46.2093 5.23064 46.3081 6.727 46.4562 7.57493H47.0486V4.23307H38.0639V4.78174C38.8538 4.78174 39.5943 5.62967 39.5943 6.92651V18.8973C39.5943 20.2441 38.9031 21.0421 38.0639 21.0421V21.5908H47.246L47.9371 18.4484H47.1967C46.4068 21.2416 44.1853 20.8426 42.9512 20.7927ZM148.595 20.7927C147.805 20.693 147.706 20.3438 147.706 19.047V13.311C149.483 13.4606 149.681 13.4606 150.125 15.8548H150.619V9.86934H150.125C149.73 12.1139 149.483 12.2635 147.706 12.4131V6.57736C147.706 5.28052 147.805 5.03113 148.397 5.08101L149.434 5.13089C151.902 5.23064 152.001 6.727 152.149 7.57493H152.741V4.23307H143.707V4.78174C144.497 4.78174 145.188 5.62967 145.188 6.92651V18.8973C145.188 20.2441 144.497 21.0421 143.707 21.0421V21.5908H152.84L153.531 18.4484H152.84C152.1 21.2416 149.829 20.8426 148.595 20.7927ZM9.97459 14.1589H5.67974L9.97459 3.43502V14.1589ZM12.7391 0.492188H7.99994V1.04085C9.2341 1.04085 9.3822 1.98854 8.9379 2.98611C7.40755 7.02627 3.40889 17.3012 2.9646 18.3487C2.37221 19.6455 1.58235 21.092 0.298828 21.092V21.6407H4.79115V21.092C3.75446 21.092 3.45826 19.5956 3.95192 18.3487C4.44558 17.1017 5.33417 14.9569 5.33417 14.9569H9.97459V18.6978C9.97459 20.9922 9.18473 21.092 8.04931 21.092V21.6407H14.7137V21.092C13.7758 21.092 12.7885 21.0421 12.7885 18.6978C12.7885 17.4509 12.7391 0.492188 12.7391 0.492188ZM110.583 10.5676C110.583 11.1163 110.385 11.4156 109.99 11.4156H107.769V6.82675V5.77931V1.24036H109.99C110.385 1.24036 110.583 1.58951 110.583 2.23793V10.5676ZM111.126 0.492188H102.98V1.04085C104.165 1.04085 104.906 1.83891 104.906 3.38514V18.4484C104.906 20.8426 104.017 21.0421 102.98 21.0421V21.5908H109.645V21.0421C108.46 21.0421 107.72 20.7927 107.72 18.4484V12.2635H111.274C112.409 12.2635 113.298 11.4156 113.298 9.52019V3.13575C113.347 1.58951 112.607 0.492188 111.126 0.492188ZM56.3294 16.4034L53.0219 4.28295H48.6283V4.83162C49.7143 4.83162 50.1586 5.23064 50.1586 7.02627V18.9472C50.1586 20.2939 49.5169 21.092 48.6283 21.092V21.6407H52.4788V21.092C51.5902 21.092 50.9485 20.2441 50.9485 18.9472V6.4776L55.1446 21.6407H55.5395L59.8837 6.52748V18.9472C59.8837 20.2939 59.242 21.092 58.3534 21.092V21.6407H63.9811V21.092C63.0925 21.092 62.4014 20.2441 62.4014 18.9472V6.97639C62.4014 5.62967 63.0432 4.83162 63.9811 4.83162V4.23307H59.7356L56.28 16.1042M83.0365 10.9168C83.0365 13.0117 80.8644 12.7124 80.0745 12.7124V6.17833C80.0745 5.48004 80.1239 5.13089 80.7162 5.13089C81.901 5.13089 83.0365 4.93137 83.0365 6.57736C83.0365 6.52748 83.0365 10.9168 83.0365 10.9168ZM86.1959 20.1443L83.3327 13.311C84.2213 13.1114 85.406 12.7623 85.406 11.1163C85.406 9.37056 85.3567 7.57493 85.3567 6.37785C85.3567 4.23307 83.382 4.23307 81.4074 4.23307H76.1252V4.78174C76.9151 4.78174 77.6062 5.62967 77.6062 6.92651V18.8973C77.6062 20.2441 76.7176 21.0421 76.0758 21.0421V21.5908H81.6048V21.0421C80.815 21.0421 80.0745 20.1942 80.0745 18.8973V13.5105H80.9137L83.7276 20.6431C83.7276 20.6431 83.8757 21.0421 84.1719 21.3414C84.4187 21.5908 85.0111 21.5908 85.0111 21.5908H87.0845V21.0421C86.887 21.092 86.6402 21.1918 86.1959 20.1443ZM114.976 4.78174C116.013 4.78174 116.457 5.62967 116.457 6.92651V18.8973C116.457 20.2441 115.964 21.0421 114.976 21.0421V21.5908H120.407V21.0421C119.37 21.0421 118.926 20.1942 118.926 18.8973V6.97639C118.926 5.62967 119.37 4.83162 120.407 4.83162V4.23307H114.976V4.78174ZM92.7616 10.9168C90.8857 9.91922 90.1452 8.62238 90.1452 7.52505C90.1452 6.92651 90.392 4.6321 91.9224 4.6321C94.2426 4.68198 94.9337 7.97396 95.1805 9.42043H95.6248V3.98368H95.1312C95.1312 4.58222 94.8843 4.73186 94.6375 4.73186C93.7983 4.68198 93.5021 3.68441 91.2806 3.78417C89.849 3.83405 88.0224 5.13089 88.0224 8.5725C88.0224 10.1686 88.6148 12.3633 90.5401 13.71C93.354 15.6054 94.2426 16.4034 94.2426 17.8499C94.2426 18.4484 94.0451 21.0421 91.8236 21.0421C90.2439 21.0421 89.2072 18.3986 89.0098 17.401L88.6642 15.6054H88.1705V21.6905H88.7136C88.7629 21.1918 88.911 20.9424 89.1085 20.9424C89.9477 20.9424 90.7869 21.8402 92.2186 21.7903C95.921 21.7404 96.6122 18.5482 96.6122 16.8025C96.5628 14.3584 95.378 12.2635 92.7616 10.9168ZM127.565 12.8122V13.2611C127.565 13.2611 128.305 13.311 128.305 14.5579V18.5981C128.305 20.7428 127.565 20.9424 126.232 20.9424C124.899 20.9424 124.405 20.4436 124.405 18.7976V6.82675C124.405 5.67955 124.998 4.73186 126.38 4.73186C127.91 4.73186 129.539 6.27809 129.539 9.2708H130.379V3.98368H129.737C129.737 6.0287 128.552 3.9338 126.429 3.9338C124.899 3.9338 123.615 4.33283 122.924 5.13089C122.184 5.97882 121.838 6.97639 121.838 8.17347V17.5506C121.838 18.7477 122.184 19.7453 122.924 20.5433C123.665 21.3913 125.244 21.8402 126.281 21.8402C126.874 21.8402 127.762 21.5908 128.206 21.3913C128.651 21.1918 129.046 20.8426 129.391 20.4436C130.132 19.5956 130.527 18.5981 130.527 17.4509V14.5579C130.527 13.4107 131.267 13.311 131.267 13.311V12.8621C131.317 12.8122 127.565 12.8122 127.565 12.8122ZM74.4961 19.8949L70.9911 4.23307H67.9304V4.78174C69.0165 4.78174 68.8684 5.67955 68.6709 6.727L66.1532 19.3961C65.8077 20.8426 65.3634 21.092 64.9191 21.092V21.6407H67.8317V21.092C66.7456 21.092 66.7456 20.1942 67.0418 18.8475L67.5355 16.3037H71.1886L71.8797 19.446C72.2253 20.8426 71.6823 21.092 71.0405 21.092V21.6407H75.4834V21.092C75.2366 21.0421 74.7923 20.9424 74.4961 19.8949ZM67.733 15.5056L69.2633 7.72457L70.9911 15.5056H67.733ZM153.926 4.23307V7.57493H154.519C154.617 6.92651 154.765 5.92894 155.358 5.52991C155.95 5.13089 156.543 5.18076 157.579 5.18076V18.8973C157.579 20.2441 156.938 21.0421 156.098 21.0421V21.5908H161.529V21.0421C160.739 21.0421 160.048 20.1942 160.048 18.8973V5.18076C161.035 5.18076 161.627 5.18076 162.269 5.52991C162.861 5.92894 163.01 6.87663 163.108 7.57493H163.701V4.23307H153.926Z" fill="#BD9542"/>
</svg>
