<svg width="183" height="42" viewBox="0 0 183 42" fill="none" xmlns="http://www.w3.org/2000/svg">
<path fill-rule="evenodd" clip-rule="evenodd" d="M81.0376 0.773159C81.0376 1.13962 81.0877 1.16366 81.8573 1.16585C82.3082 1.16725 82.7824 1.23486 82.9112 1.31621C83.1106 1.44206 83.1521 2.26663 83.1902 6.85617C83.2197 10.3955 83.179 12.3529 83.0719 12.5532C82.9443 12.7915 82.712 12.8686 82.012 12.9051C81.1725 12.949 81.1156 12.9767 81.1156 13.3423C81.1156 13.7327 81.1156 13.7327 83.6529 13.7756L86.1901 13.8186V7.10068V0.382812H83.6138C81.0376 0.382812 81.0376 0.382812 81.0376 0.773159ZM88.3761 7.01809V13.5183L93.3374 13.4693C98.2985 13.4204 98.2985 13.4204 99.3479 12.9036C100.514 12.3293 101.061 11.7269 101.328 10.7247C101.807 8.92407 100.464 7.28118 98.2547 6.96515C97.751 6.89317 97.5102 6.78435 97.5102 6.62852C97.5102 6.50205 97.6156 6.38463 97.7444 6.36761C98.8897 6.21709 99.2293 6.08719 99.782 5.58785C100.97 4.51487 100.971 3.12586 99.7847 1.93983C98.5545 0.709455 98.2153 0.641847 92.9431 0.575332L88.3761 0.517873V7.01809ZM95.8331 1.78728C96.6342 2.27568 96.9917 2.97206 96.9226 3.9103C96.8032 5.53164 95.8635 6.19976 93.8039 6.12731L92.5137 6.08188L92.4705 3.77883L92.4274 1.47578L93.8758 1.47641C95.0455 1.47688 95.4221 1.53668 95.8331 1.78728ZM96.0976 7.58237C98.1585 8.15384 98.5001 10.9837 96.6255 11.9561C95.8072 12.3807 93.224 12.5796 92.8254 12.2489C92.6363 12.092 92.5918 11.5925 92.5918 9.63091V7.20686L94.0361 7.30897C94.8304 7.36518 95.7582 7.48822 96.0976 7.58237ZM89.8402 15.4232C89.2712 16.0999 89.3508 16.309 90.1779 16.309C90.6462 16.309 91.0329 16.2011 91.3169 15.9911C91.6982 15.7091 91.9401 15.6782 93.4575 15.7178C95.1681 15.7625 95.1681 15.7625 95.1681 16.2309C95.1681 16.6965 95.1622 16.6996 94.1922 16.7458C93.3442 16.7861 93.2164 16.8322 93.2164 17.0972C93.2164 17.3685 93.3288 17.4019 94.2411 17.4019C95.266 17.4019 95.266 17.4019 95.217 17.9094C95.1681 18.4168 95.1681 18.4168 93.2634 18.4606C91.4853 18.5015 91.3475 18.4834 91.1891 18.1873C91.0573 17.9409 90.8632 17.8704 90.3173 17.8704C89.46 17.8704 89.3048 18.138 89.7774 18.8017C90.1148 19.2756 90.1148 19.2756 93.3589 19.2756C96.431 19.2756 96.6183 19.2586 96.8927 18.9555C97.0803 18.7482 97.1686 18.4459 97.1433 18.0968C97.0749 17.1526 97.0908 16.5561 97.1973 16.0712C97.275 15.7172 97.2282 15.5334 97.0099 15.3359C96.7603 15.11 96.2567 15.0661 93.4651 15.0272C90.2113 14.9818 90.2113 14.9818 89.8402 15.4232ZM76.5145 15.3331C76.5225 15.7768 76.9043 16.1528 77.3464 16.1528C77.7586 16.1528 77.7586 16.1528 77.7586 17.7142V19.2756H78.7735H79.7884V17.4199C79.7884 15.6198 79.7769 15.5567 79.4036 15.312C79.13 15.1328 78.6561 15.0599 77.7641 15.0599C76.6714 15.0599 76.5101 15.0951 76.5145 15.3331ZM81.0376 15.6063C81.0376 16.1528 81.0376 16.1528 83.2235 16.1528C84.4384 16.1528 85.4094 16.2162 85.4094 16.2954C85.4094 16.3739 84.8473 16.9602 84.1603 17.5985C82.5555 19.0893 82.5443 19.2756 84.0593 19.2756C85.2072 19.2756 85.2072 19.2756 86.7115 17.7533C88.0725 16.3759 88.216 16.1752 88.2179 15.6454L88.2199 15.0599H84.6287C81.0376 15.0599 81.0376 15.0599 81.0376 15.6063ZM98.8374 16.1528V17.2458H101.637C104.229 17.2458 104.444 17.2673 104.529 17.5361C104.58 17.6958 104.577 17.9417 104.523 18.0825C104.437 18.3069 104.077 18.3388 101.631 18.3388C99.2735 18.3388 98.8374 18.3747 98.8374 18.5689C98.8374 18.6955 99.0447 18.9063 99.298 19.0373C99.9347 19.3666 104.531 19.3797 105.31 19.0547C106.303 18.6395 106.497 17.5436 105.695 16.8693C105.226 16.474 105.164 16.4651 102.885 16.4651C100.555 16.4651 100.555 16.4651 100.555 15.9967C100.555 15.5283 100.555 15.5283 103.365 15.5283C105.759 15.5283 106.176 15.4936 106.176 15.2941C106.176 15.0925 105.664 15.0599 102.507 15.0599H98.8374V16.1528ZM156.609 22.9449C156.609 23.4913 156.609 23.4913 157.394 23.4913C157.827 23.4913 158.415 23.5893 158.701 23.709C159.767 24.1545 159.731 23.8744 159.731 31.8168C159.731 38.1233 159.701 39.0443 159.476 39.5179C159.139 40.2283 158.548 40.5105 157.397 40.5105C156.453 40.5105 156.453 40.5105 156.453 41.057C156.453 41.6034 156.453 41.6034 160.981 41.6034C165.509 41.6034 165.509 41.6034 165.509 41.057C165.509 40.5105 165.509 40.5105 164.327 40.5105C162.004 40.5105 162.074 40.7342 162.074 33.2447C162.074 29.8059 162.133 27.2351 162.212 27.2648C162.288 27.2933 165.982 30.5137 170.42 34.4211C177.302 40.4791 178.569 41.5326 179.026 41.5738L179.561 41.6223V32.7808C179.561 27.3121 179.619 23.8303 179.714 23.6536C179.916 23.2762 180.679 23.0229 181.614 23.0229C182.267 23.0229 182.372 22.98 182.372 22.7107C182.372 22.4062 182.267 22.3984 178.234 22.3984C174.3 22.3984 174.096 22.4127 174.096 22.6897C174.096 22.9389 174.255 22.9923 175.197 23.0596C176.062 23.1216 176.379 23.2153 176.68 23.4982C177.063 23.8581 177.063 23.8581 177.063 28.2027C177.063 30.5922 177.024 32.5474 176.977 32.5474C176.93 32.5474 174.212 30.2639 170.938 27.4729L164.984 22.3984H160.796C156.609 22.3984 156.609 22.3984 156.609 22.9449ZM0.342544 23.2962C0.390322 23.7126 0.42639 23.7279 1.5331 23.8036C3.40411 23.9317 3.2728 23.3023 3.27702 32.1666C3.28029 39.3922 3.26921 39.6831 2.97614 39.9976C2.647 40.3507 1.72952 40.5664 0.906517 40.4839C0.413743 40.4346 0.389854 40.4574 0.343481 41.0179L0.294922 41.6034L8.22849 41.6022C12.8102 41.6016 16.5907 41.5343 17.1768 41.4428C19.3698 41.1008 21.3769 39.6689 21.9273 38.0538C22.4574 36.4979 22.1623 35.0882 21.0523 33.8736C20.1895 32.9296 19.1885 32.4378 17.5773 32.166C16.0011 31.9002 16.0526 31.4576 17.6847 31.2447C18.6839 31.1145 19.5306 30.658 20.1797 29.8996C21.9565 27.8237 21.0047 25.032 18.0787 23.738C16.3034 22.9528 15.2554 22.8668 7.46856 22.8668C0.293047 22.8668 0.293048 22.8668 0.342544 23.2962ZM13.9088 24.7014C16.3811 25.954 16.3301 29.4081 13.8198 30.7176C13.3153 30.9809 12.8277 31.0566 11.2826 31.1117L9.36986 31.1798V27.726V24.272H11.2156C12.9194 24.272 13.1263 24.305 13.9088 24.7014ZM102.303 26.6319C101.692 27.1786 101.337 27.1926 99.5133 26.7418C98.3977 26.4661 97.6732 26.4008 95.7146 26.3996C93.5051 26.3983 93.1847 26.4346 92.0331 26.8168C88.1228 28.1145 85.7027 31.6335 86.3046 35.1468C87.0642 39.5821 91.3842 42.0555 97.3164 41.4514C99.1637 41.2632 101.243 40.7208 102.437 40.1156C103.209 39.7245 103.209 39.7245 103.209 38.7122C103.209 38.1554 103.182 37.7 103.148 37.7C103.115 37.7 102.43 38.0888 101.626 38.5639C97.2893 41.1278 93.5852 40.7322 91.9872 37.5345C91.3599 36.2791 91.1305 35.0775 91.229 33.5623C91.3702 31.3884 92.2435 29.6944 93.7435 28.6852C94.7659 27.997 95.5527 27.8123 97.0661 27.9051C99.1278 28.0312 100.842 28.9931 101.971 30.6572C102.394 31.2805 102.597 31.4472 102.936 31.4504C103.339 31.4541 103.365 31.4129 103.365 30.7763C103.365 28.9044 103.148 26.3115 102.985 26.2492C102.888 26.2118 102.581 26.384 102.303 26.6319ZM50.9666 26.8874C50.838 27.1234 49.2697 30.2698 47.4815 33.8791C44.0581 40.789 44.0364 40.8228 43.0104 40.8228C42.706 40.8228 42.6274 40.9029 42.6274 41.2131C42.6274 41.6034 42.6274 41.6034 45.9063 41.6034C49.1852 41.6034 49.1852 41.6034 49.1852 41.2131C49.1852 40.8484 49.1337 40.8228 48.3975 40.8228C47.7692 40.8228 47.532 40.7452 47.2265 40.4394C46.6703 39.8834 46.7353 39.2952 47.4852 38.0994L48.1271 37.0754L51.0374 37.076L53.9475 37.0767L54.7672 38.3503C55.6386 39.7043 55.7139 39.9648 55.3698 40.4355C55.2008 40.6666 54.9059 40.7466 54.0426 40.7953C52.9943 40.8545 52.9326 40.8787 52.9326 41.2307C52.9326 41.6034 52.9326 41.6034 57.6948 41.6034C62.457 41.6034 62.457 41.6034 62.457 41.2131C62.457 40.9014 62.3788 40.8228 62.0692 40.8228C61.8558 40.8228 61.4779 40.6295 61.2292 40.3934C60.9806 40.1573 58.9322 37.0481 56.6776 33.4842C54.4228 29.9204 52.4712 26.8814 52.3407 26.7312C51.9639 26.2972 51.2435 26.3791 50.9666 26.8874ZM128.832 33.2033C127.005 36.9216 125.363 40.1234 125.182 40.3183C125.001 40.5131 124.585 40.7153 124.258 40.7676C123.763 40.8466 123.663 40.9247 123.663 41.2331C123.663 41.6034 123.663 41.6034 126.942 41.6034C130.221 41.6034 130.221 41.6034 130.221 41.2131C130.221 40.8512 130.167 40.8228 129.475 40.8228C128.613 40.8228 128.158 40.5586 127.885 39.8995C127.705 39.4648 127.739 39.3527 128.382 38.2928L129.073 37.1535L132.028 37.1127L134.983 37.072L135.723 38.249C136.595 39.6356 136.715 40.014 136.413 40.4263C136.236 40.668 135.955 40.7458 135.079 40.7953C134.03 40.8545 133.969 40.8787 133.969 41.2307C133.969 41.6034 133.969 41.6034 138.731 41.6034C143.493 41.6034 143.493 41.6034 143.493 41.2131C143.493 40.93 143.409 40.8228 143.188 40.8228C143.02 40.8228 142.72 40.7483 142.52 40.6574C142.287 40.5512 140.563 37.9891 137.712 33.5141C133.299 26.5877 133.262 26.5357 132.71 26.4894C132.153 26.4427 132.153 26.4427 128.832 33.2033ZM24.9837 27.0825C24.9837 27.551 24.9837 27.551 25.9776 27.551C26.7465 27.551 27.0644 27.6242 27.3828 27.8746C27.7942 28.1982 27.7942 28.1982 27.7942 34.0523C27.7942 37.5723 27.7333 40.0204 27.6414 40.1921C27.4395 40.5695 26.6763 40.8228 25.7412 40.8228C25.0367 40.8228 24.9837 40.8501 24.9837 41.2145C24.9837 41.6063 24.9837 41.6063 32.983 41.5658L40.9825 41.5254L41.405 38.8743C41.8394 36.1487 41.8291 35.9909 41.2167 35.9848C41.0749 35.9834 40.7642 36.4137 40.4572 37.0364C39.7571 38.4562 39.1614 39.1728 38.3591 39.5613C37.7678 39.8475 37.4002 39.8859 35.2508 39.8859C33.2429 39.8859 32.7698 39.8427 32.5676 39.6406C32.3538 39.4267 32.3223 38.6802 32.3223 33.8201C32.3223 29.0269 32.3563 28.1963 32.5654 27.8981C32.7838 27.5859 32.9414 27.551 34.1268 27.551C35.445 27.551 35.445 27.551 35.445 27.0825C35.445 26.6141 35.445 26.6141 30.2144 26.6141C24.9837 26.6141 24.9837 26.6141 24.9837 27.0825ZM63.3939 26.9851C63.3939 27.3221 63.4727 27.3627 64.2503 27.4271C65.8237 27.5577 65.736 27.1676 65.736 34.0277C65.736 39.9876 65.736 39.9876 65.3469 40.3532C65.0663 40.6168 64.7178 40.7387 64.0977 40.7901C63.3164 40.8549 63.2377 40.8954 63.2377 41.2325C63.2377 41.6034 63.2377 41.6034 66.7248 41.6034C68.6428 41.6034 70.2512 41.5643 70.2991 41.5163C70.3469 41.4684 70.3505 41.2927 70.3069 41.126C70.2418 40.8772 70.0886 40.8228 69.4549 40.8228C68.521 40.8228 68.1564 40.6466 67.8454 40.0452C67.6507 39.6686 67.6096 38.7851 67.6096 34.9754C67.6096 32.4376 67.664 30.3615 67.7305 30.3615C67.7968 30.3615 70.7268 32.8909 74.2411 35.9824C78.6877 39.8939 80.7404 41.6034 80.9904 41.6034C81.3498 41.6034 81.3498 41.6034 81.3498 34.6553C81.3498 27.9152 81.3592 27.6977 81.6621 27.3948C81.8912 27.1658 82.1825 27.0825 82.7551 27.0825C83.345 27.0825 83.5358 27.0252 83.5358 26.8483C83.5358 26.6477 83.0761 26.6141 80.3349 26.6141C77.5938 26.6141 77.1341 26.6477 77.1341 26.8483C77.1341 27.0245 77.3225 27.0825 77.8937 27.0825C78.4258 27.0825 78.7767 27.1795 79.0647 27.4062C79.4762 27.7297 79.4762 27.7297 79.4762 31.0755C79.4762 32.9156 79.4193 34.4211 79.3497 34.4211C79.2802 34.4211 77.1547 32.6645 74.6265 30.5176L70.0298 26.6141H66.7118C63.3939 26.6141 63.3939 26.6141 63.3939 26.9851ZM144.898 27.0023C144.898 27.3745 144.943 27.3948 145.767 27.3948C147.701 27.3948 147.709 27.4239 147.709 34.345C147.709 39.9001 147.709 39.9001 147.325 40.2833C146.997 40.6123 146.797 40.6666 145.92 40.6666C144.898 40.6666 144.898 40.6666 144.898 41.135C144.898 41.6034 144.898 41.6034 149.983 41.6034C155.068 41.6034 155.068 41.6034 155.019 41.1741C154.971 40.7553 154.941 40.7436 153.856 40.6992C152.104 40.6276 152.218 41.1007 152.27 34.1338C152.315 28.2166 152.317 28.1819 152.663 27.8361C152.933 27.5658 153.24 27.4735 154.038 27.4228C154.979 27.3628 155.06 27.3299 155.017 27.0248C154.97 26.6942 154.938 26.6919 149.934 26.651C144.898 26.6098 144.898 26.6098 144.898 27.0023ZM106.957 27.3834C106.957 27.8632 106.957 27.8632 107.979 27.8632C108.856 27.8632 109.055 27.9176 109.384 28.2466C109.767 28.6297 109.767 28.6297 109.767 34.3478C109.767 40.0661 109.767 40.0661 109.311 40.5225C108.906 40.9267 108.746 40.9789 107.905 40.9789C107.061 40.9789 106.957 41.0131 106.957 41.2912C106.957 41.597 107.061 41.6034 112.031 41.6034C117.001 41.6034 117.106 41.597 117.106 41.2912C117.106 41.0259 117.001 40.9789 116.413 40.9789C115.587 40.9789 115.046 40.7928 114.614 40.3606C114.32 40.0666 114.295 39.8502 114.295 37.5438V35.0456H117.089C120.229 35.0456 121.153 34.8609 122.721 33.9186C123.961 33.1738 124.525 32.2045 124.514 30.8375C124.498 28.9343 123.659 27.8473 121.767 27.2811C121.07 27.0724 119.77 27.0202 113.944 26.9672C106.957 26.9036 106.957 26.9036 106.957 27.3834ZM118.553 28.6413C120.165 29.746 120.197 32.0632 118.617 33.2357C118.237 33.5176 117.912 33.5693 116.236 33.6141L114.295 33.6658V30.9042V28.1426L116.141 28.1982C117.801 28.248 118.044 28.2928 118.553 28.6413ZM51.8786 33.6266C52.4582 34.5613 52.9326 35.4035 52.9326 35.4981C52.9326 35.6146 52.2771 35.6702 50.9028 35.6702C49.6315 35.6702 48.873 35.6108 48.873 35.5114C48.873 35.2587 50.5807 31.9227 50.7088 31.925C50.7726 31.9261 51.2991 32.6918 51.8786 33.6266ZM132.901 33.6917C133.488 34.6123 133.969 35.4341 133.969 35.5179C133.969 35.6967 129.91 35.7318 129.906 35.5531C129.9 35.27 131.563 31.9363 131.691 31.975C131.77 31.9986 132.314 32.7711 132.901 33.6917ZM14.7054 33.1601C15.8515 33.5968 16.5997 34.4101 16.8622 35.5045C17.5723 38.4641 15.3999 40.1945 11.1918 40.0208C10.0477 39.9737 9.77536 39.9125 9.59142 39.6609C9.41639 39.4214 9.36986 38.6548 9.36986 36.0091V32.6604L11.5948 32.7415C13.3583 32.8057 14.0034 32.8925 14.7054 33.1601Z" fill="#BD9542"/>
</svg>
