<svg width="131" height="82" viewBox="0 0 131 82" fill="none" xmlns="http://www.w3.org/2000/svg">
<path fill-rule="evenodd" clip-rule="evenodd" d="M109.606 0.539062L108.71 0.936753L101.553 7.79542C100.956 7.39773 100.36 7.29831 99.6642 7.39773C98.2723 7.696 97.2788 9.28676 97.577 10.9769C97.6765 11.3746 97.8746 11.7723 98.0742 12.0698L76.0046 34.3382C74.9117 33.1452 73.3202 32.5486 71.8296 32.8477C70.8354 33.0465 70.04 33.643 69.4442 34.3382L54.1346 22.409C54.4329 21.7131 54.6317 20.8183 54.4329 19.9235C54.1346 17.8356 52.345 16.4437 50.5554 16.8414C50.0583 16.9408 49.6606 17.1397 49.2637 17.4379L42.5037 12.6664L41.7083 12.567L42.0066 13.4618L47.9712 19.4264C47.8718 20.0229 47.7723 20.6194 47.9712 21.3154C48.2694 23.4025 50.0583 24.7944 51.8479 24.3975C52.4445 24.1986 52.9416 23.9998 53.3392 23.6021C53.5381 23.3038 53.6375 23.3038 53.7369 23.4033C53.7369 23.4033 59.4033 28.3736 61.3917 30.0638C62.7587 31.2257 64.6891 32.7632 65.9561 33.7722C66.5321 34.231 66.971 34.5806 67.1575 34.7359C67.7548 35.3325 68.5501 35.929 68.5501 35.929C68.2519 36.8238 68.1525 37.9175 68.3506 38.9109C68.9471 41.7942 71.4326 43.5831 73.9182 43.0859C76.403 42.5888 77.9938 39.9052 77.3972 37.0219C77.2978 36.5248 77.0997 36.0277 76.8007 35.5306L98.572 12.7658C99.1685 13.2629 99.9639 13.5612 100.759 13.3623C102.25 13.0641 103.244 11.474 102.846 9.88329C102.846 9.58503 102.747 9.38618 102.648 9.18734L109.308 1.43313L109.606 0.539062ZM51.152 22.7073C50.0583 22.9062 48.9647 22.0113 48.7666 20.7189C48.567 19.3269 49.2637 18.1346 50.3573 17.8356C51.451 17.6368 52.5439 18.5316 52.7427 19.8241C53.041 21.216 52.2456 22.409 51.152 22.7073ZM74.215 40.0046C73.1221 40.2034 72.1271 39.4081 71.929 38.215C71.7302 37.0219 72.4261 35.929 73.4204 35.7294C74.4146 35.4312 75.4081 36.2265 75.7063 37.4196C75.9052 38.6127 75.2092 39.8057 74.215 40.0046ZM100.957 12.0698C100.062 12.2687 99.1671 11.5727 98.969 10.4791C98.7694 9.38544 99.3667 8.39196 100.261 8.19311C101.156 7.99427 102.051 8.69022 102.249 9.78387C102.447 10.8775 101.851 11.8717 100.957 12.0698ZM35.6724 53.2203C35.8968 52.8978 36.1198 52.5684 36.3411 52.2321C41.3371 44.5672 44.1656 41.3781 48.2652 39.0646C49.286 39.4762 50.2583 40.3666 50.2583 42.2905C50.2583 45.7809 46.8897 49.6793 43.6267 51.6088C42.8671 51.1377 41.9698 50.938 41.2123 50.938C40.0193 50.938 38.5287 51.5353 38.5287 52.2313C38.5287 52.6282 38.7268 53.2255 40.3175 53.2255C40.9384 53.2255 41.6924 53.0499 42.5168 52.7346C42.7542 53.1745 42.9025 53.8071 42.9025 54.7168C42.9025 59.8853 35.546 66.4472 29.9791 66.4472C28.5959 66.4472 26.0106 65.6961 25.3594 63.2779C28.7294 61.2029 32.1315 58.151 35.2651 53.7959C35.9392 54.0486 36.6389 54.6236 36.6389 55.8105C36.6389 58.5936 32.3645 61.7743 29.4812 61.6749C34.1533 61.9747 37.832 57.8976 37.8327 55.5107C37.8327 54.6717 37.0527 53.5491 35.6724 53.2203ZM42.2179 52.3194C42.3278 52.434 42.4285 52.571 42.5168 52.7346C43.0336 52.537 43.578 52.2844 44.1347 51.9858C44.8124 52.5861 45.2886 53.4728 45.2886 54.7168C45.2886 59.1901 37.9321 66.9436 29.5821 66.9436C27.1842 66.9436 25.0433 65.7231 24.2961 63.9014C20.0141 66.2882 15.8357 67.1439 12.3833 67.1439C5.92155 67.1439 0.951172 64.3594 0.951172 59.4884C0.951172 53.6225 8.70538 48.0563 15.4654 48.0563C18.6469 48.0563 21.43 50.044 21.43 52.928C21.43 55.6124 18.9444 59.7867 12.4834 59.7867C9.99787 59.7867 8.10958 58.9913 8.10958 58.9913C8.10958 58.9913 10.1975 59.3897 11.9871 59.3897C17.4545 59.3897 19.9394 56.1088 19.9394 53.1269C19.9394 48.9511 15.9632 48.5542 15.1678 48.5542C8.6067 48.5542 2.94036 53.7241 2.94036 59.3897C2.94036 64.4588 8.30843 66.7455 12.3847 66.7455C14.9412 66.7455 19.1416 66.3756 24.0345 62.8617C24.0212 62.7331 24.0145 62.6026 24.0145 62.4703C24.0145 59.1357 27.9656 54.4063 32.8586 53.3436C36.6768 47.8795 41.4125 42.345 47.7305 38.8897C47.0907 38.7242 46.4963 38.712 46.1827 38.712C40.417 38.712 36.8385 43.3842 33.3587 48.1557C29.9791 52.8278 23.6168 58.9913 16.1608 60.7809C23.8156 57.9978 28.8854 52.3314 32.4639 47.3603C35.9437 42.6889 41.5106 37.8172 47.3758 37.8172C47.9116 37.8172 48.572 37.9063 49.2344 38.1219C51.0098 37.2789 52.9044 36.6001 54.9316 36.1278C52.9143 36.8929 51.2215 37.5714 49.7195 38.3034C51.0943 38.8895 52.3462 40.0709 52.3462 42.1911C52.3462 45.7246 47.9521 49.9383 44.1347 51.9858C43.9753 51.8446 43.8048 51.7192 43.6267 51.6088C43.1512 51.8899 42.6781 52.1292 42.2179 52.3194ZM42.2179 52.3194C41.6865 51.7654 40.9383 51.7334 40.3175 51.7334C39.5222 51.7334 39.1245 51.9323 39.1245 52.2313C39.1245 52.6282 39.721 52.8271 40.0193 52.8271C40.6778 52.8271 41.4288 52.6455 42.2179 52.3194ZM32.5155 53.8395C28.2014 54.8692 25.2865 59.3218 25.2091 61.9666C27.5423 60.0852 30.0101 57.4703 32.5155 53.8395ZM105.728 59.5878C105.629 59.5878 105.529 59.6872 105.43 59.7866C102.05 63.167 98.8697 65.6525 96.9799 65.6525C95.6874 65.6525 95.1903 65.2541 95.1903 63.6648C95.1903 63.3658 95.1903 63.0675 95.2905 62.77C98.8689 62.6706 103.939 60.2845 103.939 57.6995C103.939 57.2016 103.64 56.4077 102.249 56.4077C100.061 56.4077 96.6809 58.5943 94.5938 60.881C91.2134 64.7577 88.6292 65.7512 88.0326 65.7512C87.4361 65.7512 86.6407 65.3528 88.2322 63.1662L93.1032 56.6058H90.717L88.3316 59.7859C85.1508 64.061 82.6653 65.8499 81.3728 65.8499C80.6776 65.8499 79.8822 65.3521 81.4722 63.1655L86.4433 56.6051H83.9578C81.2734 60.1836 79.8822 61.6742 73.4205 65.4529L79.9809 56.6051H77.5955L76.6012 58.095C76.4017 56.7038 75.5076 56.3054 74.1157 56.3054C71.7303 56.3054 68.7476 58.1936 66.8586 60.2822C63.8759 63.4623 60.5957 65.8492 58.8061 65.8492C57.7125 65.8492 57.2154 65.5516 57.2154 64.159C57.2154 63.6626 57.3148 63.1648 57.4142 62.7678C61.1915 62.7678 65.3673 59.4869 65.3673 57.6973C65.3673 57.1994 65.069 56.5049 63.6771 56.5049C61.1915 56.5049 57.2154 59.288 55.6246 61.9724C53.835 61.0776 54.531 58.5921 57.6131 56.6044H54.7313L48.4684 63.2642C50.258 60.7786 51.7493 58.5921 51.7493 57.7967C51.7493 57.1994 51.3517 56.5049 50.3574 56.5049C49.1644 56.5049 45.1875 59.0884 43.2992 61.3752C46.779 58.2938 49.562 57.1 49.8603 57.1C50.4568 57.1 50.258 57.6973 49.9597 58.0942L43.6969 66.4457H46.1824L53.5382 58.693C53.2399 60.1843 53.9359 61.6749 55.4265 62.3709C55.0288 62.9681 54.83 63.6641 54.83 64.2591C54.83 65.7505 56.2219 66.6453 57.7132 66.6453C59.6015 66.6453 62.2859 65.0545 64.8701 62.868C64.5719 63.4638 64.4725 64.0603 64.4725 64.4573C64.4725 65.3521 65.1684 66.6453 66.7592 66.6453C68.3492 66.6453 70.4371 65.6511 72.2267 64.2591L70.1388 67.342C69.9863 67.4183 69.8337 67.509 69.6755 67.6032L69.6754 67.6032L69.6751 67.6034C69.4211 67.7546 69.1526 67.9144 68.8463 68.0365C61.3904 72.2122 55.5259 75.8901 55.5259 78.8735C55.5259 79.8677 56.1224 80.5637 57.4142 80.5637C60.6951 80.5637 65.7642 75.7914 71.3319 68.2368L72.7238 66.4472C76.5011 64.3586 78.7871 62.8687 80.8749 60.7801L79.9801 61.9739C77.4953 65.3528 79.9801 66.3477 81.0738 66.3477C82.4657 66.3477 84.1551 65.1539 85.7459 63.6633C85.2488 65.3521 86.243 66.3477 87.5355 66.3477C89.0261 66.3477 91.3136 64.757 93.2018 63.0668C93.0023 63.4638 92.9036 63.8622 92.9036 64.2591C92.9036 65.9493 93.9965 66.7447 95.3891 66.7447C96.6809 66.7447 98.7688 65.8499 100.757 64.458C101.85 63.6641 103.043 62.7693 104.237 61.6749L100.956 66.4472H103.143L111.952 53.7234H117.061C117.261 53.7234 117.261 53.6232 117.061 53.6232C117.061 53.6232 114.95 53.5643 112.118 53.4831L118.353 44.477C118.1 44.73 117.467 45.5541 116.551 46.7454L116.551 46.7459L116.551 46.746C115.25 48.4375 113.381 50.8692 111.226 53.4574C105.884 53.3035 98.6629 53.0891 97.6767 53.0274C95.9865 53.0274 95.6882 52.928 95.1911 52.4301L94.2963 53.7234H111.004C109.363 55.684 107.564 57.7224 105.728 59.5878ZM101.156 57.1022C102.169 57.1022 102.158 57.6161 102.151 57.928V57.9287V57.9292C102.151 57.9456 102.15 57.9615 102.15 57.9766L102.15 57.997C102.15 59.8853 98.472 62.2722 95.3899 62.3709C96.1845 59.3897 99.4655 57.1022 101.156 57.1022ZM62.3861 57.1022C63.479 57.1022 63.479 57.997 63.479 58.1951C63.479 60.4818 59.5028 62.2714 57.5144 62.3709C58.3097 59.2902 61.0936 57.1022 62.3861 57.1022ZM68.1518 65.5531C67.4559 65.5531 66.8593 65.4537 66.8593 63.9624C66.8593 60.881 70.4378 57.0035 73.1222 57.0035C74.9118 57.0035 75.1099 58.1959 75.1099 58.7931C75.1099 62.3716 70.239 65.5531 68.1518 65.5531ZM66.9588 71.9154C63.8767 76.2893 59.9999 80.2654 57.6145 80.2654C57.018 80.2654 56.5209 80.0666 56.5209 79.3706C56.5209 76.2893 62.5849 72.1135 69.0459 68.4356C69.1457 68.3859 69.2202 68.3611 69.2948 68.3362C69.3694 68.3113 69.4439 68.2865 69.5437 68.2368L66.9588 71.9154ZM124.616 57.2017C124.461 57.3183 124.253 57.5449 123.987 57.834C122.891 59.0252 120.818 61.278 117.459 61.278C116.067 61.278 115.073 60.4826 115.073 59.09C115.073 55.6117 120.243 52.928 124.02 52.928C125.809 52.928 128.99 53.2255 128.99 57.3019C128.99 62.6699 123.92 66.2484 118.85 66.2484C117.179 66.2484 115.829 65.9272 114.425 65.5933C112.907 65.232 111.325 64.8557 109.207 64.8557C104.237 64.8557 102.447 67.2419 101.851 68.7325C102.149 68.0365 103.939 65.7505 108.511 65.7505C110.089 65.7505 111.545 66.1176 113.012 66.4875C114.503 66.8632 116.004 67.2419 117.657 67.2419C123.026 67.2419 130.381 62.3702 130.381 57.2002C130.381 54.5158 128.791 52.33 124.814 52.33C119.943 52.33 113.978 56.0079 113.978 59.5871C113.978 60.4819 114.773 61.9732 117.259 61.9732C121.037 61.9747 124.019 57.9982 124.616 57.202L124.616 57.2017ZM76.2718 73.7452C76.4078 73.7812 76.7012 73.8589 76.7012 74.6985V78.277C76.7012 79.1182 76.407 79.2536 76.2713 79.2712H76.2041C76.2041 79.2712 76.2305 79.2765 76.2713 79.2712H79.4843C80.7768 79.2712 82.4669 78.277 82.4669 76.5868C82.4669 75.8908 82.0693 73.7043 79.4843 73.7043H76.2041C76.2041 73.7273 76.2308 73.7344 76.2718 73.7452ZM78.2919 73.9031H78.6896C80.7775 73.9031 81.0758 75.8908 81.0765 76.4881C81.0765 78.1783 79.9821 79.0731 78.8892 79.0731H78.3914C78.0938 79.0731 77.9944 78.7748 77.9944 78.4758V74.102C77.9944 74.0026 78.0931 73.9031 78.2919 73.9031ZM88.7297 75.7915C89.0273 75.494 89.5251 75.2952 90.1217 75.2952C90.917 75.2952 92.0099 75.9911 92.0099 77.2829C92.0099 78.5746 90.917 79.37 89.8226 79.37C89.425 79.37 89.0273 79.2706 88.7297 78.9731V80.6632C88.7297 81.314 88.8871 81.4389 89.0115 81.4586H87.2116C87.3263 81.4389 87.5367 81.314 87.5367 80.6632V76.3881C87.5367 75.6921 87.139 75.6921 87.0396 75.6921L88.7297 75.2952V75.7915ZM87.139 81.4586C87.139 81.4586 87.1686 81.466 87.2116 81.4586H87.139ZM89.0115 81.4586H89.1274C89.1193 81.4586 89.1099 81.4593 89.0995 81.46C89.0748 81.4617 89.0443 81.4638 89.0115 81.4586ZM88.7297 78.5754C88.8292 78.8744 89.0273 79.0732 89.425 79.0732C90.1209 79.0732 90.618 78.476 90.618 77.383C90.618 76.2901 90.0215 75.6929 89.5251 75.6929C89.2269 75.6929 88.9278 75.8917 88.7297 76.0913V78.5754ZM99.0102 79.2306C98.8999 79.1986 98.6704 79.1319 98.6704 78.3765V75.1965L97.0796 75.5934C97.1798 75.5934 97.4773 75.5934 97.4773 76.2894V78.3765C97.4773 79.1569 97.294 79.2022 97.1667 79.2337C97.1318 79.2423 97.1012 79.2499 97.0796 79.2713H99.0681C99.0681 79.2474 99.0451 79.2407 99.0102 79.2306ZM97.9746 74.2006C98.2722 74.2006 98.5712 74.0018 98.5712 73.8037C98.5712 73.6056 98.2729 73.4067 97.9746 73.4067C97.6764 73.4067 97.3774 73.6056 97.3774 73.8037C97.3774 74.0018 97.6764 74.2006 97.9746 74.2006ZM96.7828 79.0723C96.6826 79.0723 96.3851 79.0723 96.3851 78.6739V75.3952H94.9566C94.9193 75.389 94.8945 75.3952 94.8945 75.3952H94.9566C95.0685 75.4138 95.2922 75.5443 95.2922 76.29V78.4765C95.0926 78.9744 94.4968 79.0738 94.2972 79.0738C94.1978 79.0738 93.7007 78.9744 93.7007 78.0796V75.3952H92.2259C92.1931 75.39 92.1626 75.3921 92.1379 75.3938L92.1272 75.3945C92.1209 75.3949 92.1152 75.3952 92.1099 75.3952H92.2259C92.3502 75.4149 92.5076 75.5398 92.5076 76.1906V77.6804C92.5076 77.7141 92.5073 77.7493 92.507 77.7858C92.5015 78.3974 92.4929 79.3706 93.8995 79.3706C94.3966 79.3706 94.9939 79.1718 95.2922 78.7748V79.2712L96.7828 79.0723ZM87.04 76.885H83.9579V77.0846C83.9579 78.4758 84.7533 78.9729 85.4485 78.9729C85.9463 78.9729 86.4434 78.6739 86.741 78.3756C86.4434 79.0716 85.7467 79.5679 84.8527 79.5679C83.4608 79.5679 82.6654 78.3756 82.6654 77.4808C82.6654 75.991 84.2561 75.1948 85.0508 75.1948C85.7482 75.1963 86.9413 75.5933 87.04 76.885ZM85.0515 75.4939C84.3563 75.4939 84.1567 76.1898 84.0573 76.6862H86.0457C86.0465 75.9917 85.5494 75.4939 85.0515 75.4939ZM100.957 79.5688C102.051 79.5688 102.746 78.973 102.746 78.2771C102.746 77.4991 101.92 77.1726 101.573 77.0358L101.569 77.0343L101.523 77.0158L101.507 77.0093L101.493 77.0038C101.478 76.9973 101.465 76.9914 101.454 76.9861C100.658 76.6871 100.361 76.4882 100.361 76.0913C100.361 75.7915 100.658 75.494 101.056 75.494C101.256 75.494 101.851 75.494 102.448 76.2894V75.5934C101.851 75.2959 101.454 75.2959 101.156 75.2959C100.062 75.2959 99.3667 75.7923 99.3667 76.4882C99.3667 77.292 100.008 77.5336 100.499 77.7186L100.499 77.7189C100.555 77.7397 100.608 77.7598 100.658 77.78L100.735 77.818L100.84 77.8701C101.353 78.1223 101.752 78.319 101.752 78.6748C101.752 79.0732 101.354 79.3707 100.857 79.3707C100.261 79.3707 99.7636 78.9738 99.5648 78.4759V79.1719C99.9625 79.4694 100.36 79.5688 100.957 79.5688ZM106.425 79.4693C106.442 79.4526 106.461 79.4387 106.482 79.4238C106.586 79.3502 106.723 79.253 106.723 78.6739V74.4997C106.723 73.8499 106.524 73.7309 106.397 73.655C106.384 73.6474 106.372 73.6402 106.361 73.6329C106.348 73.624 106.336 73.6149 106.326 73.6049L107.916 73.2064V78.6739C107.916 79.2323 108.108 79.3427 108.236 79.4158L108.236 79.4162L108.237 79.4168C108.249 79.4233 108.259 79.4296 108.27 79.4358C108.273 79.4379 108.276 79.44 108.279 79.4421C108.283 79.4444 108.287 79.4468 108.29 79.4492C108.293 79.4515 108.296 79.4539 108.3 79.4564C108.302 79.4583 108.304 79.4602 108.306 79.4622C108.309 79.4645 108.312 79.4669 108.314 79.4693H106.425ZM118.056 73.4067C116.962 74.9967 115.273 77.9794 114.676 79.3706H113.782C113.875 79.2308 113.991 79.0249 114.149 78.7428L114.149 78.7422C114.327 78.4241 114.559 78.009 114.875 77.4823C115.454 76.5815 115.992 75.638 116.354 75.0043C116.55 74.6599 116.694 74.407 116.764 74.3023H114.179C113.881 74.3023 113.583 74.401 113.384 74.5998L113.98 73.2071C114.18 73.4067 114.378 73.4067 114.478 73.4067H118.056ZM110.103 79.3706C110.798 77.9794 112.389 74.9967 113.482 73.4067H110.003C109.804 73.4067 109.606 73.4067 109.406 73.2071L108.909 74.5998C109.108 74.401 109.307 74.3023 109.605 74.3023H112.189C112.083 74.4609 111.807 74.9593 111.453 75.6009C111.142 76.1623 110.771 76.8334 110.4 77.4823C109.925 78.1609 109.635 78.6542 109.436 78.9937C109.343 79.1516 109.27 79.2761 109.207 79.3706H110.103ZM120.442 77.3829C120.442 78.5752 119.747 79.2712 118.951 79.2712C118.653 79.2712 118.056 79.2712 117.36 78.3771L117.459 79.1725C118.155 79.47 118.85 79.47 119.05 79.47C120.442 79.47 121.734 78.5752 121.734 77.184C121.734 76.2892 120.939 75.1963 119.646 75.1963C119.15 75.1963 118.553 75.3952 118.156 75.6927L118.453 74.3015H120.74L121.337 73.2071C121.038 73.4067 120.741 73.4067 120.641 73.4067H118.255L117.758 76.2892C118.056 75.8908 118.553 75.5933 119.051 75.5933C119.945 75.5933 120.442 76.5875 120.442 77.3829ZM75.0122 37.6192C75.1109 38.4146 74.7132 39.2092 74.018 39.3087C73.3213 39.5075 72.7255 38.911 72.5266 38.1156C72.4279 37.3202 72.8256 36.5256 73.5216 36.4261C74.2168 36.3267 74.8133 36.8238 75.0122 37.6192Z" fill="#BD9542"/>
</svg>
