<svg width="113" height="60" viewBox="0 0 113 60" fill="none" xmlns="http://www.w3.org/2000/svg">
<path fill-rule="evenodd" clip-rule="evenodd" d="M68.8284 0.260084H72.1673C72.1673 9.06187 69.0112 12.6079 64.1144 14.975V31.58H58.9724V17.0055C58.5003 17.1696 58.0217 17.3337 57.5345 17.5008C57.3202 17.5743 57.1042 17.6483 56.8863 17.7232C55.8766 18.0687 54.9494 18.3963 54.0757 18.7218V31.58H48.9315V21.0888C45.6328 23.166 44.2553 25.9522 44.2553 31.5756H40.9142C40.9142 23.3422 43.736 19.6935 48.9315 17.0568V0.257812H54.0757V14.9059C54.6574 14.6986 55.2592 14.4869 55.8766 14.2752C56.2131 14.1598 56.5427 14.0474 56.8656 13.9373C57.6034 13.6856 58.3057 13.4461 58.9724 13.2119V0.257812H64.1144V10.9742C67.2928 9.06851 68.8284 6.32036 68.8284 0.260084ZM86.8399 40.8432C81.4639 40.8432 77.2491 44.9755 77.2491 50.2489C77.2491 55.5202 81.4639 59.6481 86.8399 59.6481C92.2159 59.6481 96.4308 55.5202 96.4308 50.2489C96.4308 44.9755 92.2159 40.8432 86.8399 40.8432ZM86.8399 56.2023C83.4342 56.2023 80.764 53.5878 80.764 50.2468C80.764 46.9079 83.4342 44.289 86.8399 44.289C90.2456 44.289 92.9136 46.9079 92.9136 50.2468C92.9136 53.5878 90.2456 56.2023 86.8399 56.2023ZM13.3747 41.3558V48.0179H4.36343V41.3514H0.857422V59.2491H4.36343V51.6799H13.3747V59.2491H16.8562V41.3558H13.3747ZM34.9498 41.3558V50.6948C34.9498 53.4073 34.669 56.2869 30.2202 56.2869C25.7714 56.2869 25.4549 53.4697 25.4549 50.6948V41.3558H21.9689V50.9177C21.9689 55.1837 23.1614 59.7439 30.2202 59.7439C37.279 59.7439 38.467 55.1191 38.467 50.9177V41.3558H34.9498ZM64.0877 59.2425V41.3558H67.5892V55.6227H76.1636V59.2425H64.0877ZM97.855 44.9955V41.3558H112.474V44.9955H106.989V59.2469H103.481V44.9955H97.855ZM56.7905 49.8656C57.8715 49.0209 58.4911 47.7883 58.4911 46.2972C58.4911 44.8106 57.8893 41.3558 52.3283 41.3558H43.1343V59.2469H52.9123C56.8484 59.2469 59.1085 57.2588 59.1085 53.804C59.1085 52.119 58.3061 50.7705 56.7905 49.8656ZM52.1567 44.6345C54.107 44.6345 54.7087 45.3411 54.7087 46.5201C54.7087 47.6969 54.1871 48.5372 52.228 48.5372H46.6135V44.6345H52.1567ZM52.6983 55.9816H46.6157L46.6141 51.4883H52.7189C54.5265 51.4883 55.3111 52.1926 55.3111 53.7996C55.3111 55.0009 54.8179 55.9816 52.6983 55.9816Z" fill="#BD9542"/>
</svg>
