<svg width="192" height="48" viewBox="0 0 192 48" fill="none" xmlns="http://www.w3.org/2000/svg">
<path fill-rule="evenodd" clip-rule="evenodd" d="M96.7848 21.348C101.5 21.2992 106.037 20.5046 110.283 19.0753L111.629 21.0567C112.67 20.69 113.695 20.2878 114.701 19.8491L112.19 16.1571C108.367 17.7329 104.259 18.755 99.9646 19.1266V4.16957H104.024L102.262 1.57658H97.9783L96.7848 3.33696V21.348ZM82.3724 19.072C86.6173 20.5013 91.1544 21.2967 95.8695 21.3447V3.33448L94.6768 1.57658H90.3922L88.631 4.16957H92.6897V19.1233C88.3959 18.7517 84.2875 17.7296 80.4655 16.1546L77.9528 19.8467C78.9592 20.2837 79.9838 20.6875 81.0258 21.0534L82.3724 19.072ZM100.893 18.0937C104.985 17.6394 108.893 16.5808 112.529 15.01L116.104 20.258C114.541 20.9838 112.93 21.6261 111.278 22.1789L109.911 20.1843C105.645 21.5417 101.1 22.2741 96.3843 22.2741C96.214 22.2741 96.0453 22.2725 95.8751 22.2709L95.8695 22.2708V22.2667C91.2976 22.2269 86.8888 21.5003 82.744 20.1819L81.3767 22.1756C79.7256 21.6228 78.115 20.9813 76.5508 20.2555L80.1262 15.0075C83.762 16.5775 87.6709 17.636 91.7619 18.0904V5.09817H86.8764L89.8964 0.65625H95.1726L96.328 2.35539L97.4817 0.65625H102.759L105.779 5.09817H100.893V18.0937ZM48.0123 35.6288C48.3417 35.6735 48.5933 35.9351 48.5933 36.252V37.6342C48.5933 37.6963 48.5553 37.8436 48.4692 37.933C47.6664 38.7565 46.5184 38.7159 46.5184 38.7159C44.5868 38.7565 43.8626 36.9481 43.779 34.0845C43.6962 31.2448 44.3534 29.3818 46.2851 29.3413C46.2851 29.3413 48.5097 29.0599 49.6113 31.2341L49.7487 31.508C49.7934 31.585 49.8695 31.6744 49.9821 31.6851C50.0193 31.6884 50.0566 31.6851 50.0897 31.6752L50.8048 31.5428C50.8801 31.5213 50.938 31.4608 50.9471 31.3839C50.9496 31.3574 50.9471 31.3326 50.9389 31.3102L50.213 28.9515C50.1766 28.8505 50.074 28.7777 49.954 28.7777H49.6908C49.5699 28.7777 49.4673 28.8505 49.4309 28.9515C49.2141 29.5085 48.7903 29.2064 48.7903 29.2064C48.0686 28.853 47.2575 28.6552 46.4018 28.6552C43.3825 28.6552 40.9352 31.1149 40.9352 34.1498C40.9352 37.1848 43.3825 39.6445 46.4018 39.6445C46.4018 39.6445 48.2374 39.8357 50.7733 38.2516C50.9736 38.1275 51.1234 37.9379 51.1234 37.6996V36.2115C51.1234 35.8945 51.3709 35.633 51.7003 35.5883L52.0272 35.5378C52.1596 35.5212 52.2647 35.4161 52.2647 35.2887V34.9543C52.2647 34.8492 52.1753 34.7648 52.062 34.7648H47.5182C47.4057 34.7648 47.3171 34.8492 47.3171 34.9543V35.2887C47.3171 35.4161 47.4214 35.5212 47.5538 35.5378L48.0123 35.6288ZM56.0627 28.7711H61.4448C61.7378 28.7711 61.9869 28.9904 62.0846 29.2288L62.6234 30.6539C62.6333 30.6763 62.6391 30.7003 62.6391 30.726C62.6391 30.8294 62.5489 30.913 62.438 30.913H61.9248C61.8123 30.913 61.7328 30.8402 61.6732 30.7591L61.4134 30.4015C60.9035 29.6533 60.1578 29.6939 60.1578 29.6939H57.3944C57.1527 29.6939 56.9615 29.871 56.9615 30.0936V31.782C56.9615 32.0047 57.1626 32.1834 57.4043 32.1834H58.0449C58.467 32.1859 58.7128 31.9831 58.7914 31.7158L58.9437 31.2515C58.9793 31.1514 59.0819 31.0785 59.2027 31.0785H59.5537C59.6737 31.0785 59.7763 31.1514 59.8127 31.2515L60.7181 34.0423C60.7256 34.0655 60.7289 34.0903 60.7256 34.1151C60.7173 34.1929 60.6594 34.2533 60.5841 34.2749L60.176 34.3667C60.1421 34.3775 60.1057 34.3808 60.0676 34.3775C59.9551 34.3667 59.8797 34.2773 59.8342 34.2004L59.5537 33.6872C59.5537 33.6872 59.2772 33.1782 58.5919 33.1782H57.4001C57.1593 33.1782 56.9615 33.3562 56.9615 33.5788V38.1772C56.9615 38.3998 57.1527 38.5761 57.3944 38.5761H60.4963C60.4963 38.5761 61.3008 38.5984 61.7924 37.9289L62.1475 37.4488C62.2071 37.3677 62.2857 37.2949 62.3991 37.2949H62.9114C63.0231 37.2949 63.1133 37.3777 63.1133 37.4803C63.1133 37.5068 63.1075 37.5308 63.0976 37.5531L62.4264 39.1794C62.3295 39.4186 62.0796 39.5825 61.7874 39.5825H53.2479C53.1345 39.5825 53.0451 39.4931 53.0451 39.3888V38.9171C53.0451 38.7904 53.1502 38.6853 53.2827 38.6688L53.9125 38.5786C54.2411 38.533 54.4927 38.2715 54.4927 37.9554V30.4239C54.4927 30.1077 54.2411 29.8454 53.9125 29.8007L53.2827 29.7113C53.1502 29.6939 53.0451 29.5888 53.0451 29.4613V28.9904C53.0451 28.8861 53.1345 28.7711 53.2479 28.7711H56.0627ZM30.1594 39.3805C30.1594 39.4848 30.2487 39.575 30.3621 39.575H38.9017C39.1938 39.575 39.4438 39.4095 39.5414 39.1711L40.2118 37.5457C40.2217 37.5233 40.2275 37.4985 40.2275 37.4728C40.2275 37.3694 40.1373 37.2866 40.0256 37.2866H39.5133C39.3999 37.2866 39.3213 37.3586 39.2617 37.4397L38.9066 37.9206C38.415 38.591 37.6097 38.5678 37.6097 38.5678H34.5086C34.2669 38.5678 34.0765 38.3907 34.0765 38.168V33.5705C34.0765 33.3479 34.2727 33.1699 34.5144 33.1699H35.7062C36.3906 33.1699 36.6679 33.6798 36.6679 33.6798L36.9484 34.1912C36.9931 34.269 37.0693 34.3576 37.1818 34.3692C37.2191 34.3725 37.2563 34.3692 37.2903 34.3592L37.6983 34.2666C37.7736 34.245 37.8315 34.1838 37.8398 34.1077C37.8431 34.082 37.8398 34.0563 37.8324 34.034L36.9269 31.2432C36.8905 31.1431 36.7887 31.0702 36.6679 31.0702H36.317C36.1961 31.0702 36.0943 31.1431 36.0571 31.2432L35.9056 31.7075C35.827 31.9757 35.5812 32.1768 35.1591 32.1751H34.5185C34.2768 32.1751 34.0765 31.9972 34.0765 31.7737V30.0936C34.0765 29.871 34.2669 29.6947 34.5086 29.6947H37.272C37.272 29.6947 38.0169 29.6533 38.5276 30.4015L38.7874 30.759C38.847 30.8401 38.9265 30.913 39.0391 30.913H39.5514C39.6631 30.913 39.7533 30.8294 39.7533 30.7268C39.7533 30.7011 39.7475 30.6763 39.7376 30.6539L39.1988 29.2304C39.1011 28.9912 38.8512 28.7719 38.559 28.7719H30.3621C30.2487 28.7719 30.1594 28.8869 30.1594 28.9912V29.4621C30.1594 29.5888 30.2645 29.6939 30.3969 29.7112L31.0267 29.8015C31.3553 29.847 31.6077 30.1085 31.6077 30.4247V37.9462C31.6077 38.2632 31.3553 38.5247 31.0267 38.5703L30.3969 38.6596C30.2645 38.6779 30.1594 38.783 30.1594 38.9096V39.3805ZM88.4067 30.418C88.4067 30.1027 88.6591 29.8403 88.9877 29.7948L89.6167 29.7054C89.7499 29.688 89.8542 29.5829 89.8542 29.4555V28.9854C89.8542 28.8803 89.7656 28.7652 89.6523 28.7652H84.6922C84.5788 28.7652 84.4903 28.8803 84.4903 28.9854V29.4555C84.4903 29.5829 84.5954 29.688 84.7278 29.7054L85.3568 29.7948C85.6854 29.8403 85.9378 30.1027 85.9378 30.418V37.9487C85.9378 38.2657 85.6854 38.5272 85.3568 38.5727L84.7278 38.6629C84.5954 38.6803 84.4903 38.7854 84.4903 38.912V39.383C84.4903 39.4873 84.5788 39.5775 84.6922 39.5775H92.2725C92.5647 39.5775 92.8146 39.4119 92.9123 39.1744L93.5827 37.5473C93.5918 37.5249 93.5984 37.5009 93.5984 37.4753C93.5984 37.3726 93.5082 37.2882 93.3965 37.2882H92.8842C92.7708 37.2882 92.6922 37.3611 92.6326 37.4422L92.2775 37.9222C91.7859 38.5934 90.9806 38.5702 90.9806 38.5702H88.8395C88.5978 38.5702 88.4067 38.3931 88.4067 38.1705V30.418ZM102.442 28.7619H97.0596H94.2448C94.1314 28.7619 94.042 28.8778 94.042 28.9829V29.453C94.042 29.5796 94.1472 29.6847 94.2796 29.7021L94.9094 29.7923C95.238 29.8378 95.4896 30.0994 95.4896 30.4155V37.9462C95.4896 38.2624 95.238 38.5247 94.9094 38.5702L94.2796 38.6596C94.1472 38.677 94.042 38.7829 94.042 38.9096V39.3797C94.042 39.4848 94.1314 39.5742 94.2448 39.5742H102.784C103.077 39.5742 103.326 39.4095 103.424 39.1711L104.095 37.5448C104.104 37.5225 104.11 37.4976 104.11 37.4728C104.11 37.3685 104.02 37.2866 103.907 37.2866H103.396C103.283 37.2866 103.205 37.3586 103.144 37.4397L102.789 37.9197C102.298 38.5901 101.492 38.5669 101.492 38.5669H98.3913C98.1496 38.5669 97.9584 38.3906 97.9584 38.168V33.5697C97.9584 33.3479 98.1554 33.1699 98.3971 33.1699H99.5889C100.274 33.1699 100.551 33.6797 100.551 33.6797L100.831 34.1912C100.876 34.269 100.953 34.3576 101.065 34.3683C101.102 34.3725 101.138 34.3683 101.173 34.3592L101.581 34.2657C101.656 34.245 101.714 34.1838 101.723 34.1068C101.726 34.082 101.723 34.0563 101.716 34.0331L100.81 31.2432C100.773 31.143 100.671 31.0702 100.551 31.0702H100.2C100.079 31.0702 99.9762 31.143 99.9398 31.2432L99.7883 31.7066C99.7097 31.9756 99.4639 32.1767 99.041 32.1743H98.4012C98.1587 32.1743 97.9584 31.9963 97.9584 31.7737V30.0837C97.9584 29.8618 98.1496 29.6856 98.3913 29.6856H101.155C101.155 29.6856 101.9 29.6458 102.41 30.3915L102.669 30.7499C102.731 30.831 102.808 30.9038 102.922 30.9038H103.434C103.545 30.9038 103.636 30.8202 103.636 30.7176C103.636 30.692 103.63 30.6671 103.62 30.6448L103.081 29.2204C102.984 28.9829 102.735 28.7619 102.442 28.7619ZM135.654 35.2308C135.654 35.2308 135.404 38.5719 138.321 38.5719C140.95 38.5719 140.95 35.5808 140.95 35.5808V30.4727C140.95 30.1573 140.83 29.8958 140.501 29.8503L140.003 29.7609C139.87 29.7427 139.766 29.6376 139.766 29.5101V29.04C139.766 28.9349 139.855 28.8199 139.968 28.8199H143.022C143.136 28.8199 143.224 28.9349 143.224 29.04V29.5101C143.224 29.6376 143.12 29.7427 142.987 29.7609L142.489 29.8503C142.16 29.8958 142.04 30.1573 142.04 30.4727V35.2308C142.058 35.8018 141.996 39.5717 137.91 39.5717C132.892 39.5717 133.161 35.2721 133.161 35.2721V30.4238C133.161 30.1077 132.933 29.8453 132.604 29.8006L131.975 29.7112C131.843 29.6939 131.738 29.5888 131.738 29.4613V28.9904C131.738 28.8861 131.827 28.771 131.94 28.771H136.637C136.75 28.771 136.839 28.8861 136.839 28.9904V29.4613C136.839 29.5888 136.734 29.6939 136.602 29.7112L136.104 29.8006C135.775 29.8453 135.654 30.1077 135.654 30.4238V35.2308ZM148.693 29.7981C148.365 29.8428 148.112 30.1052 148.112 30.4205V38.1738C148.112 38.3964 148.304 38.5727 148.545 38.5727H150.686C150.686 38.5727 151.492 38.5967 151.982 37.9255L152.338 37.4455C152.397 37.3644 152.477 37.2915 152.59 37.2915H153.101C153.214 37.2915 153.304 37.3759 153.304 37.4786C153.304 37.5042 153.298 37.5282 153.288 37.5506L152.617 39.1769C152.52 39.4152 152.27 39.5799 151.978 39.5799H144.398C144.285 39.5799 144.195 39.4906 144.195 39.3863V38.9145C144.195 38.7871 144.3 38.6828 144.434 38.6654L145.063 38.576C145.391 38.5305 145.644 38.269 145.644 37.9528V30.4205C145.644 30.1052 145.391 29.8428 145.063 29.7981L144.434 29.7079C144.3 29.6913 144.195 29.5854 144.195 29.4588V28.9879C144.195 28.8836 144.285 28.7685 144.398 28.7685H149.358C149.471 28.7685 149.56 28.8836 149.56 28.9879V29.4588C149.56 29.5854 149.456 29.6913 149.322 29.7079L148.693 29.7981ZM158.439 30.0629C158.439 29.8395 158.63 29.664 158.872 29.664H160.13C160.13 29.664 160.935 29.7518 161.426 30.4221L161.781 30.9022C161.841 30.9841 161.92 31.0569 162.032 31.0569H162.545C162.656 31.0569 162.746 30.9733 162.746 30.8699C162.746 30.8442 162.741 30.8202 162.732 30.7979L162.06 29.1708C161.963 28.9324 161.714 28.7677 161.421 28.7677H152.989C152.696 28.7677 152.447 28.9324 152.349 29.1708L151.678 30.7979C151.668 30.8202 151.662 30.8442 151.662 30.8699C151.662 30.9733 151.752 31.0569 151.864 31.0569H152.376C152.49 31.0569 152.567 30.9841 152.629 30.9022L152.983 30.4221C153.474 29.7518 154.28 29.664 154.28 29.664H155.537C155.779 29.664 155.97 29.8395 155.97 30.0629L155.971 37.9272C155.971 38.2425 155.718 38.5048 155.389 38.5504L154.761 38.6397C154.627 38.6571 154.522 38.7631 154.522 38.8897V39.3598C154.522 39.4649 154.611 39.5799 154.725 39.5799H159.685C159.798 39.5799 159.887 39.4649 159.887 39.3598V38.8897C159.887 38.7631 159.782 38.6571 159.649 38.6397L159.02 38.5504C158.691 38.5048 158.439 38.2425 158.439 37.9272V30.0629ZM20.8865 35.8382H24.2691C24.6721 35.8382 24.5405 35.5096 24.5405 35.5096L22.9929 31.0462C22.9929 31.0462 22.8654 30.6564 22.6717 30.6564C22.4789 30.6564 22.3581 31.0462 22.3581 31.0462L20.6159 35.5096C20.6159 35.5096 20.4843 35.8382 20.8865 35.8382ZM28.8823 38.5934L29.0702 38.6596C29.191 38.6861 29.2804 38.7863 29.2804 38.9054V39.3863C29.2804 39.4897 29.1902 39.5709 29.0785 39.5709H24.7508C24.639 39.5709 24.5438 39.4897 24.5438 39.3863V38.8988C24.5438 38.7813 24.6274 38.682 24.7466 38.6555L24.8435 38.629C25.1472 38.5661 25.374 38.3153 25.374 38.0149C25.374 37.9404 25.3607 37.8692 25.3351 37.803L25.1008 37.131C25.1008 37.131 24.9866 36.8256 24.577 36.8256H20.5017C20.0928 36.8256 19.9786 37.131 19.9786 37.131L19.7154 37.803C19.6898 37.8692 19.6757 37.9404 19.6757 38.0149C19.6757 38.3153 19.9033 38.5661 20.207 38.629L20.3039 38.6555C20.4222 38.682 20.5066 38.7813 20.5066 38.8988V39.3863C20.5066 39.4897 20.4115 39.5709 20.2997 39.5709H16.9611C16.8493 39.5709 16.7591 39.4897 16.7591 39.3863V38.9054C16.7591 38.7863 16.8485 38.6861 16.9702 38.6596L17.2822 38.5984C17.2822 38.5984 17.9584 38.5371 18.2969 37.6466L21.5958 29.1973C21.5958 29.1973 21.7257 28.771 22.2587 28.771H24.351C24.884 28.771 25.0139 29.1973 25.0139 29.1973L28.0067 37.6466C28.3626 38.4809 28.8823 38.5934 28.8823 38.5934ZM70.7326 33.4894H68.6535C68.4119 33.4894 68.2116 33.3164 68.2116 33.0938V30.0522C68.2116 29.8296 68.4028 29.6533 68.6436 29.6533H70.7326C70.7326 29.6533 72.8 29.6641 72.8 31.595C72.8 33.4729 70.7326 33.4894 70.7326 33.4894ZM76.6154 38.6605L76.2231 38.6174C76.1972 38.6098 76.1601 38.6055 76.1135 38.6002C75.841 38.5686 75.2455 38.4998 74.6977 37.5109C73.4623 35.2773 72.7432 34.594 72.4742 34.3383L72.4466 34.3121C72.2016 34.0779 72.5103 34.0125 72.5103 34.0125C75.5121 33.2866 75.3259 31.3194 75.3259 31.3194C75.3259 28.7562 72.0592 28.7711 72.0592 28.7711H64.4971C64.3838 28.7711 64.2952 28.8861 64.2952 28.9904V29.4613C64.2952 29.5888 64.3995 29.6939 64.5319 29.7113L65.1617 29.8006C65.4903 29.8453 65.7427 30.0655 65.7427 30.3816V37.9446C65.7427 38.2599 65.4903 38.5214 65.1617 38.5678L64.5319 38.6572C64.3995 38.6746 64.2952 38.7797 64.2952 38.9071V39.3772C64.2952 39.4815 64.3838 39.5717 64.4971 39.5717H69.4638C69.5763 39.5717 69.6657 39.4815 69.6657 39.3772V38.9071C69.6657 38.7797 69.5606 38.6746 69.4282 38.6572L68.7992 38.5678C68.4706 38.5214 68.2182 38.2599 68.2182 37.9446L68.2116 34.8906C68.2116 34.668 68.4086 34.49 68.6502 34.49H69.3595C69.3595 34.49 70.4776 34.4354 71.2639 35.8473C71.2639 35.8473 71.8408 36.8927 72.459 38.1035C73.0781 39.316 73.5151 39.5717 75.3574 39.5717L76.6237 39.5725C76.7346 39.5725 76.8256 39.4898 76.8256 39.3863V38.9063C76.8256 38.7863 76.7354 38.687 76.6154 38.6605ZM122.58 34.0936C122.663 36.958 123.406 38.7631 125.337 38.7151C127.308 38.6662 127.909 36.8819 127.825 33.9636C127.739 31.0156 126.979 29.2949 125.067 29.3413C123.134 29.3901 122.494 31.1447 122.58 34.0936ZM125.201 28.6552C126.057 28.6552 126.869 28.853 127.591 29.2064C129.412 30.0977 130.667 31.9765 130.667 34.1498C130.667 37.1848 128.22 39.6445 125.201 39.6445C122.183 39.6445 119.736 37.1848 119.736 34.1498C119.736 31.1149 122.183 28.6552 125.201 28.6552ZM169.894 33.506H167.815C167.574 33.506 167.373 33.333 167.373 33.1104V30.0688C167.373 29.8453 167.564 29.6691 167.806 29.6691H169.894C169.894 29.6691 171.961 29.679 171.961 31.6115C171.961 33.4886 169.894 33.506 169.894 33.506ZM175.777 38.677L175.385 38.634C175.36 38.6266 175.323 38.6224 175.277 38.6171C175.004 38.586 174.407 38.5178 173.86 37.5258C172.634 35.3091 171.915 34.6212 171.642 34.3599L171.609 34.3278C171.364 34.0936 171.673 34.0282 171.673 34.0282C174.674 33.3032 174.487 31.3351 174.487 31.3351C174.487 28.7719 171.221 28.7876 171.221 28.7876H163.659C163.546 28.7876 163.457 28.9027 163.457 29.0069V29.4779C163.457 29.6045 163.562 29.7096 163.694 29.727L164.323 29.8172C164.652 29.8627 164.905 30.0829 164.905 30.3982V37.9611C164.905 38.2765 164.652 38.538 164.323 38.5827L163.694 38.6737C163.562 38.6911 163.457 38.7954 163.457 38.9228V39.3946C163.457 39.4981 163.546 39.5883 163.659 39.5883H168.626C168.739 39.5883 168.827 39.4981 168.827 39.3946V38.9228C168.827 38.7954 168.723 38.6911 168.59 38.6737L167.961 38.5827C167.632 38.538 167.38 38.2765 167.38 37.9611L167.373 34.9063C167.373 34.6837 167.57 34.5058 167.811 34.5058H168.521C168.521 34.5058 169.64 34.4511 170.425 35.8639C170.425 35.8639 171.003 36.9084 171.621 38.1209C172.24 39.3325 172.677 39.5883 174.519 39.5883H175.785C175.897 39.5883 175.986 39.5063 175.986 39.4029V38.9228C175.986 38.8037 175.898 38.7035 175.777 38.677ZM82.5611 33.1426C82.6729 33.1426 82.7631 33.2246 82.7631 33.3288V34.4801C82.7631 34.5827 82.6729 34.6655 82.5611 34.6655H77.7824C77.6706 34.6655 77.5804 34.5827 77.5804 34.4801V33.3288C77.5804 33.2246 77.6706 33.1426 77.7824 33.1426H82.5611ZM117.267 35.9201C115.434 38.6 112.718 38.4833 112.718 38.4833C109.764 38.5653 108.69 35.5055 108.566 31.6975C108.441 27.8904 109.338 24.7752 112.268 24.6941C112.268 24.6941 115.057 24.3117 116.876 27.1306C116.92 27.2076 116.996 27.2962 117.109 27.3069C117.147 27.3111 117.183 27.3069 117.217 27.2978L117.932 27.1646C118.007 27.1439 118.065 27.0818 118.073 27.0057C118.077 26.98 118.073 26.9552 118.067 26.9312L117.088 23.9194C117.052 23.8184 116.949 23.7456 116.828 23.7456H116.478C116.358 23.7456 116.255 23.8184 116.219 23.9194C116.106 24.8803 115.342 24.3895 115.342 24.3895C114.408 23.912 113.366 23.6455 112.268 23.6455C108.238 23.6455 104.971 27.2283 104.971 31.6479C104.971 36.0675 108.238 39.6511 112.268 39.6511C113.482 39.6511 114.643 39.3176 115.65 38.7399C115.65 38.7399 116.497 38.1697 116.611 39.1314C116.646 39.2315 116.749 39.3043 116.87 39.3043H117.221C117.342 39.3043 117.444 39.2315 117.48 39.1314L118.458 36.1179C118.466 36.0948 118.469 36.0699 118.466 36.0451C118.457 35.9673 118.399 35.9069 118.324 35.8854L117.609 35.7521C117.576 35.7422 117.539 35.7389 117.501 35.7422C117.388 35.7538 117.312 35.8423 117.267 35.9201ZM176.622 39.5884H180.699L181.672 39.5821C179.257 42.7895 176.773 44.6287 173.039 44.9531H18.5757C14.8 44.6251 13.2202 43.4508 10.8991 40.2679C15.9936 39.1648 16.4333 35.3315 16.687 32.6131C16.8997 30.3346 16.8442 27.5587 16.8442 27.5587V26.0218C16.8442 25.6791 17.0967 25.3953 17.4252 25.3456L18.0542 25.2479C18.1875 25.2306 18.2918 25.1163 18.2918 24.979V24.2829C18.2918 24.1687 18.2032 24.0777 18.0898 24.0777H12.0754C11.962 24.0777 11.8735 24.1687 11.8735 24.2829V24.979C11.8735 25.1163 11.9777 25.2306 12.1102 25.2479L12.74 25.3456C13.0686 25.3953 13.321 25.6791 13.321 26.0218V32.767C13.3162 32.9066 13.3151 33.0708 13.3139 33.2543C13.3055 34.5489 13.2909 36.8011 11.9049 38.0871C11.3724 38.5816 10.7047 38.8882 10.0434 39.0739C7.59619 35.746 5.60992 34.5729 5.60992 34.5729C3.71629 33.3472 1.88142 33.4556 1.16635 34.6896C0.450442 35.9236 1.16553 37.8487 3.23296 39.1191C4.88486 40.1912 7.4667 40.6226 9.51114 40.4726C10.1715 41.3617 11.3885 43.0031 11.8701 43.6711C11.9126 43.73 11.9582 43.7959 12.0078 43.8678C12.7487 44.9407 14.4073 47.3425 20.5016 47.3425H170.999C177.547 47.3425 180.002 43.9353 180.679 42.9947L180.68 42.9933C181.206 42.2654 182.604 40.3822 183.203 39.5757C185.962 39.5602 187.725 39.4238 189.432 38.3155C191.499 37.0459 192.214 35.1208 191.498 33.886C190.783 32.6528 188.948 32.5427 187.055 33.7701C187.055 33.7701 184.946 35.0149 182.397 38.5812H180.769C180.528 38.5812 180.337 38.4049 180.337 38.1822V33.5839C180.337 33.3613 180.534 33.1841 180.775 33.1841H181.967C182.653 33.1841 182.929 33.6923 182.929 33.6923L183.21 34.2054C183.254 34.2824 183.33 34.3718 183.443 34.3826C183.48 34.3859 183.517 34.3826 183.551 34.3726L183.959 34.2799C184.034 34.2592 184.092 34.198 184.101 34.121C184.104 34.0954 184.101 34.0705 184.094 34.0474L183.188 31.2574C183.152 31.1564 183.049 31.0836 182.929 31.0836H182.577C182.457 31.0836 182.354 31.1564 182.318 31.2574L182.166 31.7217C182.087 31.989 181.842 32.191 181.419 32.1893H180.779C180.538 32.1893 180.337 32.0106 180.337 31.7879V30.0987C180.337 29.8761 180.528 29.699 180.769 29.699H183.532C183.532 29.699 184.278 29.6584 184.789 30.4058L185.048 30.7641C185.108 30.8452 185.187 30.9181 185.3 30.9181H185.812C185.923 30.9181 186.014 30.8345 186.014 30.731C186.014 30.7054 186.008 30.6814 185.998 30.659L185.459 29.2347C185.362 28.9955 185.112 28.7762 184.82 28.7762H176.622C176.509 28.7762 176.421 28.8912 176.421 28.9955V29.4664C176.421 29.5939 176.525 29.699 176.658 29.7163L177.287 29.8057C177.617 29.8513 177.867 30.1136 177.867 30.4289V37.9613C177.867 38.2766 177.617 38.5381 177.287 38.5828L176.658 38.6738C176.525 38.6912 176.421 38.7955 176.421 38.923V39.3947C176.421 39.4982 176.509 39.5884 176.622 39.5884ZM183.946 38.578C186.287 38.5315 187.254 37.9911 187.254 37.9911C188.409 37.4787 188.673 36.661 188.425 36.2687C188.211 35.8574 187.609 35.6455 186.405 36.3043C185.413 36.8465 184.48 37.9021 183.946 38.578ZM8.65243 39.3144C8.06456 39.3573 6.38934 39.4026 5.17542 38.673C3.99935 37.9654 3.87768 37.3389 4.12514 36.9466C4.3395 36.5336 4.94284 36.3225 6.14622 36.9813C7.16733 37.5402 8.1269 38.6426 8.65243 39.3144Z" fill="#BD9542"/>
</svg>
