<svg width="188" height="18" viewBox="0 0 188 18" fill="none" xmlns="http://www.w3.org/2000/svg">
<path fill-rule="evenodd" clip-rule="evenodd" d="M94.9264 0.106373C94.8042 0.123405 94.3934 0.173391 94.0135 0.217526C90.7687 0.594082 87.8951 2.30743 86.1751 4.89104C83.115 9.48769 85.1661 14.8891 90.7933 17.0521C91.5816 17.3552 92.7039 17.634 93.8527 17.812C95.0419 17.9964 98.257 17.9977 99.4849 17.8144C100.899 17.6033 102.362 17.2077 103.79 16.6502L104.212 16.4856L104.234 13.2175C104.256 10.0672 104.263 9.93704 104.414 9.60929C104.677 9.04071 105.296 8.72747 106.157 8.72747C106.588 8.72747 106.59 8.72681 106.59 8.50532C106.59 8.28316 106.59 8.28316 102.443 8.28316C98.2958 8.28316 98.2958 8.28316 98.2958 8.49413C98.2958 8.70511 98.2958 8.70511 99.0335 8.75006C100.267 8.82515 100.865 9.19985 101.031 10.0004C101.084 10.2576 101.105 11.4018 101.092 13.307L101.073 16.2204L100.628 16.4049C99.9169 16.7005 98.6226 17.0019 97.6436 17.1C95.9973 17.2649 94.3803 16.9847 92.9002 16.2781C91.9359 15.8177 91.3635 15.4105 90.705 14.7165C89.2936 13.2288 88.5205 11.374 88.3986 9.18304C88.3164 7.70437 88.584 6.36565 89.2224 5.06188C90.3669 2.72442 92.3065 1.38496 95.0741 1.02085C95.9069 0.911322 97.7731 0.968713 98.4878 1.12578C100.748 1.62267 102.28 2.82224 103.303 4.89526C103.57 5.43696 103.6 5.46917 103.829 5.46917C104.133 5.46917 104.131 5.63127 103.852 2.90903C103.527 -0.251078 103.593 0.0633487 103.25 0.0633487C102.99 0.0633487 102.961 0.082232 102.961 0.250849C102.961 0.575272 102.763 0.935833 102.514 1.06468C102.224 1.21427 102.153 1.20287 100.406 0.726265C99.6732 0.52625 98.7734 0.309276 98.4069 0.244184C97.7735 0.131699 95.415 0.0383189 94.9264 0.106373ZM121.698 7.41304C119.53 11.4554 117.576 15.0349 117.356 15.3675C116.895 16.0644 116.416 16.5826 116.064 16.7646C115.929 16.8344 115.533 16.949 115.184 17.0193C114.559 17.1455 114.55 17.1505 114.527 17.3805C114.504 17.6138 114.504 17.6138 117.878 17.6138C121.252 17.6138 121.252 17.6138 121.252 17.3995C121.252 17.1546 121.149 17.0954 120.724 17.0954C120.125 17.0954 119.402 16.8743 119.096 16.5975C118.578 16.1297 118.669 15.792 119.946 13.4298L120.787 11.8747L124.966 11.8556L129.145 11.8365L129.97 13.4107C130.766 14.9311 131.101 15.7208 131.101 16.0748C131.1 16.3627 130.821 16.7261 130.488 16.8737C130.257 16.9759 129.218 17.1694 128.9 17.1694C128.889 17.1694 128.879 17.2694 128.879 17.3916C128.879 17.6138 128.879 17.6138 133.137 17.6138C137.395 17.6138 137.395 17.6138 137.395 17.3981C137.395 17.2011 137.368 17.1784 137.081 17.1355C135.668 16.9246 135.071 16.5526 134.311 15.408C134.002 14.9417 133.66 14.3001 129.322 6.04308C126.181 0.0633482 126.181 0.0633487 125.911 0.0633487C125.641 0.0633487 125.641 0.0633482 121.698 7.41304ZM27.5758 0.57157C27.5758 0.778991 27.5881 0.785433 28.1497 0.871852C28.8903 0.985819 29.5583 1.30721 29.9283 1.7276C30.2391 2.08061 30.7745 3.10845 35.3584 12.1512C38.2764 17.9076 38.2764 17.9076 38.5361 17.9088C38.7958 17.91 38.7958 17.91 41.5308 12.1894C45.9495 2.94769 46.2252 2.39903 46.7263 1.84845C47.1975 1.33083 47.7467 1.01803 48.4352 0.87511C48.8025 0.798837 48.8288 0.778842 48.8288 0.576457C48.8288 0.359558 48.8288 0.359558 45.7186 0.359558C42.6084 0.359558 42.6084 0.359558 42.6084 0.581715C42.6084 0.703901 42.6265 0.803872 42.6486 0.803872C42.8591 0.803872 43.8832 1.06891 44.1 1.17954C44.4747 1.37067 44.7562 1.7533 44.755 2.06972C44.7544 2.20842 44.6605 2.58853 44.5462 2.91436C44.2723 3.69554 39.4063 13.916 39.3215 13.8886C39.2395 13.862 34.2721 4.10831 33.9022 3.2476C33.5479 2.42303 33.4803 1.75382 33.7208 1.45035C33.9526 1.15777 34.2128 1.04454 34.9471 0.916506C35.3023 0.854524 35.6218 0.803872 35.6572 0.803872C35.6926 0.803872 35.7216 0.703901 35.7216 0.581715C35.7216 0.359558 35.7216 0.359558 31.6487 0.359558C27.5758 0.359558 27.5758 0.359558 27.5758 0.57157ZM58.3816 0.643993C58.3816 0.855412 58.3816 0.855413 59.1406 0.901991C60.1354 0.963085 60.6357 1.11526 60.9827 1.46227C61.4708 1.95035 61.4548 1.69013 61.4548 9.09773C61.4548 15.7808 61.4543 15.8004 61.297 16.1407C60.9922 16.7998 60.399 17.0818 59.1776 17.1483C58.3816 17.1917 58.3816 17.1917 58.3816 17.403C58.3816 17.6144 58.3816 17.6144 66.7244 17.5955L75.0671 17.5767L75.9395 15.3922C76.4193 14.1907 76.8139 13.1529 76.8163 13.086C76.822 12.9268 76.4371 12.8221 76.3565 12.961C75.3744 14.6515 74.6793 15.4215 73.699 15.9048C72.6151 16.4393 72.4114 16.4621 68.7119 16.4642C65.4536 16.4659 65.4536 16.4659 65.1415 16.2872C64.526 15.9346 64.565 16.4274 64.565 8.98666C64.565 2.76789 64.5726 2.37608 64.701 2.04336C65.0015 1.26455 65.8212 0.984634 68.1058 0.880664C68.1391 0.879183 68.1558 0.786322 68.1429 0.67428C68.1195 0.470637 68.1195 0.470637 63.2505 0.451605C58.3816 0.432574 58.3816 0.432574 58.3816 0.643993ZM146.578 0.655767C146.578 0.874074 146.585 0.877998 146.967 0.88022C147.72 0.884663 148.432 1.01803 148.825 1.22849C149.126 1.39007 149.246 1.51144 149.392 1.80358C149.577 2.17384 149.577 2.17384 149.577 9.06071C149.577 15.9476 149.577 15.9476 149.411 16.2591C149.106 16.8296 148.259 17.1646 147.115 17.1679C146.578 17.1694 146.578 17.1694 146.578 17.3916C146.578 17.6138 146.578 17.6138 151.169 17.6138C155.76 17.6138 155.76 17.6138 155.76 17.3916C155.76 17.1694 155.76 17.1694 155.219 17.1694C153.833 17.1694 153.045 16.7904 152.789 16.0008C152.727 15.8112 152.69 14.7746 152.669 12.6708L152.639 9.6161H153.675C154.245 9.6161 154.756 9.59966 154.81 9.57959C154.871 9.55723 156.328 11.1058 158.574 13.5784L162.239 17.6138H165.109C167.979 17.6138 167.979 17.6138 167.979 17.3949C167.979 17.1991 167.95 17.1717 167.701 17.1332C165.709 16.8244 164.967 16.508 163.726 15.4379C163.163 14.9533 158.12 9.38735 158.153 9.28798C158.167 9.24688 158.387 9.17097 158.642 9.11928C160.205 8.80293 161.494 8.17467 162.285 7.34336C163.018 6.57314 163.314 5.86461 163.314 4.87675C163.314 3.64156 162.78 2.67962 161.649 1.87763C159.875 0.62037 158.488 0.437461 150.706 0.434943C146.578 0.43361 146.578 0.43361 146.578 0.655767ZM178.322 0.483003C178.295 0.510106 178.272 0.605338 178.272 0.694571C178.272 0.847193 178.316 0.859782 179.01 0.907545C180.562 1.01448 181.163 1.39363 181.314 2.36134C181.361 2.66451 181.379 5.21858 181.364 9.31989C181.344 14.649 181.322 15.8496 181.236 16.082C180.989 16.7545 180.321 17.0832 179.068 17.1495C178.272 17.1917 178.272 17.1917 178.272 17.4027C178.272 17.6138 178.272 17.6138 182.901 17.6138C187.529 17.6138 187.529 17.6138 187.529 17.3916C187.529 17.1694 187.529 17.1694 187.021 17.1694C186.301 17.1694 185.788 17.0575 185.236 16.7804C184.385 16.3523 184.456 17.0436 184.456 9.17179C184.456 1.57594 184.436 1.87956 184.963 1.42843C185.348 1.09897 185.798 0.968046 186.758 0.905916C187.529 0.856079 187.529 0.856079 187.529 0.644882C187.529 0.43361 187.529 0.43361 182.95 0.43361C180.432 0.43361 178.349 0.455826 178.322 0.483003ZM0.472656 0.712492C0.472656 0.930428 0.472656 0.930428 1.19467 0.974489C2.38254 1.04699 2.82611 1.25315 3.13854 1.87771C3.32367 2.24789 3.32367 2.24789 3.32367 9.06071C3.32367 15.4978 3.31619 15.893 3.18749 16.2265C2.94215 16.8623 2.36758 17.1492 1.19467 17.2214C0.472656 17.2659 0.472656 17.2659 0.472656 17.4768C0.472656 17.6878 0.472656 17.6878 5.45268 17.6868C10.2396 17.6857 12.3572 17.627 13.4176 17.4659C15.7977 17.1041 17.3033 16.1591 18.118 14.5155C18.3985 13.9494 18.4266 13.8392 18.4549 13.1942C18.5083 11.9718 18.1459 11.1042 17.2474 10.3034C16.6215 9.74547 15.5054 9.24873 14.2912 8.98754C14.0361 8.93267 14.1018 8.85284 14.5056 8.72733C15.0953 8.54405 15.9832 8.02449 16.445 7.59255C17.2971 6.79545 17.7027 5.64926 17.5174 4.56195C17.162 2.4762 15.3199 1.1514 12.1189 0.679316C11.4659 0.583048 10.3375 0.555575 5.89699 0.528175C0.472656 0.49463 0.472656 0.49463 0.472656 0.712492ZM10.4983 1.47923C12.2075 1.70228 13.6155 2.55758 14.2094 3.73338C14.4161 4.14267 14.4315 4.22983 14.4315 4.98783C14.4315 5.74679 14.4158 5.83528 14.2012 6.28375C13.4085 7.94022 11.7178 8.53723 8.21113 8.39868C7.47801 8.36973 6.72823 8.32359 6.54495 8.29612L6.21171 8.24613V4.9508V1.65547L6.58197 1.56024C7.38685 1.35319 9.2389 1.31483 10.4983 1.47923ZM156.76 1.58016C157.507 1.77685 158.248 2.17125 158.725 2.62645C159.52 3.38489 159.797 4.08432 159.744 5.20214C159.703 6.07729 159.474 6.58351 158.833 7.21569C157.767 8.26664 156.408 8.70378 153.965 8.78116L152.65 8.82278V5.22894V1.63511L153.409 1.54876C153.827 1.5013 154.235 1.44976 154.316 1.43428C154.652 1.3703 156.347 1.47153 156.76 1.58016ZM126.886 7.46436C127.86 9.313 128.657 10.8534 128.657 10.8873C128.657 10.9213 127.008 10.949 124.992 10.949C122.976 10.949 121.326 10.9275 121.326 10.9011C121.326 10.7837 124.998 4.06684 125.053 4.08395C125.087 4.09454 125.912 5.61572 126.886 7.46436ZM10.9098 9.44089C13.1049 9.80708 14.4063 10.7075 14.9147 12.2119C15.1463 12.8973 15.1003 13.8427 14.8053 14.4582C14.5432 15.005 13.8929 15.6631 13.2734 16.0088C11.9431 16.7511 9.72239 16.9708 7.21142 16.6083C6.78377 16.5466 6.37559 16.4788 6.30428 16.4575C6.1832 16.4215 6.17469 16.1876 6.17469 12.9065C6.17469 10.9746 6.19972 9.38957 6.23023 9.38417C6.26074 9.37884 6.66899 9.349 7.13737 9.31789C8.29088 9.24132 10.059 9.29893 10.9098 9.44089Z" fill="#BD9542"/>
</svg>
