<svg width="128" height="24" viewBox="0 0 128 24" fill="none" xmlns="http://www.w3.org/2000/svg">
<path d="M41.4767 20.3696H34.3056V5.03882C34.3056 5.03882 18.2598 17.4674 17.9654 17.6777C17.671 17.4885 2.46637 5.20705 2.46637 5.20705V20.3696H0.910156V3.65084H11.4461C11.5723 3.73496 22.3606 12.5044 22.3606 12.5044L33.927 3.65084H41.4767M87.8055 18.8344V11.2426H81.076C78.8047 11.2426 76.4494 11.9366 76.4494 15.028C76.4494 16.6473 77.4799 18.8134 81.097 18.8134M87.7635 3.62981V5.12293H81.1601C78.8468 5.12293 77.1013 5.60662 77.1434 7.64651C77.1644 9.16066 78.258 10.0229 81.076 10.0229H91.0231V11.2426H89.1725V20.3485H76.3863C72.5168 20.3485 69.5726 19.0237 69.5726 15.028C69.5726 12.904 70.519 11.0533 73.0846 10.5697C71.2971 10.0229 70.4138 9.30787 70.4138 7.24695C70.4138 4.84955 72.6851 3.60878 76.4494 3.60878H87.7635V3.62981ZM95.6286 23.6713H102.8V11.4319H120.759V9.87568H102.8V1.90536H127.089V0.349156H95.6286M43.1591 11.4319H52.1389C54.1157 11.4319 55.6509 11.9366 56.6603 12.9671C57.9221 14.2289 58.1114 15.6799 58.1114 16.6052C58.1114 19.2971 56.1976 22.094 51.9286 22.094H34.2635V23.6502H57.0388C61.2238 23.524 65.0723 20.8112 65.0723 16.5842C65.0723 13.0091 62.2963 11.4319 59.6255 10.7169C58.9736 10.5486 58.4478 10.5276 58.4478 10.5276C58.4478 10.5276 59.1418 10.5486 59.8148 10.2542C61.9388 9.28684 62.9903 7.47828 62.9903 5.77486C62.9903 2.03155 58.7843 0.328125 56.3449 0.328125H34.2635V1.88434H51.0453C54.347 1.88434 56.2187 3.23024 56.2187 6.00618C56.2187 7.56239 55.2303 9.72847 51.5501 9.85465H43.1171" fill="#BD9542"/>
</svg>
