<svg width="144" height="56" viewBox="0 0 144 56" fill="none" xmlns="http://www.w3.org/2000/svg">
<path fill-rule="evenodd" clip-rule="evenodd" d="M86.8399 16.4302C86.8399 25.7523 92.3356 32.4837 101.874 32.4837C107.327 32.4837 111.197 29.893 113.527 25.3621L112.736 24.9176C110.459 28.5272 107.554 30.37 102.893 30.37C95.9452 30.37 92.3356 24.5599 92.3356 16.4302C92.3356 11.2055 93.7447 7.42244 95.9886 5.13527C97.7446 3.33589 99.9884 2.50124 102.406 2.50124C107.012 2.50124 110.936 5.13528 112.118 10.5009H113.039L112.692 1.13544H111.901C111.76 2.44704 111.283 2.80475 110.579 2.80475C109.891 2.80475 109.266 2.51959 108.479 2.16093C107.147 1.55317 105.352 0.734375 102.005 0.734375C90.2219 0.734375 86.8399 10.8044 86.8399 16.4302ZM73.8215 32.0501L83.6314 5.49298C84.6828 2.67467 85.9185 1.9701 88.249 1.84002V1.04872H78.4392V1.84002C80.6396 1.9701 81.561 2.44704 81.561 3.6394C81.561 4.12719 81.3442 5.35207 80.5962 7.37908L74.938 22.8147L68.9545 5.53634C68.6401 4.70169 68.4667 3.95375 68.4667 3.46597C68.4667 2.76139 68.781 1.88338 71.4151 1.84002V1.04872H60.0226V1.84002C61.9954 1.9701 62.8301 2.5446 63.3612 4.04047L65.0305 8.96167L59.0904 23.4218L53.1069 6.05664C52.7925 5.22199 52.489 4.25726 52.489 3.72612C52.489 2.71803 53.1069 1.9701 55.3507 1.84002V1.04872H43.9257V1.85086C46.1587 1.98094 46.8633 2.81559 47.4378 4.44154L56.9766 32.0501H57.7679L66.082 12.0835L73.0302 32.0501H73.8215ZM30.5604 31.042V31.8225H42.1263V31.0312C39.7416 30.9011 38.6468 30.37 38.6468 28.3972V4.47405C38.6468 2.50124 39.7416 1.92674 41.8553 1.84002V1.04872H30.7772V1.85086C32.9343 1.93758 34.0291 2.50124 34.0291 4.48489V28.408C34.0291 30.3808 32.9343 30.912 30.5604 31.042ZM7.59118 52.4612C7.59118 54.1956 6.21455 55.2362 4.26341 55.2362C2.84341 55.2362 1.4993 54.7484 0.382812 53.7511L1.36922 52.5804C2.25807 53.3501 3.15776 53.7945 4.30677 53.7945C5.31485 53.7945 5.95439 53.3175 5.95439 52.6238V52.5913C5.95439 51.9301 5.58585 51.5724 3.8515 51.1713C1.86784 50.6943 0.751361 50.109 0.751361 48.3963V48.3747C0.751361 46.7812 2.0738 45.6756 3.92738 45.6756C5.28234 45.6756 6.3663 46.0875 7.30935 46.8463L6.43134 48.082C5.59669 47.4533 4.76203 47.1173 3.9057 47.1173C2.95181 47.1173 2.38815 47.6159 2.38815 48.2229V48.2446C2.38815 48.96 2.81089 49.2852 4.61028 49.7079C6.58309 50.1957 7.59118 50.9003 7.59118 52.4395V52.4612ZM20.0243 53.621C19.0487 54.6291 17.9864 55.2687 16.2412 55.2687C13.5313 55.2687 11.5043 53.1441 11.5151 50.4667V50.445C11.5151 47.8002 13.4988 45.6322 16.3171 45.6322C18.0298 45.6322 19.0704 46.2392 19.9592 47.0847L18.9078 48.2988C18.1598 47.605 17.3577 47.1389 16.2954 47.1389C14.5286 47.1389 13.2278 48.6023 13.2278 50.4234V50.4559C13.2278 52.2769 14.5177 53.7511 16.2954 53.7511C17.4444 53.7511 18.1707 53.3067 18.9728 52.5588L20.0243 53.621ZM26.1378 55.1061H24.501V45.7948H26.1378V49.6646H30.5821V45.7948H32.2189V55.1061H30.5821V51.1821H26.1378V55.1061ZM38.2782 55.1061H36.5981L40.6955 45.7298H42.213L46.3104 55.1061H44.5761L43.633 52.8623H39.2321L38.2782 55.1061ZM41.4217 47.6809L39.8283 51.4098H43.026L41.4217 47.6809ZM52.2397 55.1061H50.6029V45.7948H57.5295V47.2799H52.2397V49.8163H56.9333V51.3122H52.2397V55.1061ZM63.8923 55.1061H62.2664V45.7948H69.1929V47.2799H63.8923V49.8163H68.5859V51.3122H63.8923V55.1061ZM75.339 55.1061H73.7022V45.7948H75.339V49.6646H79.7833V45.7948H81.4201V55.1061H79.7833V51.1821H75.339V55.1061ZM87.8371 55.1061H86.157L90.2544 45.7298H91.7719L95.8693 55.1061H94.135L93.1919 52.8623H88.791L87.8371 55.1061ZM90.9806 47.6809L89.3872 51.4098H92.5849L90.9806 47.6809ZM107.273 51.0737C107.273 53.8487 105.701 55.247 103.273 55.247C100.856 55.247 99.3055 53.8487 99.3055 51.1604V45.7948H100.942V51.0954C100.942 52.8189 101.831 53.7403 103.294 53.7403C104.747 53.7403 105.636 52.8731 105.636 51.1604V45.7948H107.273V51.0737ZM118.773 52.4612C118.773 54.1956 117.397 55.2362 115.446 55.2362C114.026 55.2362 112.682 54.7484 111.565 53.7511L112.552 52.5804C113.44 53.3501 114.351 53.7945 115.489 53.7945C116.497 53.7945 117.137 53.3175 117.137 52.6238V52.5913C117.137 51.9301 116.768 51.5724 115.034 51.1713C113.05 50.6943 111.934 50.109 111.934 48.3963V48.3747C111.934 46.7812 113.256 45.6756 115.11 45.6756C116.475 45.6756 117.549 46.0875 118.492 46.8463L117.614 48.082C116.779 47.4533 115.944 47.1173 115.088 47.1173C114.123 47.1173 113.57 47.6159 113.57 48.2229V48.2446C113.57 48.96 113.993 49.2852 115.793 49.7079C117.765 50.1957 118.773 50.9003 118.773 52.4395V52.4612ZM130.437 55.1061H123.467V45.7948H130.372V47.2582H125.104V49.6754H129.776V51.1388H125.104V53.6427H130.437V55.1061ZM137.114 55.1061H135.51V45.7948H137.027L142.014 52.2336V45.7948H143.618V55.1061H142.252L137.114 48.4831V55.1061Z" fill="#BD9542"/>
</svg>
