<svg width="188" height="36" viewBox="0 0 188 36" fill="none" xmlns="http://www.w3.org/2000/svg">
<path fill-rule="evenodd" clip-rule="evenodd" d="M100.243 0.272089C100.177 0.446017 100.186 0.492826 100.298 0.555115C100.636 0.744447 101.206 1.37982 101.676 2.09071C101.959 2.51865 102.19 2.90561 102.189 2.95063C102.189 2.99572 101.945 3.16464 101.647 3.32608C99.0882 4.71302 97.1544 6.37752 96.9931 7.33218C96.9264 7.72707 97.124 8.3848 97.4058 8.70574C97.8497 9.21137 98.9517 9.53799 100.021 9.48101C101.267 9.41476 102.473 8.92543 104.192 7.78929C104.697 7.45564 105.138 7.18263 105.172 7.18263C105.207 7.18263 105.691 7.61626 106.248 8.14634C107.174 9.02742 107.305 9.12493 107.773 9.28405C108.345 9.47892 109.389 9.52079 109.766 9.36406C109.976 9.2765 109.976 9.2765 109.729 8.93223C109.487 8.59492 109.475 8.58879 109.145 8.62655C108.081 8.74814 106.998 8.14784 106.075 6.92481L105.746 6.48894L106.08 6.19761C106.875 5.50549 107.434 5.22366 108.183 5.13782C108.761 5.07157 108.898 5.19046 108.984 5.83144C109.067 6.45275 109.275 6.6592 109.819 6.6592C110.123 6.6592 110.231 6.61927 110.45 6.4271C110.676 6.22872 110.714 6.14819 110.714 5.87211C110.714 5.62259 110.659 5.47722 110.471 5.23256C110.136 4.7949 109.931 4.66299 109.369 4.52069C108.286 4.24672 107.04 4.61484 105.754 5.58924C105.514 5.77102 105.291 5.90943 105.257 5.89686C105.123 5.84654 103.968 4.35462 103.795 4.0087C103.556 3.52969 103.561 3.33976 103.816 3.1591C104.313 2.80826 105.497 2.29268 106.873 1.82854C107.69 1.553 108.39 1.29973 108.428 1.26578C108.469 1.22914 108.442 1.1427 108.361 1.05282C108.245 0.924731 108.131 0.901401 107.618 0.901102C106.629 0.900429 104.245 0.760149 103.162 0.638788C102.266 0.53829 100.809 0.256909 100.452 0.115284C100.355 0.0767744 100.303 0.116331 100.243 0.272089ZM84.4681 0.494247C83.4703 0.632208 81.5896 0.737044 78.3739 0.834028C76.8522 0.87994 75.3548 0.939162 75.0464 0.965558C74.5461 1.00848 74.4831 1.03114 74.4625 1.17545C74.4351 1.36793 74.4944 1.39118 75.3746 1.53363C76.0512 1.64318 76.4802 1.84447 76.6315 2.12324C76.6898 2.23084 76.7484 3.29691 76.8067 5.31324C76.8943 8.34166 76.8943 8.34166 76.7131 8.58625C76.45 8.94136 76.245 9.05001 75.6706 9.13877C75.087 9.22894 74.8969 9.30933 74.8969 9.46591C74.8969 9.55534 75.0445 9.57545 75.7007 9.5753C76.7733 9.57508 79.3139 9.46217 83.3091 9.23732C85.1187 9.13547 86.6076 9.0521 86.6179 9.0521C86.7054 9.0518 86.4595 5.72129 86.3644 5.61713C86.348 5.59918 86.2453 5.61601 86.1362 5.65452C85.9717 5.71262 85.9235 5.7945 85.8534 6.13577C85.744 6.6675 85.5794 6.97064 85.1518 7.4279C84.6223 7.99417 84.2891 8.17962 83.2717 8.47416C81.5637 8.96873 80.6695 9.01808 79.7952 8.66611C79.3953 8.50512 79.352 8.46436 79.2522 8.15472C79.1852 7.94677 79.1292 7.3594 79.1056 6.61688C79.0599 5.17947 79.0646 5.16945 79.7813 5.15322C80.9324 5.1272 81.356 5.22276 81.788 5.60621C82.0703 5.85671 82.1017 5.92289 82.1786 6.42934C82.27 7.03129 82.3743 7.16162 82.6993 7.08004C82.8972 7.03039 82.8979 7.02792 82.8971 6.3026C82.8964 5.60591 82.8012 3.9272 82.7064 2.93911C82.6687 2.54579 82.6391 2.47176 82.5197 2.47176C82.3132 2.47176 82.1695 2.74634 82.1089 3.25691C82.0625 3.64776 82.0183 3.74146 81.765 3.98425C81.3773 4.35611 80.8377 4.5091 79.9321 4.50417C78.8625 4.49841 78.9347 4.57685 78.9352 3.42014C78.9358 1.84971 79.044 1.63166 79.9068 1.46125C82.5094 0.947163 84.7698 1.61334 85.2896 3.04754C85.3819 3.30245 85.5179 3.56581 85.5918 3.63266C85.7621 3.7867 86.1675 3.75619 86.1132 3.5934C86.0926 3.53171 86.0867 2.92603 86.0998 2.24744C86.1273 0.836869 86.0843 0.645144 85.7048 0.48662C85.4082 0.362642 85.4201 0.362567 84.4681 0.494247ZM103.573 1.34931C104.889 1.45257 105.281 1.50559 105.207 1.56982C105.172 1.59958 104.773 1.78742 104.321 1.98722C103.319 2.42952 102.793 2.50354 102.468 2.24766C102.233 2.06199 101.966 1.58373 101.966 1.34856C101.966 1.20716 101.998 1.19549 102.283 1.23221C102.458 1.25457 103.039 1.30728 103.573 1.34931ZM69.6011 1.91095C69.2591 2.34891 69.1896 2.37366 68.6535 2.24938C68.4892 2.21132 67.9115 2.14021 67.3696 2.09131C65.272 1.9022 63.2755 2.32326 61.8481 3.25571C60.5317 4.11571 59.4254 5.89395 59.4202 7.15848C59.4186 7.54088 59.4622 7.70472 59.6733 8.1097C60.4661 9.63071 61.498 10.3723 63.4935 10.8552C64.3592 11.0647 66.035 11.0836 66.9061 10.8938C68.1521 10.6222 69.2162 10.168 70.0049 9.57104C70.3933 9.2771 70.5216 9.21586 70.6287 9.27321C70.8308 9.38141 71.1895 9.81361 71.3016 10.0842C71.3694 10.248 71.4507 10.3228 71.5597 10.3221C71.9384 10.3193 71.9445 10.2794 71.7679 8.96476C71.6776 8.29305 71.6044 7.46887 71.6052 7.13321C71.6066 6.54569 71.6152 6.51578 71.8344 6.33131C72.0644 6.13779 72.2686 6.06698 73.0404 5.91302C73.2737 5.86651 73.505 5.77984 73.5543 5.72039C73.6282 5.63134 73.5967 5.5926 73.3755 5.50018C72.9833 5.33635 72.4028 5.36514 71.6815 5.58423C71.2848 5.70469 70.8339 5.78313 70.4821 5.79285C70.172 5.80145 69.8752 5.83503 69.8226 5.86755C69.7699 5.90016 69.2763 5.95474 68.7257 5.98899C67.9906 6.03475 67.6343 6.09121 67.385 6.2015C67.1982 6.28413 67.0454 6.38246 67.0454 6.42C67.0454 6.45753 67.3873 6.51182 67.805 6.54061C68.2229 6.5694 68.6583 6.64126 68.7726 6.7004C69.2298 6.93685 69.4022 7.45362 69.3266 8.36125C69.2748 8.98263 69.2748 8.98263 68.8958 9.35569C68.4758 9.76912 67.7008 10.1826 67.008 10.363C65.9466 10.6393 64.3237 10.5653 63.7179 10.213C62.7895 9.67311 62.1022 8.53443 61.8889 7.18263C61.593 5.30674 62.1769 3.79043 63.4408 3.15252C64.7199 2.50706 66.3639 2.40192 67.7332 2.8781C68.4848 3.13951 68.9206 3.46165 69.4891 4.17643C69.959 4.76708 70.2627 5.01414 70.5187 5.01414C70.5825 5.01414 70.6346 4.99888 70.6346 4.98019C70.6346 4.9615 70.5499 4.19766 70.4463 3.28263C70.2187 1.27124 70.1667 1.18674 69.6011 1.91095ZM125.333 3.70526C124.331 3.8679 123.771 4.13687 123.262 4.70023C122.963 5.03044 122.789 5.52074 122.864 5.81887C122.948 6.15641 123.395 6.76785 123.872 7.19968C124.453 7.7258 125.22 8.11022 126.672 8.60427C128.217 9.12987 128.98 9.45671 129.553 9.83844C130.224 10.2855 130.288 10.3429 130.378 10.5772C130.638 11.2613 130.172 11.8604 129.148 12.1579C128.655 12.3014 127.231 12.3211 126.567 12.1938C125.887 12.0632 124.988 11.5676 124.346 10.9687C123.547 10.224 123.249 9.73652 123.046 8.84131C122.955 8.44313 122.839 8.03313 122.787 7.93024C122.688 7.73216 122.397 7.43665 122.352 7.48839C122.286 7.56391 121.921 8.77476 121.791 9.35113C121.585 10.2573 121.384 11.5216 121.437 11.5744C121.462 11.5991 121.582 11.6193 121.703 11.6193C121.859 11.6193 122.025 11.5269 122.262 11.3078C122.448 11.1364 122.661 10.9962 122.734 10.9962C122.807 10.9962 123.045 11.1159 123.262 11.2622C124.255 11.9303 125.723 12.531 126.938 12.7657C127.74 12.9207 129.116 12.9218 129.829 12.768C130.479 12.6279 131.437 12.238 131.723 11.9971C132.004 11.7608 132.239 11.2427 132.314 10.6945C132.372 10.2674 132.364 10.2312 132.133 9.88876C131.798 9.39113 131.136 8.80474 130.463 8.41038C130.15 8.22717 129.238 7.82077 128.436 7.50723C125.811 6.48071 124.697 5.82388 124.697 5.3012C124.697 5.04263 125.049 4.62994 125.427 4.44517C125.821 4.2527 127.51 4.2512 128.212 4.44278C129.091 4.68273 129.766 5.0688 130.386 5.68615C130.915 6.21272 130.961 6.2848 131.083 6.77249C131.154 7.05978 131.247 7.42506 131.288 7.58433C131.369 7.89465 131.65 8.22949 131.829 8.22949C131.97 8.22949 132.127 7.74577 132.327 6.69659C132.414 6.2442 132.528 5.64584 132.582 5.367C132.673 4.89682 132.67 4.85464 132.545 4.78749C132.355 4.68587 132.37 4.67914 131.951 5.05153C131.742 5.2366 131.546 5.38802 131.514 5.38802C131.482 5.38802 131.296 5.28587 131.099 5.161C129.962 4.44038 128.524 3.88375 127.337 3.70474C126.474 3.57463 126.138 3.57471 125.333 3.70526ZM56.3525 3.81436C56.0029 3.88899 55.2458 4.08647 54.67 4.2533C54.0942 4.42012 53.3708 4.6025 53.0623 4.65865C52.7539 4.71489 52.5015 4.79258 52.5015 4.83139C52.5015 4.87019 52.6193 4.96187 52.7632 5.03515C52.9737 5.14215 53.1744 5.16414 53.7882 5.14731C54.5514 5.1263 54.5514 5.1263 54.8889 5.45748C55.534 6.09061 55.9426 7.12304 56.1634 8.67815C56.2959 9.61105 56.3055 9.94933 56.1994 9.94933C56.1169 9.94933 51.4736 7.47994 49.4282 6.34829L48.2243 5.68211L46.3437 6.1508C45.3094 6.40848 44.4631 6.64687 44.4631 6.68051C44.4631 6.81982 45.0111 6.95831 45.5637 6.95875C46.2618 6.9592 46.6657 7.0603 46.898 7.29263C47.1574 7.55202 47.5836 9.06047 48.1613 11.7635C48.4105 12.93 48.4212 13.0322 48.3154 13.2368C48.1387 13.5786 47.7117 13.9536 47.0726 14.3282C46.5365 14.6425 46.4952 14.6835 46.5783 14.8195C46.6345 14.9114 46.7258 14.956 46.8186 14.9368C46.9008 14.9198 48.1038 14.6416 49.4918 14.3186C51.9008 13.758 52.0155 13.7236 52.0155 13.5602C52.0155 13.3936 51.9962 13.389 51.2864 13.3886C50.3213 13.388 50.0368 13.3008 49.6147 12.8758C49.1835 12.4417 49.0087 11.9844 48.7606 10.6412C48.5368 9.42904 48.3889 8.8366 48.2241 8.49098C48.1245 8.28213 48.12 8.21596 48.1989 8.12092C48.2518 8.05728 48.3481 8.00517 48.413 8.00517C48.4778 8.00517 50.493 9.04829 52.891 10.3232C55.2889 11.5981 57.2996 12.6413 57.359 12.6413C57.4185 12.6413 57.551 12.603 57.6536 12.5562C57.8105 12.4848 57.8336 12.4344 57.799 12.2384C57.7402 11.906 57.2297 9.81474 56.8752 8.45382C56.5353 7.14966 56.2467 5.52179 56.3103 5.26838C56.3867 4.96381 56.7388 4.63577 57.2786 4.36636C57.801 4.10554 58.1471 3.85197 58.1471 3.72994C58.1471 3.62084 57.0083 3.67438 56.3525 3.81436ZM103.189 4.26788C103.418 4.51546 103.71 4.86945 103.837 5.05452C104.169 5.53667 104.523 6.32585 104.495 6.51892C104.457 6.77473 102.558 7.73051 101.831 7.85898C100.63 8.07157 99.7646 7.64535 99.6687 6.7944C99.6333 6.48027 99.6537 6.43622 100.08 5.90726C100.327 5.60113 100.743 5.1779 101.004 4.96673C101.467 4.5933 102.628 3.81773 102.724 3.81773C102.751 3.81773 102.96 4.02029 103.189 4.26788ZM140.671 4.34295C140.519 4.47717 140.365 4.70442 140.316 4.8687C140.236 5.13513 140.245 5.17872 140.426 5.41681C140.678 5.74694 141.371 6.09644 141.639 6.02899C141.923 5.95781 142.413 5.46339 142.46 5.20108C142.545 4.72348 142.035 4.28336 141.25 4.15654C140.974 4.11189 140.912 4.13186 140.671 4.34295ZM144.114 5.39138C143.911 5.5517 143.766 5.93919 143.766 6.3284C143.765 6.8756 144.834 7.33129 145.32 6.99076C145.519 6.85138 145.784 6.35793 145.784 6.12717C145.784 5.90315 145.254 5.41389 144.906 5.31735C144.498 5.20407 144.333 5.21955 144.114 5.39138ZM139.054 7.15437C136.489 7.40898 134.871 8.58729 134.561 10.4263C134.241 12.3262 135.738 14.4609 138.236 15.6664C139.21 16.1363 139.843 16.2549 141.41 16.2608C142.868 16.2663 143.34 16.1767 144.326 15.7068C145.426 15.1824 146.189 14.2045 146.386 13.0649C146.481 12.5171 146.445 12.0324 146.26 11.3614C146.003 10.4299 144.196 8.40417 143.204 7.93547C142.077 7.4033 140.168 7.04385 139.054 7.15437ZM142.008 8.10716C143.364 8.5422 144.289 9.53022 144.288 10.5435C144.287 12.0802 143.668 13.8058 142.793 14.7078C141.76 15.7732 140.521 15.9013 138.629 15.1382C137.742 14.781 137.625 14.7118 137.285 14.3421C136.823 13.8415 136.638 13.2851 136.632 12.3795C136.625 11.5068 136.718 11.1759 137.276 10.0803C137.743 9.16441 138.134 8.63425 138.611 8.27024C139.104 7.89442 139.288 7.85591 140.438 7.88807C141.225 7.91005 141.524 7.95185 142.008 8.10716ZM35.516 9.34589C35.3451 9.42344 35.1866 9.54891 35.1637 9.62466C35.1406 9.70041 34.7321 11.4953 34.2559 13.6133C33.7796 15.7314 33.3186 17.6157 33.2314 17.8008C33.1323 18.0112 32.7552 18.4495 32.2251 18.9706C31.7589 19.4289 31.3774 19.8244 31.3774 19.8493C31.3774 19.9413 31.9683 19.8902 32.5117 19.7513C32.8197 19.6725 33.7756 19.3396 34.636 19.0115C35.4965 18.6834 36.3097 18.3919 36.4434 18.3636C36.6322 18.3238 36.6865 18.274 36.6865 18.1405C36.6865 17.8279 36.5372 17.7895 35.9522 17.9516C35.3054 18.1308 34.9596 18.1388 34.6548 17.9811C34.4252 17.8624 34.4252 17.8624 34.4607 16.9904C34.4869 16.3445 34.5376 16.0112 34.6557 15.7052C34.8153 15.292 34.8153 15.292 35.3583 15.1522C35.6569 15.0753 36.2546 14.8779 36.6865 14.7136C37.6982 14.3287 38.5997 14.062 38.889 14.062C39.289 14.062 40.8029 15.2197 41.0715 15.7311C41.2145 16.0032 41.1414 16.0947 40.5419 16.3945C40.0336 16.6487 39.827 16.8078 39.827 16.9447C39.827 17.0658 41.1322 16.7888 42.5156 16.3741C43.9093 15.9563 45.8465 15.177 45.8465 15.0341C45.8465 14.8723 45.4185 14.8507 45.0051 14.9915C44.2404 15.2521 44.5049 15.408 40.1917 12.1561C35.9458 8.95511 36.1312 9.06653 35.516 9.34589ZM149 10.0822C149 10.3094 149.219 10.5424 149.622 10.7442C150.228 11.0479 150.482 11.2708 150.575 11.5827C150.654 11.846 150.639 11.9081 150.365 12.4593C150.202 12.7856 149.941 13.389 149.783 13.8003C148.654 16.7516 148.288 17.4754 147.826 17.6696C147.67 17.7356 147.424 17.8052 147.28 17.8242C147.037 17.8563 146.881 17.8394 146.027 17.6883C145.725 17.6349 145.709 17.6411 145.709 17.8139C145.709 17.9838 145.905 18.0721 148.709 19.1716C151.035 20.0836 151.731 20.3286 151.81 20.2628C151.984 20.1185 151.803 19.9197 151.158 19.5477C150.792 19.3367 150.498 19.1079 150.413 18.9674C150.218 18.6487 150.225 17.948 150.426 17.5017C150.643 17.02 151.563 15.6352 151.667 15.6336C151.737 15.6326 156.311 17.4072 156.385 17.4643C156.396 17.4729 156.249 17.9474 156.058 18.5189C155.356 20.6174 155.05 20.9441 154.045 20.6709C153.799 20.6041 153.523 20.5329 153.431 20.5127C153.232 20.4687 152.888 20.5447 152.888 20.6326C152.888 20.7556 157.308 22.5325 158.122 22.7369C158.472 22.8247 158.817 22.913 158.889 22.9334C159.076 22.9863 159.054 22.7938 158.851 22.6057C158.759 22.5196 158.455 22.3409 158.176 22.2083C157.712 21.9878 157.3 21.6339 157.3 21.4566C157.3 21.4172 157.382 21.2232 157.482 21.0254C157.582 20.8276 157.872 20.1642 158.125 19.5511C158.819 17.8754 159.414 16.6667 159.93 15.8863C160.474 15.0635 160.593 15.0082 161.305 15.2461C162.049 15.4947 162.235 15.4848 162.235 15.1964C162.235 14.9873 162.203 14.9727 159.487 13.9236C157.476 13.147 156.654 12.8627 156.421 12.8639C156.246 12.8648 156.103 12.8934 156.103 12.9273C156.103 13.0431 156.439 13.2976 156.888 13.5226C157.563 13.8604 157.748 14.0615 157.748 14.458C157.748 14.6386 157.682 14.9786 157.601 15.2135C157.423 15.7316 156.782 16.8287 156.658 16.8287C156.492 16.8287 155.306 16.4633 154.711 16.2291C154.387 16.1014 153.591 15.7572 152.941 15.464C152.001 15.0392 151.772 14.9074 151.813 14.8143C151.841 14.7502 151.979 14.3779 152.118 13.9872C152.439 13.0901 152.67 12.6957 152.99 12.4982C153.304 12.3036 153.534 12.3024 154.196 12.4917C154.484 12.574 154.829 12.6413 154.963 12.6413C155.165 12.6413 155.206 12.6132 155.205 12.473C155.204 12.3208 154.914 12.1926 152.158 11.1257C150.482 10.4772 149.086 9.94716 149.056 9.94799C149.025 9.94873 149 10.0092 149 10.0822ZM36.8963 12.4917C37.5606 12.9647 38.1049 13.3787 38.1057 13.4118C38.1095 13.565 35.7139 14.4328 35.2819 14.4348C35.0362 14.4359 35.0362 14.4359 35.0843 14.0433C35.1108 13.8274 35.2298 13.2051 35.3486 12.6605C35.4675 12.1159 35.5648 11.6504 35.5648 11.6261C35.5648 11.5497 35.6595 11.6112 36.8963 12.4917ZM19.5254 15.4821C17.0446 16.5254 16.5303 16.7666 16.5105 16.8964C16.4903 17.029 16.5251 17.053 16.7374 17.053C16.8754 17.053 17.1797 16.9857 17.4138 16.9035C17.9252 16.7237 18.5145 16.7106 18.8268 16.8721C19.0084 16.9661 19.1402 17.1699 19.4671 17.8629C20.177 19.3678 20.7628 20.7887 21.1498 21.9443C21.6031 23.298 21.5929 23.3518 20.7958 23.8179C20.1725 24.1824 20.0862 24.2662 20.0862 24.5073C20.0862 24.6531 20.1168 24.6887 20.2171 24.6597C20.289 24.6388 21.7108 24.0517 23.3764 23.355C25.042 22.6584 27.347 21.7065 28.4985 21.2398C29.6501 20.7731 30.6036 20.3831 30.6176 20.3731C30.6453 20.3531 30.1852 19.2767 29.5979 17.9877C29.2324 17.1854 29.2168 17.1646 28.9621 17.1425C28.7011 17.1197 28.7011 17.1197 28.6689 18.0398C28.6327 19.0748 28.524 19.4728 28.1043 20.1063C27.8042 20.5594 27.5245 20.7804 26.517 21.3603C25.4667 21.965 25.1821 22.082 24.6687 22.1202C24.2696 22.15 24.1585 22.1283 23.8836 21.9668C23.5633 21.7787 23.5633 21.7787 22.3856 18.9365C21.7378 17.3732 21.2079 16.0289 21.2079 15.9491C21.2079 15.8692 21.2848 15.6898 21.3788 15.5503C21.5296 15.3265 21.7902 15.1478 22.7073 14.6394C22.94 14.5104 22.9431 14.5021 22.8137 14.359C22.7403 14.2779 22.6434 14.2145 22.5983 14.218C22.5533 14.2215 21.1705 14.7904 19.5254 15.4821ZM163.895 15.8716C163.763 16.0032 163.785 16.1398 163.953 16.2294C164.304 16.4175 165.012 17.0809 165.196 17.395C165.375 17.7016 165.387 17.7653 165.312 18.0152C165.083 18.7814 164.112 20.5246 162.892 22.3605C162.168 23.4511 162.123 23.4764 161.151 23.342C160.822 23.2964 160.409 23.2593 160.235 23.2593C159.963 23.2594 159.917 23.2819 159.917 23.4145C159.917 23.5427 160.217 23.7155 161.655 24.4138C163.589 25.3529 164.585 25.8018 164.734 25.8018C164.789 25.8018 164.873 25.7541 164.922 25.6959C164.993 25.6101 164.948 25.5481 164.687 25.3684C163.855 24.7961 163.431 24.1907 163.431 23.5759C163.431 23.2643 163.503 23.0882 163.945 22.3204C165.101 20.3123 165.731 19.2652 165.796 19.2435C165.892 19.2113 168.745 26.3545 169.26 27.9179C169.428 28.4263 169.428 28.4263 169.813 28.4039C170.197 28.3815 170.197 28.3815 171.456 26.0635C172.149 24.7886 172.835 23.5151 172.982 23.2335C173.502 22.2353 173.78 22.0391 174.685 22.031C175.014 22.028 175.544 22.0537 175.863 22.088C176.438 22.1501 176.442 22.1493 176.441 21.9759C176.439 21.8204 176.165 21.6714 173.937 20.6149C172.52 19.9427 171.386 19.4475 171.322 19.4722C171.259 19.4962 171.208 19.5768 171.208 19.6512C171.208 19.8744 171.411 20.0953 171.84 20.3413C172.064 20.4693 172.337 20.6811 172.447 20.8121C172.636 21.0362 172.645 21.0832 172.608 21.6127C172.552 22.3911 172.201 23.3153 171.632 24.1766C171.127 24.9408 170.615 25.5718 170.498 25.5738C170.456 25.5745 169.752 23.729 168.932 21.4728L167.441 17.3706L165.748 16.5762C164.817 16.1393 164.04 15.7818 164.02 15.7818C164.001 15.7818 163.944 15.8222 163.895 15.8716ZM177.299 22.5677C177.329 22.6873 177.598 23.008 177.943 23.3342C178.432 23.7958 178.537 23.9352 178.536 24.1221C178.536 24.5011 175.414 29.5865 175.007 29.8716C174.731 30.065 174.117 30.0211 173.469 29.7619C172.865 29.5198 172.703 29.5198 172.703 29.7616C172.703 29.9378 172.901 30.0695 174.162 30.7332C174.655 30.993 176.573 32.0705 178.424 33.1276C180.275 34.1847 182.016 35.1744 182.293 35.3269L182.797 35.604L183.125 35.0959C184.803 32.4964 184.757 32.5774 184.619 32.4769C184.398 32.3154 184.226 32.3695 183.855 32.7168C182.972 33.542 181.713 33.764 180.332 33.3376C179.219 32.9942 177.477 31.9525 177.298 31.5234C177.069 30.9744 177.232 30.4811 177.945 29.5756C178.235 29.2068 178.528 28.8124 178.595 28.6993C178.663 28.5863 178.779 28.4937 178.854 28.4937C179.116 28.4937 179.567 28.7896 180.169 29.3556C180.891 30.0354 180.949 30.1982 180.712 30.8983C180.484 31.5753 180.499 31.754 180.791 31.8124C180.921 31.8384 181.033 31.851 181.04 31.8404C181.048 31.8299 181.206 31.6025 181.393 31.3352C181.843 30.6913 182.785 29.1157 183.127 28.4359C183.4 27.8921 183.4 27.8921 183.23 27.8278C183.006 27.7432 182.853 27.831 182.597 28.193C182.285 28.6353 181.994 28.7474 181.3 28.6939C180.643 28.6432 180.033 28.4373 179.591 28.1169C179.313 27.9161 179.284 27.8635 179.284 27.5732C179.284 27.1361 179.556 26.6201 180.11 26.0074C180.567 25.5027 180.567 25.5027 180.996 25.5027C181.783 25.5027 182.579 25.831 183.509 26.5388C184.249 27.1029 184.822 27.6863 185.024 28.0824C185.26 28.5453 185.324 29.3073 185.195 30.1093C185.144 30.4201 185.115 30.6843 185.128 30.6964C185.142 30.7085 185.226 30.7406 185.314 30.7676C185.453 30.8103 185.557 30.7004 186.083 29.9587C186.718 29.0648 187.21 28.2862 187.21 28.1774C187.21 28.0421 184.064 26.0648 181.976 24.8876C180.812 24.2316 177.344 22.3621 177.291 22.3621C177.268 22.3621 177.271 22.4547 177.299 22.5677ZM2.057 24.1518C1.86595 24.2718 1.69135 24.4462 1.6654 24.5429C1.59257 24.815 1.60573 26.1776 1.70264 28.3903C1.80247 30.6695 1.73629 31.9659 1.46037 33.1415C1.30596 33.799 1.28584 33.8358 0.796808 34.3534C0.51939 34.6468 0.253862 34.9605 0.206753 35.0503C0.10775 35.2392 0.0928695 35.5226 0.182002 35.5226C0.215502 35.5226 0.947406 35.1314 1.80837 34.6533C3.4346 33.7501 5.05633 32.7275 5.05633 32.6051C5.05633 32.427 4.67243 32.4558 4.12463 32.6752C3.39212 32.9685 3.12891 32.9718 2.86017 32.6913C2.49938 32.3147 2.37286 31.6365 2.48666 30.6893C2.52921 30.3351 2.55665 30.292 2.84118 30.1332C3.01077 30.0386 3.53652 29.7102 4.00947 29.4034C5.56451 28.3946 6.35765 28.1049 7.13697 28.2614C7.61493 28.3574 8.1525 28.6801 8.52944 29.0974C8.89128 29.4979 8.88051 29.7128 8.48158 30.056C7.92017 30.5388 7.74826 30.7234 7.74826 30.8434C7.74826 30.9092 7.81077 30.9613 7.88958 30.9613C8.14487 30.9613 9.8499 30.0398 11.5244 28.9968C12.4292 28.4332 13.2189 27.9434 13.2794 27.9084C13.3742 27.8534 13.3708 27.8165 13.2544 27.6387C13.1194 27.4327 13.1194 27.4327 12.9575 27.5847C12.6755 27.8494 12.1505 28.0417 11.7048 28.0434C11.3121 28.045 11.0246 27.9214 6.92169 25.9887C4.52071 24.8577 2.52151 23.9331 2.47904 23.9338C2.43656 23.9346 2.24663 24.0327 2.057 24.1518ZM14.5208 25.5302C14.2835 25.754 14.2537 25.8238 14.2537 26.1575C14.2537 26.6741 14.3987 26.8308 14.9749 26.937C15.4143 27.0179 15.4493 27.0128 15.7783 26.8201C16.3537 26.4829 16.5375 25.8354 16.1639 25.4619C15.9998 25.2977 15.9175 25.2783 15.3841 25.2783C14.8098 25.2783 14.778 25.2876 14.5208 25.5302ZM3.47258 26.742C4.73539 27.1975 5.31087 27.5114 5.34078 27.7611C5.36172 27.9358 5.25404 28.0111 3.97291 28.7176C3.20818 29.1393 2.57146 29.4718 2.55808 29.4564C2.51837 29.4106 2.4501 26.4 2.48883 26.4C2.50835 26.4 2.9511 26.5539 3.47258 26.742ZM119.071 27.8696C118.862 27.8956 118.79 27.9394 118.79 28.0406C118.79 28.1531 118.866 28.1821 119.23 28.2084C119.471 28.2259 119.757 28.298 119.865 28.3687C120.061 28.4971 120.061 28.4971 120.061 30.3274C120.061 32.058 120.053 32.1659 119.912 32.3073C119.829 32.3903 119.654 32.4601 119.519 32.4643C119.18 32.4747 118.919 32.5567 118.883 32.6645C118.848 32.7687 120.139 32.7913 121.324 32.7071C122.004 32.6589 122.01 32.657 121.818 32.5309C121.389 32.2495 121.371 32.1721 121.361 30.55C121.355 29.7275 121.343 28.9768 121.334 28.8819C121.31 28.637 121.525 28.4343 121.937 28.3118C122.43 28.1654 122.636 28.047 122.548 27.9597C122.473 27.8847 119.556 27.8091 119.071 27.8696ZM83.6746 28.7157C83.4673 28.8006 83.197 29.1489 83.197 29.3313C83.197 29.6985 83.5778 29.9892 84.0589 29.9892C84.4553 29.9892 84.785 29.6452 84.7531 29.265C84.7349 29.0467 84.6817 28.9598 84.5055 28.86C84.2127 28.694 83.872 28.6349 83.6746 28.7157ZM86.1431 28.75C85.8771 28.8659 85.8141 28.9886 85.8141 29.3917C85.8141 29.9946 86.5994 30.2143 87.1201 29.7571C87.2654 29.6295 87.3844 29.4638 87.3844 29.389C87.3844 29.1695 87.0234 28.8034 86.7253 28.7206C86.3922 28.6281 86.4272 28.6264 86.1431 28.75ZM41.0816 30.1269C40.1745 30.4614 39.5293 31.0403 39.1203 31.8867C38.7948 32.5601 38.7668 32.8492 38.9848 33.2866C39.2506 33.82 39.8925 34.4849 40.406 34.7586C41.0123 35.0817 41.9386 35.3259 42.3662 35.2753C42.5536 35.253 43.0263 35.1276 43.4168 34.9965C44.3086 34.6971 44.8132 34.6738 45.142 34.9169C45.4672 35.1574 45.5074 35.0634 45.5089 34.0601C45.5096 33.5016 45.5415 33.1901 45.6071 33.1003C45.6722 33.0113 45.8569 32.9495 46.1665 32.9129C46.6907 32.8512 46.7673 32.8073 46.6331 32.6455C46.5675 32.5664 46.3986 32.5312 46.0804 32.5305C45.8283 32.5299 45.538 32.4867 45.4352 32.4344C45.2507 32.3407 45.2486 32.3292 45.2754 31.5456C45.2961 30.942 45.2723 30.6604 45.176 30.3705C45.1063 30.1608 45.0284 29.9892 45.0028 29.9892C44.9772 29.9892 44.8492 30.093 44.7183 30.2198C44.4804 30.4504 44.4804 30.4504 43.668 30.2112C42.5071 29.8695 41.8386 29.8477 41.0816 30.1269ZM126.327 31.0922C125.304 32.4629 123.202 35.6365 123.202 35.8105C123.202 35.8581 123.31 35.8955 123.445 35.8943C123.668 35.8924 123.741 35.8202 124.33 35.0157C125.435 33.5077 127.464 30.3968 127.464 30.2115C127.464 30.1715 127.368 30.1388 127.251 30.1388C127.065 30.1388 126.947 30.2603 126.327 31.0922ZM47.9164 30.2692C47.2762 30.2995 47.204 30.4523 47.801 30.5134C48.2868 30.5631 48.556 30.7479 48.7362 31.1554C48.871 31.4602 48.8793 31.6059 48.8404 32.995C48.7908 34.766 48.7873 34.7749 48.148 34.7749C47.7052 34.7749 47.4542 34.87 47.4542 35.0378C47.4542 35.0972 47.5467 35.1713 47.6598 35.2024C47.9368 35.2785 53.5469 35.2754 53.9129 35.199C54.2026 35.1385 54.2026 35.1385 54.1486 34.1528C54.1189 33.6108 54.0794 33.1516 54.061 33.1324C53.9827 33.0517 53.7613 33.275 53.6098 33.5874C53.1281 34.5806 52.3771 34.8885 50.8307 34.7269C50.3829 34.6801 50.3695 34.6723 50.2878 34.4091C50.2417 34.2607 50.1871 33.4748 50.1664 32.6627C50.1336 31.381 50.1447 31.1614 50.2506 30.9998C50.4073 30.7608 50.8757 30.5225 51.3049 30.4637C52.5426 30.2941 50.2141 30.1604 47.9164 30.2692ZM58.8363 30.558C58.6743 30.7476 58.3268 31.2704 58.064 31.7201C57.2705 33.0778 56.7634 33.816 56.2868 34.3075C55.8604 34.7473 55.8134 34.7749 55.4899 34.7749C55.1084 34.7749 54.857 34.8766 54.857 35.0312C54.857 35.184 54.9913 35.2115 55.9934 35.2643C56.9472 35.3147 58.1127 35.2141 58.2553 35.0692C58.3781 34.9443 58.0894 34.7749 57.754 34.7749C57.3277 34.7749 57.175 34.667 57.175 34.3658C57.175 33.8473 57.4687 33.4 57.8668 33.3126C57.9902 33.2855 58.5859 33.2873 59.1906 33.3166L60.29 33.3698L60.5982 33.8293C60.7677 34.0821 60.9282 34.3799 60.9548 34.4912C60.9972 34.669 60.9772 34.6993 60.7902 34.7408C60.3085 34.8475 60.2028 34.903 60.1795 35.0611C60.1558 35.2223 60.1648 35.2235 61.4208 35.2235C62.7516 35.2235 63.83 35.1591 63.83 35.0796C63.83 35.0536 63.5791 34.9528 63.2724 34.8555C62.7146 34.6787 62.7146 34.6787 61.2457 32.4461C59.7768 30.2135 59.7768 30.2135 59.4538 30.2135C59.1623 30.2135 59.102 30.2472 58.8363 30.558ZM65.9818 30.3241C65.5192 30.4515 65.0167 30.7503 64.768 31.0459C64.596 31.2502 64.5755 31.3252 64.6194 31.5895C64.7626 32.4521 65.2158 32.7375 66.8334 32.9841C68.0263 33.1658 68.3158 33.2385 68.7775 33.4725C69.4444 33.8105 69.5584 34.2521 69.0631 34.5798C68.4115 35.0111 67.3594 35.103 66.4846 34.8051C65.9258 34.6147 65.7465 34.4579 65.233 33.7105C64.7789 33.0496 64.5596 32.824 64.464 32.9195C64.3799 33.0037 64.3328 34.0686 64.3873 34.6508C64.4386 35.198 64.4493 35.2235 64.6285 35.2235C64.7315 35.2235 64.9015 35.1562 65.006 35.074C65.2539 34.879 65.3102 34.8834 65.973 35.1487C66.497 35.3586 66.597 35.373 67.5184 35.3722C68.5506 35.3713 69.023 35.2883 69.5604 35.0135C70.5163 34.5248 70.7638 33.5405 70.0982 32.8749C69.8055 32.5822 69.8055 32.5822 69.921 32.2937C70.0414 31.9928 70.0734 31.1767 69.9889 30.5605C69.9326 30.1503 69.7609 30.0957 69.5288 30.4143C69.3825 30.6151 69.3825 30.6151 68.5692 30.4142C67.6565 30.1889 66.6062 30.1523 65.9818 30.3241ZM71.5319 30.4925C71.5319 30.6686 71.6416 30.7165 72.1301 30.7542C72.3622 30.772 72.413 30.8167 72.5788 31.1482C72.7616 31.5137 72.7653 31.5548 72.745 32.9703C72.7334 33.7835 72.6903 34.482 72.6468 34.5632C72.5268 34.7874 72.1223 34.9986 71.8123 34.9989C71.6131 34.9991 71.5319 35.0316 71.5319 35.1114C71.5319 35.2081 71.7943 35.2235 73.4449 35.2235C74.8972 35.2235 75.3508 35.202 75.3281 35.134C75.3117 35.0847 75.0762 34.9904 74.8049 34.9242C74.0605 34.7427 74.0575 34.7379 74.0868 33.792C74.1005 33.3494 74.1476 32.9515 74.1915 32.9077C74.3063 32.7932 76.4174 32.7927 76.862 32.9071L77.2195 32.9992L77.1985 33.8683C77.1752 34.8345 77.2294 34.7689 76.2615 35.0029C76.0867 35.0452 75.9437 35.1087 75.9437 35.144C75.9437 35.2547 76.8566 35.3731 77.7071 35.3726C78.9329 35.3719 79.7573 35.2946 79.7573 35.1801C79.7573 35.0746 79.6517 35.0343 79.1844 34.9618C78.6109 34.8728 78.6132 34.8828 78.6876 32.8069C78.7355 31.4704 78.78 30.9454 78.8531 30.8574C78.9202 30.7766 79.0738 30.737 79.3201 30.737C79.582 30.737 79.6998 30.7039 79.7315 30.6216C79.7559 30.5581 79.7564 30.4869 79.7329 30.4633C79.5827 30.3131 76.0312 30.3255 75.88 30.4767C75.7741 30.5826 76.1432 30.737 76.5022 30.737C76.7254 30.737 76.9512 30.7851 77.0487 30.8534C77.1981 30.958 77.2149 31.0335 77.2149 31.5992C77.2149 32.2287 77.2149 32.2287 76.9719 32.3588C76.779 32.462 76.4873 32.4949 75.5588 32.5179C74.4491 32.5454 74.3807 32.5388 74.2316 32.3897C74.0997 32.2578 74.0743 32.1419 74.0743 31.6709C74.0743 30.9975 74.1421 30.9144 74.833 30.7412C75.0886 30.6772 75.3104 30.5851 75.3261 30.5366C75.3708 30.3975 74.8153 30.3474 73.1033 30.3361C71.5319 30.3257 71.5319 30.3257 71.5319 30.4925ZM80.8023 30.4801C80.7027 30.7422 80.6991 30.7368 80.9724 30.7381C81.106 30.7388 81.3667 30.7845 81.5518 30.8398C81.8467 30.928 81.8991 30.9763 81.976 31.2312C82.0293 31.4078 82.0661 32.097 82.0696 32.9848C82.0761 34.6379 82.0558 34.5761 82.7319 35.0049C83.2868 35.3568 84.0026 35.4728 85.3561 35.4303C87.4893 35.3634 87.7332 35.0826 87.6369 32.8051C87.5971 31.865 87.609 31.6241 87.7065 31.3929C87.8553 31.04 88.2198 30.8124 88.6369 30.812C88.9026 30.8118 88.9547 30.7877 88.9547 30.6651C88.9547 30.5561 88.873 30.4959 88.6369 30.4308C88.2657 30.3285 87.0428 30.3077 86.3188 30.3914C85.8983 30.44 85.8141 30.4729 85.8141 30.5883C85.8141 30.7371 85.893 30.7723 86.4056 30.8523C86.972 30.9407 87.0603 31.0966 87.1244 32.122C87.1946 33.2462 87.1376 33.9996 86.95 34.4235C86.819 34.7197 86.7575 34.7723 86.4077 34.8886C86.084 34.996 85.8426 35.0127 85.065 34.9812C83.9873 34.9375 83.8532 34.884 83.5663 34.383C83.388 34.0717 83.3842 34.0301 83.3963 32.5416C83.404 31.5931 83.4383 30.9891 83.4873 30.9401C83.5306 30.8968 83.7942 30.8419 84.0731 30.818C84.5803 30.7744 84.5803 30.7744 84.6037 30.5313C84.6272 30.2883 84.6272 30.2883 82.7512 30.2883C80.8752 30.2883 80.8752 30.2883 80.8023 30.4801ZM90.3508 30.5198C90.3243 30.6187 90.3022 31.1117 90.3017 31.6156C90.3009 32.3601 90.3206 32.5316 90.4075 32.5316C90.5816 32.5316 90.733 32.3298 90.9 31.8752C91.0927 31.3509 91.1603 31.2574 91.5274 31.0083C91.8656 30.7788 92.4095 30.7409 92.6768 30.9282C92.8406 31.0429 92.843 31.0699 92.843 32.8267C92.843 34.9924 92.8628 34.941 92.0085 34.9992C91.5171 35.0327 91.4573 35.0535 91.4367 35.1979C91.4019 35.4419 91.6864 35.477 93.6502 35.4706C95.2145 35.4655 95.4072 35.4513 95.5401 35.331C95.7521 35.1392 95.6241 35.0536 95.0339 34.9925C94.2566 34.912 94.2625 34.9269 94.2697 33.0654C94.2733 32.1496 94.3113 31.3853 94.3632 31.1856C94.4464 30.8657 94.4651 30.8479 94.7439 30.8251C95.1158 30.7948 95.6013 30.9785 95.8585 31.2469C95.9682 31.3614 96.1338 31.6886 96.2264 31.974C96.3651 32.4011 96.431 32.5053 96.599 32.5635C96.7113 32.6024 96.8211 32.6163 96.8429 32.5945C96.882 32.5554 96.7566 30.513 96.7124 30.4688C96.6999 30.4563 95.2742 30.4222 93.5443 30.393C90.3989 30.34 90.3989 30.34 90.3508 30.5198ZM98.7186 31.2417C98.6932 31.6839 98.6596 32.1718 98.6437 32.326C98.6164 32.5918 98.6262 32.6064 98.8305 32.6064C99.0975 32.6064 99.2374 32.4093 99.353 31.8704C99.4044 31.6308 99.523 31.3765 99.6515 31.23C99.9948 30.839 100.751 30.6846 101.058 30.9426C101.204 31.0646 101.219 31.1886 101.286 32.7813C101.337 33.9846 101.334 34.5413 101.278 34.6656C101.182 34.8757 100.867 34.9992 100.427 34.9992C100.131 34.9992 99.8719 35.1369 99.8719 35.2943C99.8719 35.4124 100.363 35.4478 102.003 35.4478C103.659 35.4478 104.134 35.4126 104.134 35.2899C104.134 35.1902 103.62 34.9992 103.351 34.9992C102.811 34.9992 102.639 34.4627 102.639 32.779C102.639 31.4159 102.713 31.0895 103.051 30.9609C103.607 30.7496 103.971 30.9646 104.525 31.8292C104.935 32.4709 105.137 32.6756 105.248 32.5646C105.334 32.4785 105.343 31.0622 105.259 30.7507L105.175 30.4379H101.97H98.7647L98.7186 31.2417ZM43.6167 30.7694C44.0401 30.9596 44.1106 31.027 44.4579 31.5727C44.6664 31.9003 44.837 32.2134 44.837 32.2685C44.837 32.3447 44.6402 32.3749 44.0169 32.3941C43.3754 32.4139 43.1698 32.4466 43.0725 32.544C42.9565 32.6602 42.9733 32.6794 43.323 32.8299C43.854 33.0583 44.1258 33.3625 44.1165 33.7178C44.1059 34.1254 43.9728 34.319 43.5781 34.5015C43.2714 34.6433 43.1137 34.6609 42.2696 34.648C41.3699 34.6343 41.2944 34.6216 41.0622 34.4444C40.9259 34.3405 40.7353 34.0948 40.6385 33.8983C40.482 33.5804 40.4633 33.4419 40.4685 32.6414C40.4741 31.8084 40.4892 31.7168 40.673 31.4032C41.1123 30.6535 41.4289 30.4946 42.4068 30.5326C43.0236 30.5566 43.2355 30.598 43.6167 30.7694ZM106.527 30.6977C106.527 30.8613 106.552 30.8779 106.74 30.8401C106.88 30.8122 107.061 30.852 107.264 30.9557C107.574 31.1139 107.574 31.1139 107.573 32.4022C107.573 33.8248 107.475 34.9218 107.341 35.0045C107.293 35.034 107.117 35.08 106.95 35.1067C106.644 35.1558 106.452 35.2617 106.452 35.3822C106.452 35.4189 107.953 35.4478 109.854 35.4478H113.257V34.4384C113.257 33.4945 113.248 33.4289 113.114 33.4289C113.018 33.4289 112.915 33.5437 112.801 33.7809C112.411 34.5858 111.747 35.0087 110.638 35.1579C109.164 35.3562 108.886 35.1007 109.089 33.7332C109.179 33.1267 109.191 33.1006 109.406 33.0425C109.775 32.9431 110.075 33.1004 110.602 33.6691C110.871 33.9602 111.114 34.1764 111.14 34.1494C111.217 34.0728 111.262 32.5228 111.204 31.9768C111.159 31.5597 111.129 31.4847 111.008 31.4847C110.894 31.4847 110.864 31.5381 110.864 31.7407C110.864 32.0311 110.598 32.3971 110.261 32.5717C110.04 32.6857 109.39 32.7193 109.251 32.6239C109.207 32.5937 109.127 32.3314 109.074 32.0411C108.988 31.5786 108.991 31.485 109.094 31.2847C109.235 31.0123 109.427 30.9613 110.309 30.9613C111.13 30.9613 111.612 31.0723 112.043 31.3603C112.327 31.5502 112.421 31.6697 112.519 31.9655C112.639 32.3276 112.816 32.5316 113.009 32.5316C113.084 32.5316 113.107 32.3452 113.107 31.7558C113.107 30.3641 113.506 30.5126 109.77 30.5126C106.527 30.5126 106.527 30.5126 106.527 30.6977ZM130.644 30.6637C129.739 30.8236 128.959 31.355 128.96 31.812C128.961 32.4318 129.248 32.8476 129.847 33.1C129.997 33.1628 130.595 33.2939 131.176 33.3913C132.527 33.6175 132.737 33.6761 133.165 33.9475C133.707 34.2914 133.742 34.6472 133.271 35.0285C132.984 35.2609 132.984 35.2609 131.909 35.2851C130.835 35.3092 130.835 35.3092 130.505 35.0825C130.057 34.7743 129.552 34.1978 129.289 33.6958C129.17 33.467 129.052 33.2796 129.027 33.2795C129.003 33.2794 128.919 33.3505 128.84 33.4374C128.716 33.5752 128.699 33.7122 128.702 34.5045C128.708 35.7089 128.703 35.6986 129.18 35.5172C129.647 35.3399 129.919 35.3348 130.153 35.4987C130.305 35.6057 130.554 35.6251 131.833 35.6295C133.328 35.6348 133.336 35.634 133.757 35.4269C134.272 35.174 134.691 34.7298 134.76 34.3633C134.845 33.909 134.478 33.311 133.918 32.99C133.79 32.9169 133.792 32.9056 133.949 32.7941C134.189 32.6225 134.292 32.1499 134.233 31.4872C134.145 30.5017 134.053 30.3798 133.729 30.8178C133.536 31.0793 133.461 31.0798 132.614 30.8255C132.014 30.6454 131.15 30.5744 130.644 30.6637ZM138.998 31.2417C138.795 31.5604 138.441 32.1409 138.212 32.5316C137.719 33.3711 137.174 34.1537 136.744 34.6384C136.502 34.9118 136.331 35.0223 135.961 35.1456C135.447 35.3164 135.173 35.4794 135.257 35.5634C135.356 35.663 136.847 35.7277 137.554 35.6631C138.605 35.5671 138.643 35.5415 138.107 35.2979C137.858 35.1849 137.63 35.0538 137.601 35.0067C137.521 34.8769 137.765 34.2199 137.963 34.0343C138.126 33.8808 138.215 33.8695 139.374 33.8553C140.599 33.8403 140.613 33.842 140.814 34.0271C141.026 34.2229 141.298 34.7665 141.298 34.9966C141.298 35.0863 141.16 35.1962 140.886 35.326C140.66 35.433 140.475 35.5548 140.475 35.5964C140.475 35.6845 141.499 35.6949 143.074 35.6229C143.84 35.5878 144.139 35.5483 144.139 35.4822C144.139 35.4272 143.978 35.3702 143.739 35.3402C143.338 35.2902 143.338 35.2902 141.701 32.9791C140.064 30.668 140.064 30.668 139.716 30.6651C139.368 30.6622 139.368 30.6622 138.998 31.2417ZM68.2517 30.9229C68.8788 31.1425 69.4382 31.7429 69.4382 32.1964C69.4382 32.3479 69.4086 32.3832 69.3074 32.353C69.2354 32.3315 68.8568 32.2599 68.4661 32.194C67.492 32.0297 66.6703 31.8145 66.167 31.5919C65.9345 31.4891 65.7314 31.3922 65.7158 31.3765C65.6345 31.2952 65.8994 31.0053 66.1728 30.8764C66.4361 30.7524 66.5949 30.7351 67.1949 30.7655C67.5856 30.7853 68.0612 30.8561 68.2517 30.9229ZM132.282 31.2649C132.883 31.4897 133.671 32.2486 133.671 32.6026C133.671 32.8334 132.242 32.6079 130.941 32.1718C130.266 31.9454 130.115 31.8675 130.096 31.7371C130.065 31.5179 130.256 31.3498 130.649 31.2508C130.832 31.2048 131.002 31.1337 131.027 31.0925C131.093 30.9858 131.793 31.082 132.282 31.2649ZM59.5963 32.1243C59.7559 32.3924 59.8668 32.6313 59.8428 32.6553C59.7941 32.7042 58.5106 32.8453 58.4715 32.8062C58.4579 32.7925 58.4998 32.6251 58.5649 32.4344C58.6692 32.1282 59.0966 31.6317 59.2526 31.6356C59.282 31.6363 59.4367 31.8562 59.5963 32.1243ZM139.713 32.5608C140.056 33.1475 140.018 33.2046 139.281 33.2046C138.918 33.2046 138.681 33.1741 138.681 33.1274C138.681 32.8217 139.214 32.049 139.386 32.1062C139.428 32.1202 139.575 32.3248 139.713 32.5608Z" fill="#BD9542"/>
</svg>
